<svg width="120" height="120" viewBox="0 0 120 120" fill="none" xmlns="http://www.w3.org/2000/svg">
<circle cx="60" cy="60" r="60" fill="url(#paint0_linear)"/>
<circle opacity="0.2" cx="60" cy="60" r="56.5" stroke="#3B3D3E"/>
<g clip-path="url(#clip0)">
<path d="M66.0896 39.5386C61.6309 39.5386 57.2556 40.7309 53.4372 42.9868C50.7188 44.5927 48.3315 46.7054 46.4036 49.1885V44.3318C46.4036 43.1953 45.479 42.2708 44.3426 42.2708H28.8149C27.6783 42.2708 26.7538 43.1954 26.7538 44.3318V55.1435H23.0621C22.2255 55.1435 21.4782 55.6428 21.158 56.4158C20.8378 57.1888 21.0131 58.0705 21.6048 58.6623L27.5204 64.5779C27.9209 64.9782 28.5702 64.9782 28.9705 64.5779C29.3709 64.1773 29.3709 63.5281 28.9705 63.1277L23.0498 57.2123C23.0497 57.2065 23.0546 57.1947 23.0621 57.1944H27.7794C28.3457 57.1944 28.8048 56.7355 28.8048 56.169V44.332C28.8048 44.3264 28.8094 44.3217 28.815 44.3217H44.3427C44.3484 44.3217 44.353 44.3264 44.353 44.332V52.5152C44.3527 52.5224 44.353 52.5296 44.353 52.5368V56.1692C44.353 56.7356 44.8121 57.1946 45.3784 57.1946L50.0989 57.1909C50.1031 57.1948 50.1079 57.2066 50.1027 57.2122L36.5859 70.7289C36.5825 70.7323 36.5748 70.7323 36.5715 70.7287L31.6632 65.8204C31.2627 65.42 30.6134 65.42 30.2131 65.8204C29.8127 66.221 29.8127 66.8701 30.2131 67.2705L35.1214 72.1787C35.5106 72.568 36.0282 72.7824 36.5789 72.7824C37.1296 72.7824 37.6471 72.568 38.0364 72.1788L41.5383 68.6769C42.4595 74.0616 45.1286 78.9973 49.1891 82.7489C53.8023 87.0114 59.8046 89.3589 66.0899 89.3589C70.4558 89.3589 74.7518 88.2127 78.5132 86.0445C79.0038 85.7616 79.1722 85.1346 78.8895 84.644C78.6066 84.1534 77.9799 83.9851 77.4889 84.2677C74.0387 86.2568 70.0967 87.3081 66.0899 87.3081C54.4608 87.3081 44.5664 78.3636 43.3565 66.8589L44.2255 65.9899C45.0191 77.3601 54.5218 86.3685 66.0902 86.3685C66.6566 86.3685 67.1156 85.9096 67.1156 85.3431C67.1156 84.7767 66.6566 84.3177 66.0902 84.3177C55.1345 84.3177 46.2214 75.4047 46.2214 64.4489C46.2214 64.3141 46.1947 64.1859 46.1474 64.068L48.9906 61.2248C48.794 62.27 48.6898 63.3475 48.6898 64.4489C48.6898 74.0434 56.4956 81.8491 66.0902 81.8491C75.6846 81.8491 83.4902 74.0434 83.4902 64.4489C83.4902 61.9152 82.9566 59.4707 81.9041 57.1835C81.6673 56.6689 81.0581 56.444 80.5441 56.6805C80.0294 56.9172 79.8044 57.5263 80.0411 58.0406C80.9688 60.0569 81.4394 62.213 81.4394 64.4488C81.4394 72.9124 74.5538 79.7982 66.0902 79.7982C57.6265 79.7982 50.7406 72.9126 50.7406 64.4488C50.7406 55.985 57.6264 49.0994 66.0902 49.0994C70.8598 49.0994 75.2777 51.2615 78.2112 55.0317C78.5592 55.4789 79.2035 55.5591 79.65 55.2112C80.0971 54.8634 80.1774 54.2191 79.8296 53.7723C76.5048 49.4994 71.4969 47.0486 66.09 47.0486C59.7816 47.0486 54.2471 50.4231 51.1954 55.4616C50.8734 55.2585 50.4948 55.1435 50.0953 55.1435H46.4036V52.8286C50.5082 45.8902 58.0247 41.5895 66.0896 41.5895C78.6945 41.5895 88.9494 51.8438 88.9494 64.448C88.9494 71.3403 85.884 77.7967 80.5391 82.1619C80.1005 82.5201 80.0353 83.1661 80.3937 83.6047C80.5963 83.8529 80.8912 83.9815 81.1884 83.9815C81.4165 83.9815 81.646 83.9058 81.8363 83.7504C87.6602 78.9943 91.0001 71.9588 91.0001 64.4481C91.0004 50.713 79.8255 39.5386 66.0896 39.5386Z" fill="#3B3D3E"/>
<path d="M66.0901 42.5288C65.5236 42.5288 65.0647 42.9878 65.0647 43.5542C65.0647 44.1206 65.5236 44.5796 66.0901 44.5796C77.0458 44.5796 85.9589 53.4926 85.9589 64.4484C85.9589 65.0148 86.4178 65.4738 86.9843 65.4738C87.5507 65.4738 88.0097 65.0148 88.0097 64.4484C88.0097 52.362 78.1765 42.5288 66.0901 42.5288Z" fill="#3B3D3E"/>
<path d="M66.0899 49.8679C58.05 49.8679 51.5093 56.4089 51.5093 64.4487C51.5093 72.4886 58.0501 79.0294 66.0899 79.0294C74.1297 79.0294 80.6707 72.4885 80.6707 64.4487C80.6707 56.4089 74.1299 49.8679 66.0899 49.8679ZM66.0899 76.9786C59.1809 76.9786 53.5601 71.3577 53.5601 64.4487C53.5601 57.5395 59.181 51.9187 66.0899 51.9187C72.999 51.9187 78.6199 57.5397 78.6199 64.4487C78.6199 71.3577 72.9992 76.9786 66.0899 76.9786Z" fill="#3B3D3E"/>
<path d="M65.1626 73L65.1627 69.7397H68.4974L68.4972 67.8767H65.1626L65.1627 66.0137H67.4319C69.608 66.0137 71 64.134 71 60.9251C71 57.6687 69.6076 56 67.2737 56L63.2429 56L63.2431 64.0389H62L62.0002 66.0137H63.2433L63.2431 67.8767H62L62.0002 69.7397H63.2433L63.2431 73H65.1626ZM65.1626 57.9539H67.0963C68.3788 57.9539 69.2099 58.7621 69.2099 60.9251C69.2099 63.0644 68.3788 64.0389 67.0963 64.0389H65.1626V57.9539Z" fill="#3B3D3E"/>
<path d="M39.7358 32.5642C39.1695 32.5642 38.7104 33.0232 38.7104 33.5896V40.002C38.7104 40.5685 39.1695 41.0276 39.7358 41.0276C40.3021 41.0276 40.7612 40.5686 40.7612 40.0022V33.5896C40.7612 33.0232 40.3021 32.5642 39.7358 32.5642Z" fill="#3B3D3E"/>
<path d="M36.5788 26.6414C36.0125 26.6414 35.5534 27.1003 35.5534 27.6668V40.0023C35.5534 40.5686 36.0125 41.0277 36.5788 41.0277C37.1451 41.0277 37.6042 40.5687 37.6042 40.0023V27.6668C37.6042 27.1003 37.1451 26.6414 36.5788 26.6414Z" fill="#3B3D3E"/>
<path d="M33.4218 32.5642C32.8555 32.5642 32.3964 33.0232 32.3964 33.5896V40.002C32.3964 40.5685 32.8555 41.0276 33.4218 41.0276C33.9881 41.0276 34.4472 40.5686 34.4472 40.0022V33.5896C34.4472 33.0232 33.9881 32.5642 33.4218 32.5642Z" fill="#3B3D3E"/>
</g>
<defs>
<linearGradient id="paint0_linear" x1="60" y1="120" x2="60" y2="-4.32694e-06" gradientUnits="userSpaceOnUse">
<stop stop-color="#E2A03B"/>
<stop offset="1" stop-color="#EECA4D"/>
</linearGradient>
<clipPath id="clip0">
<rect width="70" height="70" fill="white" transform="translate(21 23)"/>
</clipPath>
</defs>
</svg>
