<svg width="120" height="120" viewBox="0 0 120 120" fill="none" xmlns="http://www.w3.org/2000/svg">
<circle cx="60" cy="60" r="60" fill="url(#paint0_linear)"/>
<circle opacity="0.2" cx="60" cy="60" r="56.5" stroke="#3B3D3E"/>
<path d="M32.1754 51.5896H38.0474C38.3947 52.842 38.895 54.0468 39.5383 55.176L35.3822 59.3305C35.1837 59.529 35.0721 59.7981 35.0721 60.0793C35.0721 60.3604 35.1837 60.6296 35.3822 60.8281L39.8724 65.3195C40.2859 65.7322 40.9557 65.7322 41.3692 65.3195L45.5257 61.1626C46.6549 61.8055 47.8585 62.3062 49.1109 62.6531V68.5251C49.1109 69.1097 49.5847 69.5836 50.1693 69.5836H56.5201C57.1048 69.5836 57.5786 69.1097 57.5786 68.5251V62.6531C58.831 62.3062 60.0346 61.8055 61.1638 61.1626L65.3203 65.3195C65.7404 65.7164 66.3974 65.7164 66.817 65.3195L71.3081 60.8281C71.5066 60.6296 71.6182 60.3604 71.6182 60.0793C71.6182 59.7981 71.5066 59.529 71.3081 59.3305L67.1511 55.176C67.7945 54.0468 68.2948 52.842 68.6421 51.5896H74.5141C75.0987 51.5896 75.5726 51.1158 75.5726 50.5312V44.1803C75.5726 43.5961 75.0987 43.1219 74.5141 43.1219H68.6421C68.2948 41.8699 67.7945 40.6651 67.1511 39.5359L71.3073 35.3814C71.5057 35.183 71.6174 34.9138 71.6174 34.6326C71.6174 34.3515 71.5057 34.0823 71.3073 33.8839L66.817 29.3924C66.4036 28.9793 65.7338 28.9793 65.3203 29.3924L61.1638 33.5494C60.0346 32.9068 58.8306 32.4061 57.5786 32.0588V26.1864C57.5786 25.6022 57.1048 25.1279 56.5201 25.1279H50.1693C49.5847 25.1279 49.1109 25.6022 49.1109 26.1864V32.0588C47.8589 32.4061 46.6549 32.9068 45.5257 33.5494L41.3692 29.3924C40.9491 28.9955 40.2921 28.9955 39.8724 29.3924L35.3814 33.8839C35.1829 34.0823 35.0713 34.3515 35.0713 34.6326C35.0713 34.9138 35.1829 35.183 35.3814 35.3814L39.5383 39.5359C38.895 40.6651 38.3947 41.8699 38.0474 43.1219H32.1754C31.5907 43.1219 31.1169 43.5961 31.1169 44.1803V50.5312C31.1169 51.1158 31.5907 51.5896 32.1754 51.5896ZM33.2338 45.2388H38.8756C39.373 45.2388 39.8034 44.8927 39.9096 44.4069C40.2569 42.8217 40.885 41.3109 41.764 39.9465C42.0324 39.5281 41.9728 38.9786 41.621 38.6267L37.6265 34.6322L40.6208 31.6375L44.6144 35.632C44.9663 35.9847 45.5162 36.0442 45.9355 35.7755C47.3003 34.8968 48.8107 34.2688 50.3959 33.9211C50.8813 33.8144 51.2278 33.384 51.2278 32.8866V27.2449H55.4617V32.8866C55.4617 33.384 55.8082 33.8144 56.2936 33.9211C57.8788 34.2688 59.3892 34.8968 60.754 35.7755C61.1733 36.0442 61.7232 35.9847 62.075 35.632L66.0687 31.6375L69.0622 34.6322L65.0685 38.6255C64.7158 38.9777 64.6567 39.5276 64.9254 39.9465C65.8045 41.3117 66.4317 42.8221 66.7786 44.4078C66.8853 44.8936 67.3157 45.2401 67.8127 45.2401H73.4556V49.4739H67.8127C67.3157 49.4739 66.8853 49.82 66.7786 50.3058C66.4317 51.891 65.8041 53.4014 64.9254 54.765C64.6571 55.1839 64.7166 55.7334 65.0685 56.0852L69.063 60.0789L66.0687 63.0744L62.075 59.0795C61.7232 58.7273 61.1733 58.6677 60.754 58.9365C59.39 59.8155 57.88 60.4435 56.2948 60.7909C55.8086 60.8967 55.4617 61.3275 55.4617 61.8249V67.4666H51.2278V61.8249C51.2278 61.3275 50.8809 60.8967 50.3947 60.7909C48.8095 60.4435 47.2995 59.8155 45.9355 58.9365C45.5162 58.6677 44.9663 58.7273 44.6144 59.0795L40.6208 63.0744L37.6273 60.0797L41.621 56.086C41.9736 55.7342 42.0328 55.1843 41.764 54.765C40.885 53.4002 40.2569 51.8894 39.9096 50.3038C39.803 49.8179 39.373 49.4727 38.8756 49.4727H33.2338V45.2388Z" fill="#3B3D3E"/>
<path d="M53.3448 55.8234C58.0215 55.8234 61.8126 52.0328 61.8126 47.3557C61.8126 42.679 58.0215 38.8879 53.3448 38.8879C48.6681 38.8879 44.8771 42.679 44.8771 47.3557C44.882 52.0299 48.6706 55.8185 53.3448 55.8234ZM53.3448 41.0049C56.8518 41.0049 59.6956 43.8487 59.6956 47.3557C59.6956 50.8631 56.8518 53.7065 53.3448 53.7065C49.8378 53.7065 46.994 50.8631 46.994 47.3557C46.9977 43.8495 49.8386 41.0086 53.3448 41.0049Z" fill="#3B3D3E"/>
<path d="M53.3448 58.9987C59.775 58.9987 64.988 53.7861 64.988 47.3555C64.988 40.9254 59.775 35.7124 53.3448 35.7124C46.9146 35.7124 41.7017 40.9254 41.7017 47.3555C41.7095 53.7828 46.9175 58.9912 53.3448 58.9987ZM53.3448 37.8293C58.6061 37.8293 62.871 42.0942 62.871 47.3555C62.871 52.6169 58.6061 56.8817 53.3448 56.8817C48.0835 56.8817 43.8186 52.6169 43.8186 47.3555C43.8244 42.0971 48.086 37.8351 53.3448 37.8293Z" fill="#3B3D3E"/>
<path d="M91.4496 73.8175V65.3498C91.4496 64.7656 90.9757 64.2913 90.3911 64.2913H88.2742V55.8236C88.2742 55.2394 87.8003 54.7651 87.2157 54.7651H77.6895C77.1049 54.7651 76.631 55.2394 76.631 55.8236V64.2913H71.3387C70.754 64.2913 70.2802 64.7656 70.2802 65.3498V73.8175H36.4093C33.4877 73.8213 31.1206 76.1883 31.1169 79.1099V81.2268C31.1206 84.1488 33.4877 86.5158 36.4093 86.5192H91.4496C94.3711 86.5158 96.7382 84.1488 96.7419 81.2268V79.1099C96.7382 76.1883 94.3711 73.8213 91.4496 73.8175ZM89.3326 73.8175H81.9234V66.4083H89.3326V73.8175ZM78.748 56.8821H86.1572V64.2913H78.748V56.8821ZM72.3972 66.4083H79.8064V73.8175H72.3972V66.4083ZM94.625 81.2268C94.625 82.9807 93.2031 84.4022 91.4496 84.4022H36.4093C34.6558 84.4022 33.2338 82.9807 33.2338 81.2268V79.1099C33.2338 77.3564 34.6558 75.9345 36.4093 75.9345H91.4496C93.2031 75.9345 94.625 77.3564 94.625 79.1099V81.2268Z" fill="#3B3D3E"/>
<path d="M63.9294 76.9929C62.1759 76.9929 60.754 78.4148 60.754 80.1683C60.754 81.9222 62.1759 83.3437 63.9294 83.3437C65.6829 83.3437 67.1048 81.9222 67.1048 80.1683C67.1048 78.4148 65.6829 76.9929 63.9294 76.9929ZM63.9294 81.2268C63.3448 81.2268 62.871 80.753 62.871 80.1683C62.871 79.5841 63.3448 79.1099 63.9294 79.1099C64.5141 79.1099 64.9879 79.5841 64.9879 80.1683C64.9879 80.753 64.5141 81.2268 63.9294 81.2268Z" fill="#3B3D3E"/>
<path d="M53.3448 76.9929C51.5913 76.9929 50.1694 78.4148 50.1694 80.1683C50.1694 81.9222 51.5913 83.3437 53.3448 83.3437C55.0983 83.3437 56.5202 81.9222 56.5202 80.1683C56.5202 78.4148 55.0983 76.9929 53.3448 76.9929ZM53.3448 81.2268C52.7601 81.2268 52.2863 80.753 52.2863 80.1683C52.2863 79.5841 52.7601 79.1099 53.3448 79.1099C53.9294 79.1099 54.4032 79.5841 54.4032 80.1683C54.4032 80.753 53.9294 81.2268 53.3448 81.2268Z" fill="#3B3D3E"/>
<path d="M74.5142 76.9929C72.7607 76.9929 71.3388 78.4148 71.3388 80.1683C71.3388 81.9222 72.7607 83.3437 74.5142 83.3437C76.2677 83.3437 77.6896 81.9222 77.6896 80.1683C77.6896 78.4148 76.2677 76.9929 74.5142 76.9929ZM74.5142 81.2268C73.9296 81.2268 73.4557 80.753 73.4557 80.1683C73.4557 79.5841 73.9296 79.1099 74.5142 79.1099C75.0988 79.1099 75.5727 79.5841 75.5727 80.1683C75.5727 80.753 75.0988 81.2268 74.5142 81.2268Z" fill="#3B3D3E"/>
<path d="M42.76 76.9929C41.0065 76.9929 39.5846 78.4148 39.5846 80.1683C39.5846 81.9222 41.0065 83.3437 42.76 83.3437C44.5135 83.3437 45.9354 81.9222 45.9354 80.1683C45.9354 78.4148 44.5135 76.9929 42.76 76.9929ZM42.76 81.2268C42.1754 81.2268 41.7015 80.753 41.7015 80.1683C41.7015 79.5841 42.1754 79.1099 42.76 79.1099C43.3446 79.1099 43.8185 79.5841 43.8185 80.1683C43.8185 80.753 43.3446 81.2268 42.76 81.2268Z" fill="#3B3D3E"/>
<path d="M85.0987 76.9929C83.3452 76.9929 81.9233 78.4148 81.9233 80.1683C81.9233 81.9222 83.3452 83.3437 85.0987 83.3437C86.8522 83.3437 88.2741 81.9222 88.2741 80.1683C88.2741 78.4148 86.8522 76.9929 85.0987 76.9929ZM85.0987 81.2268C84.5141 81.2268 84.0403 80.753 84.0403 80.1683C84.0403 79.5841 84.5141 79.1099 85.0987 79.1099C85.6834 79.1099 86.1572 79.5841 86.1572 80.1683C86.1572 80.753 85.6834 81.2268 85.0987 81.2268Z" fill="#3B3D3E"/>
<defs>
<linearGradient id="paint0_linear" x1="60" y1="120" x2="60" y2="-4.32694e-06" gradientUnits="userSpaceOnUse">
<stop stop-color="#E2A03B"/>
<stop offset="1" stop-color="#EECA4D"/>
</linearGradient>
</defs>
</svg>
