<svg width="120" height="120" viewBox="0 0 120 120" fill="none" xmlns="http://www.w3.org/2000/svg">
<circle cx="60" cy="60" r="60" fill="url(#paint0_linear)"/>
<circle opacity="0.2" cx="60" cy="60" r="56.5" stroke="#3B3D3E"/>
<path d="M94.6565 54.625H91.251C91.057 53.9228 90.6396 53.3028 90.062 52.8588C89.4844 52.4148 88.7779 52.1709 88.0494 52.1641H84.4141V43.2741C84.4182 43.1078 84.378 42.9434 84.2976 42.7977C84.2172 42.6521 84.0995 42.5305 83.9566 42.4453L58.3113 27.6329C58.1668 27.5489 58.0026 27.5046 57.8354 27.5046C57.6682 27.5046 57.504 27.5489 57.3595 27.6329L31.7063 42.4453C31.5611 42.5294 31.4407 42.6503 31.3572 42.7958C31.2736 42.9414 31.2299 43.1063 31.2305 43.2741V72.899C31.2305 73.067 31.2747 73.232 31.3587 73.3775C31.4427 73.523 31.5635 73.6438 31.709 73.7278L57.3648 88.5402C57.5103 88.6242 57.6753 88.6684 57.8433 88.6684C58.0157 88.6685 58.1851 88.6243 58.3355 88.5402L71.8359 80.7531V86.3823C71.8345 86.9183 71.9395 87.4492 72.1446 87.9443C72.3498 88.4394 72.6512 88.8889 73.0312 89.2668C73.4113 89.6447 73.8626 89.9434 74.3589 90.1457C74.8552 90.348 75.3867 90.4498 75.9226 90.4453H94.6565C95.1938 90.4503 95.7268 90.349 96.2248 90.1472C96.7228 89.9454 97.176 89.6471 97.5583 89.2695C97.9405 88.8919 98.2444 88.4424 98.4522 87.9469C98.6601 87.4514 98.7679 86.9197 98.7695 86.3823V58.7515C98.7689 57.6596 98.3358 56.6124 97.5649 55.8391C96.7941 55.0657 95.7484 54.6292 94.6565 54.625ZM88.0835 54.0781C88.4519 54.0781 88.8052 54.2245 89.0658 54.485C89.3263 54.7456 89.4727 55.0989 89.4727 55.4673V55.56C89.4727 55.9285 89.3263 56.2818 89.0658 56.5423C88.8052 56.8029 88.4519 56.9492 88.0835 56.9492H82.522C82.1536 56.9492 81.8002 56.8029 81.5397 56.5423C81.2792 56.2818 81.1328 55.9285 81.1328 55.56V55.4673C81.1328 55.0989 81.2792 54.7456 81.5397 54.485C81.8002 54.2245 82.1536 54.0781 82.522 54.0781H88.0835ZM57.8433 29.5668L68.5038 35.7216L44.7637 49.4279L34.1033 43.2731L57.8433 29.5668ZM56.9336 86.0536L33.1445 72.3464V44.9296L56.9336 58.6369V86.0536ZM57.8433 56.9793L46.6778 50.5329L70.4179 36.8267L81.584 43.2731L57.8433 56.9793ZM71.8359 58.7515V78.543L58.8477 86.0536V58.6369L82.5 44.9296V52.1641H82.5297C81.8012 52.1709 81.0947 52.4148 80.5171 52.8588C79.9394 53.3028 79.5221 53.9228 79.3281 54.625H75.9226C74.8335 54.6303 73.7911 55.068 73.0247 55.8419C72.2583 56.6157 71.8307 57.6623 71.8359 58.7515ZM96.8555 86.3823C96.8542 86.6684 96.796 86.9513 96.6844 87.2147C96.5728 87.4781 96.41 87.7167 96.2054 87.9167C96.0008 88.1166 95.7585 88.2739 95.4926 88.3794C95.2267 88.4849 94.9425 88.5365 94.6565 88.5313H75.9226C75.638 88.5361 75.3552 88.4839 75.091 88.3779C74.8268 88.2719 74.5865 88.1142 74.3841 87.914C74.1817 87.7138 74.0213 87.4752 73.9124 87.2122C73.8035 86.9491 73.7483 86.667 73.75 86.3823V58.7515C73.7471 58.4635 73.8011 58.1777 73.9087 57.9106C74.0164 57.6435 74.1757 57.4002 74.3775 57.1947C74.5793 56.9892 74.8196 56.8255 75.0848 56.713C75.3499 56.6005 75.6346 56.5414 75.9226 56.5391H79.3654C79.5707 57.2165 79.99 57.8092 80.5605 58.2282C81.1309 58.6472 81.8219 58.8701 82.5297 58.8633H88.0494C88.7572 58.8701 89.4481 58.6472 90.0186 58.2282C90.589 57.8092 91.0083 57.2165 91.2135 56.5391H94.6565C95.2409 56.5428 95.8001 56.7775 96.2121 57.1919C96.624 57.6064 96.8553 58.1671 96.8555 58.7515V86.3823Z" fill="#3B3D3E"/>
<path d="M77.0243 68.4336H78.026C78.2798 68.4336 78.5232 68.3328 78.7027 68.1533C78.8822 67.9738 78.983 67.7304 78.983 67.4766C78.983 67.2227 78.8822 66.9793 78.7027 66.7998C78.5232 66.6204 78.2798 66.5195 78.026 66.5195H77.9883V63.9219H80.6279C80.688 64.1143 80.8095 64.2817 80.9738 64.3984C81.1382 64.5152 81.3363 64.5748 81.5378 64.5681C81.7919 64.5688 82.0359 64.4687 82.2163 64.2897C82.3967 64.1107 82.4987 63.8674 82.5 63.6133V62.9694C82.4978 62.714 82.395 62.4698 82.2139 62.2898C82.0328 62.1097 81.7879 62.0084 81.5326 62.0078H77.0243C76.8987 62.0085 76.7745 62.0339 76.6588 62.0825C76.5431 62.1312 76.4381 62.2023 76.3498 62.2916C76.2616 62.3809 76.1918 62.4867 76.1445 62.603C76.0972 62.7193 76.0733 62.8438 76.0742 62.9694V67.4777C76.0734 67.6029 76.0975 67.7271 76.1449 67.843C76.1923 67.959 76.2621 68.0644 76.3504 68.1532C76.4387 68.2421 76.5437 68.3126 76.6593 68.3607C76.775 68.4088 76.899 68.4336 77.0243 68.4336Z" fill="#3B3D3E"/>
<path d="M77.0312 77.1836H81.543C81.7968 77.1836 82.0402 77.0828 82.2197 76.9033C82.3992 76.7238 82.5 76.4804 82.5 76.2266V71.7148C82.5 71.461 82.3992 71.2176 82.2197 71.0381C82.0402 70.8586 81.7968 70.7578 81.543 70.7578H77.0312C76.7774 70.7578 76.534 70.8586 76.3545 71.0381C76.175 71.2176 76.0742 71.461 76.0742 71.7148V76.2266C76.0742 76.4804 76.175 76.7238 76.3545 76.9033C76.534 77.0828 76.7774 77.1836 77.0312 77.1836ZM77.9883 72.6719H80.5859V75.2695H77.9883V72.6719Z" fill="#3B3D3E"/>
<path d="M78.0262 84.0195H77.9883V81.4219H80.5762C80.5812 81.6736 80.6846 81.9133 80.8642 82.0896C81.0439 82.2659 81.2855 82.3648 81.5372 82.3651C81.7889 82.3653 82.0307 82.2669 82.2107 82.0909C82.3907 81.915 82.4946 81.6755 82.5 81.4238V80.5016C82.499 80.2429 82.3976 79.9946 82.2171 79.8092C82.0366 79.6238 81.7912 79.5158 81.5326 79.5078H77.0243C76.7675 79.5164 76.5242 79.6253 76.3467 79.811C76.1691 79.9968 76.0713 80.2447 76.0742 80.5016V85.0099C76.0741 85.1335 76.0988 85.2558 76.1468 85.3697C76.1949 85.4835 76.2653 85.5866 76.3539 85.6727C76.4425 85.7589 76.5475 85.8264 76.6626 85.8712C76.7778 85.916 76.9008 85.9372 77.0243 85.9336H78.0262C78.28 85.9336 78.5234 85.8328 78.7029 85.6533C78.8824 85.4738 78.9832 85.2304 78.9832 84.9766C78.9832 84.7227 78.8824 84.4793 78.7029 84.2998C78.5234 84.1204 78.28 84.0195 78.0262 84.0195Z" fill="#3B3D3E"/>
<path d="M83.7361 63.1826L80.9333 65.9853L80.0808 65.1326C79.9919 65.0437 79.8864 64.9732 79.7703 64.9251C79.6542 64.877 79.5297 64.8523 79.404 64.8523C79.2783 64.8523 79.1539 64.877 79.0378 64.9251C78.9216 64.9732 78.8161 65.0437 78.7273 65.1326C78.6384 65.2215 78.5679 65.327 78.5198 65.4431C78.4717 65.5592 78.4469 65.6837 78.4469 65.8094C78.4469 65.9351 78.4717 66.0595 78.5198 66.1756C78.5679 66.2917 78.6384 66.3973 78.7273 66.4861L80.2567 68.0155C80.3456 68.1043 80.4511 68.1748 80.5672 68.2229C80.6833 68.271 80.8078 68.2958 80.9335 68.2958C81.0592 68.2958 81.1836 68.271 81.2997 68.2229C81.4159 68.1748 81.5214 68.1043 81.6102 68.0155L85.09 64.5357C85.2695 64.3562 85.3703 64.1128 85.3703 63.8589C85.3703 63.6051 85.2695 63.3617 85.09 63.1822C84.9105 63.0027 84.6671 62.9019 84.4132 62.9019C84.1594 62.9019 83.916 63.0027 83.7365 63.1822L83.7361 63.1826Z" fill="#3B3D3E"/>
<path d="M83.7361 80.8532L80.9333 83.656L80.0808 82.8033C79.9919 82.7144 79.8864 82.6439 79.7703 82.5958C79.6542 82.5477 79.5297 82.5229 79.404 82.5229C79.2783 82.5229 79.1539 82.5477 79.0378 82.5958C78.9216 82.6439 78.8161 82.7144 78.7273 82.8033C78.6384 82.8921 78.5679 82.9976 78.5198 83.1138C78.4717 83.2299 78.4469 83.3543 78.4469 83.48C78.4469 83.6057 78.4717 83.7302 78.5198 83.8463C78.5679 83.9624 78.6384 84.0679 78.7273 84.1568L80.2567 85.6861C80.3456 85.775 80.4511 85.8455 80.5672 85.8936C80.6833 85.9417 80.8078 85.9665 80.9335 85.9665C81.0592 85.9665 81.1836 85.9417 81.2997 85.8936C81.4159 85.8455 81.5214 85.775 81.6102 85.6861L85.09 82.2064C85.2695 82.0269 85.3703 81.7834 85.3703 81.5296C85.3703 81.2758 85.2695 81.0323 85.09 80.8528C84.9105 80.6733 84.6671 80.5725 84.4132 80.5725C84.1594 80.5725 83.916 80.6733 83.7365 80.8528L83.7361 80.8532Z" fill="#3B3D3E"/>
<path d="M93.5547 64.332H87.5437C87.2899 64.332 87.0464 64.4329 86.867 64.6123C86.6875 64.7918 86.5867 65.0352 86.5867 65.2891C86.5867 65.5429 86.6875 65.7863 86.867 65.9658C87.0464 66.1453 87.2899 66.2461 87.5437 66.2461H93.5547C93.8085 66.2461 94.0519 66.1453 94.2314 65.9658C94.4109 65.7863 94.5117 65.5429 94.5117 65.2891C94.5117 65.0352 94.4109 64.7918 94.2314 64.6123C94.0519 64.4329 93.8085 64.332 93.5547 64.332Z" fill="#3B3D3E"/>
<path d="M93.5547 73.082H87.5437C87.2899 73.082 87.0464 73.1829 86.867 73.3623C86.6875 73.5418 86.5867 73.7852 86.5867 74.0391C86.5867 74.2929 86.6875 74.5363 86.867 74.7158C87.0464 74.8953 87.2899 74.9961 87.5437 74.9961H93.5547C93.8085 74.9961 94.0519 74.8953 94.2314 74.7158C94.4109 74.5363 94.5117 74.2929 94.5117 74.0391C94.5117 73.7852 94.4109 73.5418 94.2314 73.3623C94.0519 73.1829 93.8085 73.082 93.5547 73.082Z" fill="#3B3D3E"/>
<path d="M93.5547 81.832H87.5437C87.2899 81.832 87.0464 81.9329 86.867 82.1123C86.6875 82.2918 86.5867 82.5352 86.5867 82.7891C86.5867 83.0429 86.6875 83.2863 86.867 83.4658C87.0464 83.6453 87.2899 83.7461 87.5437 83.7461H93.5547C93.8085 83.7461 94.0519 83.6453 94.2314 83.4658C94.4109 83.2863 94.5117 83.0429 94.5117 82.7891C94.5117 82.5352 94.4109 82.2918 94.2314 82.1123C94.0519 81.9329 93.8085 81.832 93.5547 81.832Z" fill="#3B3D3E"/>
<defs>
<linearGradient id="paint0_linear" x1="60" y1="120" x2="60" y2="-4.32694e-06" gradientUnits="userSpaceOnUse">
<stop stop-color="#E2A03B"/>
<stop offset="1" stop-color="#EECA4D"/>
</linearGradient>
</defs>
</svg>
