<svg width="120" height="120" viewBox="0 0 120 120" fill="none" xmlns="http://www.w3.org/2000/svg">
<circle cx="60" cy="60" r="60" fill="url(#paint0_linear)"/>
<circle opacity="0.2" cx="60" cy="60" r="56.5" stroke="#3B3D3E"/>
<g clip-path="url(#clip0)">
<path d="M84.1977 73.6881C90.4238 73.6881 95.4888 68.6231 95.4888 62.3969C95.4888 56.1708 90.4238 51.1057 84.1977 51.1057C77.9715 51.1057 72.9065 56.1708 72.9065 62.3969C72.9065 68.6231 77.9715 73.6881 84.1977 73.6881ZM84.1977 53.364C89.1784 53.364 93.2306 57.4162 93.2306 62.3969C93.2306 67.3776 89.1784 71.4299 84.1977 71.4299C79.217 71.4299 75.1647 67.3776 75.1647 62.3969C75.1647 57.4162 79.217 53.364 84.1977 53.364Z" fill="#3B3D3E"/>
<path d="M96.881 70.8717C98.6066 69.6229 99.4948 67.4799 99.1607 65.3744C100.281 63.5539 100.279 61.2234 99.1607 59.4167C99.4948 57.3134 98.6077 55.1726 96.8821 53.9227C96.3842 51.8294 94.7176 50.1754 92.6694 49.7079C91.4195 47.9861 89.2765 47.0984 87.1765 47.4336C85.3494 46.31 83.0123 46.3172 81.2167 47.4336C79.1111 47.1017 76.9737 47.9883 75.7249 49.7123C74.6272 49.9741 73.6574 50.5635 72.9076 51.3618V25.1357H40.8237L30 35.9594V82.7208H72.289L68.862 93.6845L76.0215 90.8198L80.2403 95.0374L84.1977 81.1875L88.1551 95.0385L92.3739 90.8209L99.5334 93.6856L93.6166 74.7547C95.2325 74.0456 96.4658 72.6166 96.881 70.8717ZM73.105 55.5756L73.5758 55.2922L73.6519 54.7536C73.8642 53.2556 75.0572 52.062 76.5899 51.8442L77.1104 51.7571L77.3767 51.3034C78.1469 49.9967 79.7104 49.3462 81.1764 49.7283L81.7112 49.8578L82.1462 49.5314C83.3553 48.625 85.0412 48.625 86.2977 49.5656L86.7211 49.8567L87.219 49.7283C88.6916 49.3484 90.2507 49.9967 91.0198 51.3034L91.3021 51.7731L91.8407 51.8498C93.3393 52.062 94.5334 53.2567 94.7485 54.774L94.8295 55.3038L95.2915 55.5756C96.5965 56.3447 97.2438 57.9061 96.8667 59.3754L96.7354 59.9091L97.0629 60.3441C97.971 61.552 97.971 63.2402 97.0629 64.4481L96.7454 64.9487L96.8667 65.4185C97.2449 66.8861 96.5976 68.4486 95.2904 69.2177L94.8196 69.5011L94.7435 70.0397C94.5312 71.5382 93.3382 72.7313 91.8055 72.9496L91.285 73.0362L91.0187 73.4905C90.2474 74.7977 88.685 75.4471 87.219 75.0656L86.6842 74.9355L86.2492 75.2619C85.0412 76.1699 83.3553 76.171 82.0977 75.2282L81.6743 74.9366L81.1764 75.0656C79.7049 75.446 78.1447 74.7966 77.3756 73.4905L77.0933 73.0207L76.5546 72.9441C75.0561 72.7313 73.862 71.5371 73.6469 70.0193L73.5659 69.49L73.1039 69.2177C71.7989 68.4486 71.1516 66.8872 71.5287 65.4185L71.66 64.8842L71.3325 64.4492C70.4244 63.2413 70.4244 61.5531 71.3937 60.2558L71.6511 59.8451L71.5298 59.3754C71.1505 57.9072 71.7989 56.3447 73.105 55.5756ZM40.1621 28.9906V35.2978H33.8549L40.1621 28.9906ZM32.2582 80.4625V37.556H42.4203V27.394H70.6483V54.7167C69.5103 55.9775 68.9623 57.7065 69.2347 59.4184C68.1144 61.2383 68.1166 63.5688 69.2347 65.3755C68.9623 67.0857 69.5103 68.8135 70.6483 70.075V80.4625H32.2582ZM72.9065 73.437C73.4336 74.0004 74.0682 74.4525 74.7761 74.7607L72.9065 80.7426V73.437ZM79.1233 90.7277L76.5662 88.1701L72.4346 89.8219L76.7151 76.1225C77.9561 77.1408 79.5952 77.616 81.2189 77.3586C81.7013 77.6557 82.2217 77.868 82.756 78.008L79.1233 90.7277ZM91.8292 88.1712L89.2721 90.7288L85.6394 78.0124C86.177 77.8735 86.6974 77.6601 87.1787 77.3608C88.7991 77.6171 90.4382 77.143 91.6792 76.1247L95.9597 89.8241L91.8292 88.1712Z" fill="#3B3D3E"/>
<path d="M84.1977 69.1714C87.3105 69.1714 89.8433 67.1458 89.8433 64.6549C89.8433 62.164 87.3105 60.1384 84.1977 60.1384C81.0849 60.1384 78.5521 62.164 78.5521 64.6549C78.5521 67.1458 81.0849 69.1714 84.1977 69.1714ZM84.1977 62.3967C86.0336 62.3967 87.5851 63.431 87.5851 64.6549C87.5851 65.8789 86.0336 66.9131 84.1977 66.9131C82.3618 66.9131 80.8104 65.8789 80.8104 64.6549C80.8104 63.431 82.3618 62.3967 84.1977 62.3967Z" fill="#3B3D3E"/>
<path d="M85.3268 56.7512C85.3268 57.3747 84.8212 57.8803 84.1977 57.8803C83.5741 57.8803 83.0685 57.3747 83.0685 56.7512C83.0685 56.1276 83.5741 55.6221 84.1977 55.6221C84.8212 55.6221 85.3268 56.1276 85.3268 56.7512Z" fill="#3B3D3E"/>
<path d="M80.4795 59.8075C80.9212 59.3659 80.9212 58.6514 80.4795 58.2108C80.0379 57.7692 79.3234 57.7692 78.8829 58.2108C78.4413 58.6525 78.4413 59.367 78.8829 59.8075C79.3234 60.2491 80.039 60.2491 80.4795 59.8075Z" fill="#3B3D3E"/>
<path d="M89.5125 59.8075C89.9541 59.3659 89.9541 58.6514 89.5125 58.2108C89.0709 57.7692 88.3564 57.7692 87.9158 58.2108C87.4742 58.6525 87.4742 59.367 87.9158 59.8075C88.3564 60.2491 89.072 60.2491 89.5125 59.8075Z" fill="#3B3D3E"/>
<path d="M34.5164 60.1386H50.3241V39.8145H34.5164V60.1386ZM36.7747 42.0727H48.0659V57.8803H36.7747V42.0727Z" fill="#3B3D3E"/>
<path d="M52.5823 29.6523H54.8406V31.9106H52.5823V29.6523Z" fill="#3B3D3E"/>
<path d="M57.0988 29.6523H68.39V31.9106H57.0988V29.6523Z" fill="#3B3D3E"/>
<path d="M52.5823 34.1687H54.8406V36.4269H52.5823V34.1687Z" fill="#3B3D3E"/>
<path d="M57.0988 34.1687H68.39V36.4269H57.0988V34.1687Z" fill="#3B3D3E"/>
<path d="M52.5823 44.3308H68.39V46.589H52.5823V44.3308Z" fill="#3B3D3E"/>
<path d="M52.5823 48.8472H68.39V51.1054H52.5823V48.8472Z" fill="#3B3D3E"/>
<path d="M52.5823 53.3638H66.1318V55.622H52.5823V53.3638Z" fill="#3B3D3E"/>
<path d="M34.5164 62.3965H50.3241V64.6547H34.5164V62.3965Z" fill="#3B3D3E"/>
<path d="M34.5164 66.9133H50.3241V69.1716H34.5164V66.9133Z" fill="#3B3D3E"/>
<path d="M34.5164 71.4297H50.3241V73.6879H34.5164V71.4297Z" fill="#3B3D3E"/>
<path d="M34.5164 75.946H50.3241V78.2043H34.5164V75.946Z" fill="#3B3D3E"/>
<path d="M52.5823 62.3965H66.1318V64.6547H52.5823V62.3965Z" fill="#3B3D3E"/>
<path d="M52.5823 66.9133H66.1318V69.1716H52.5823V66.9133Z" fill="#3B3D3E"/>
<path d="M52.5823 71.4297H68.39V73.6879H52.5823V71.4297Z" fill="#3B3D3E"/>
<path d="M52.5823 75.946H68.39V78.2043H52.5823V75.946Z" fill="#3B3D3E"/>
</g>
<defs>
<linearGradient id="paint0_linear" x1="60" y1="120" x2="60" y2="-4.32694e-06" gradientUnits="userSpaceOnUse">
<stop stop-color="#E2A03B"/>
<stop offset="1" stop-color="#EECA4D"/>
</linearGradient>
<clipPath id="clip0">
<rect width="70" height="70" fill="white" transform="translate(30 25)"/>
</clipPath>
</defs>
</svg>
