<svg width="124" height="48" viewBox="0 0 124 48" fill="none" xmlns="http://www.w3.org/2000/svg">
<g clip-path="url(#clip0)">
<path fill-rule="evenodd" clip-rule="evenodd" d="M26.5192 0.0427799C28.0549 -0.0348911 29.1931 -0.00378922 30.3398 0.154456C31.639 0.323455 32.9071 0.680786 34.105 1.21538C38.9256 3.33986 42.2521 8.43868 42.5766 15.1191C42.5397 15.1191 42.5582 15.175 42.5213 15.175C42.2822 13.7862 41.7239 12.442 41.1924 11.3221C40.9599 10.8137 40.6819 10.3277 40.3618 9.87032C38.8979 7.75405 36.3984 5.96549 34.2157 5.23574C33.8623 5.11759 29.7634 3.90082 25.4118 5.23574C23.9058 5.6978 22.2083 6.30409 20.9268 7.02257C18.2341 8.53238 15.392 10.4678 13.175 13.1648C13.4599 12.8182 11.4641 15.0856 10.3511 16.6826C8.50352 19.3335 7.13858 22.3897 6.03223 25.7842C5.62011 27.0487 5.28185 29.0073 5.1463 30.5305C5.03003 31.8399 5.08789 32.9462 5.09093 32.8199C5.09043 34.9657 5.43069 37.1913 6.03223 38.7387C7.71748 43.0742 9.82454 45.5877 15.3898 47.0028C16.7859 47.3577 18.4364 47.1287 19.9302 47.1145V47.2261C19.3461 47.3056 18.7268 47.5599 18.1583 47.6728C16.0399 48.0939 12.7807 48.145 10.9602 47.617C6.53671 46.334 3.89161 44.0055 1.9902 40.5255C1.4005 39.4463 1.10754 38.4403 0.71668 37.2311C0.408599 36.278 0.237505 35.1376 0.107606 33.9925C-0.0010854 32.949 -0.0395124 31.1408 0.0522362 29.5812C0.0360681 29.8559 0.0770974 28.4269 0.439828 26.566C0.855382 24.434 1.70609 21.6963 2.59927 19.642C5.27709 13.4831 9.38468 8.45337 14.5593 4.78903C15.949 3.80505 17.4313 2.87847 19.0442 2.1088C20.562 1.38452 22.0349 0.969193 23.6954 0.489486C24.3991 0.286179 25.8003 0.0901866 26.5192 0.0427799ZM16.7187 18.0785C17.1238 18.0674 25.1169 18.0785 29.3985 18.0785H32.4992C33.0075 18.0785 33.4894 18.0211 33.7174 18.3019C34.1169 18.8376 33.4737 19.5404 33.2744 19.8654C32.5823 20.9943 32.2862 22.1635 30.9489 22.6573C30.2124 22.9292 28.6759 22.7517 28.9555 23.7182C29.0699 23.8889 29.5546 23.9527 29.9522 23.9974C30.2003 24.0253 30.3717 24.1419 30.4505 24.2766C30.4984 25.1091 29.9786 25.641 29.62 26.2309C29.2243 26.882 28.7488 27.8391 28.2357 28.7437C27.6858 29.7133 27.2663 30.542 26.2978 30.8655C25.8624 31.0107 25.2643 31.033 24.692 31.033H13.2857C11.8867 31.033 10.8005 31.0183 9.52056 30.9772C9.19359 30.9559 8.89725 30.8275 8.85611 30.698C8.6755 30.4271 8.96685 29.7487 8.96685 29.7487L10.4065 27.3477L14.227 20.7029C14.227 20.7029 14.7935 19.6466 15.113 19.0836C15.4271 18.5299 16.3136 18.0897 16.7187 18.0785ZM24.1383 19.2512C23.8057 19.3414 23.4724 19.4535 23.197 19.642C22.6506 20.0161 21.7026 21.7527 21.6467 21.9872C21.6186 22.1087 21.6245 22.2355 21.6636 22.3538C21.7027 22.4721 21.7735 22.5771 21.8681 22.6573C22.3 22.9979 22.8397 22.6618 23.1416 22.5456C23.8605 22.2691 24.6153 20.956 24.9135 20.2004C25.0198 19.9311 24.951 19.5111 24.9135 19.4745C24.7706 19.3349 24.5714 19.2456 24.1383 19.2512ZM21.4805 23.9416C21.0846 24.0408 20.724 24.16 20.4285 24.3883C19.7561 24.9076 18.8086 26.7489 18.2691 27.7944C18.0061 28.304 17.6203 28.8211 17.6046 29.4137C17.6478 29.6156 17.7083 29.7041 17.9368 29.8046C18.4044 29.8046 18.5935 29.8197 18.9335 29.6929C19.9894 29.2993 20.8788 27.4234 21.5359 26.2309C21.8515 25.6578 22.2723 24.9784 22.3111 24.3883C22.0805 24.1055 21.9967 23.9532 21.4805 23.9416Z" fill="#EECA4D"/>
<path fill-rule="evenodd" clip-rule="evenodd" d="M41.0813 15.5091H37.15C37.1212 14.5919 36.8565 13.4859 36.5963 12.773C35.6643 10.2189 34.8566 9.02149 32.7203 7.6917C31.9682 7.2235 30.7935 6.56315 29.675 6.5191V6.40742C35.3938 6.26732 38.2771 8.7925 39.8077 11.7679C40.3473 12.8167 40.8921 14.1364 41.0813 15.5091ZM30.8931 33.6007H36.4301C36.4301 33.6007 34.8972 35.6756 34.1466 36.6316C34.2878 36.4519 32.3514 38.6844 31.17 39.7429C30.4643 40.3752 29.8399 40.9003 29.0659 41.4739C26.9252 43.0605 24.551 44.4154 21.7017 45.215C20.9037 45.4459 20.0891 45.6139 19.2654 45.7176C18.1092 45.8789 16.4477 45.7715 15.5002 45.6059C14.9687 45.5147 14.4488 45.3649 13.9498 45.1592C11.5846 44.2021 9.97051 42.8151 8.80037 40.6921C8.21522 39.6305 7.80194 38.7706 7.52686 37.5094H7.6376C7.84723 38.1784 8.37745 38.7448 8.80037 39.2403C10.5441 41.2836 14.6262 42.9764 18.5455 41.8647C21.3482 41.0698 23.6485 39.9993 25.7437 38.5145C26.5119 37.97 27.1825 37.3877 27.9031 36.7276C28.7068 35.9915 29.5542 35.2655 30.1733 34.4383C30.3948 34.1423 30.6854 33.919 30.8931 33.6007Z" fill="#E2A03B"/>
<path fill-rule="evenodd" clip-rule="evenodd" d="M36.4856 18.0776H51.8232C52.4183 18.0776 53.1674 18.0209 53.595 18.1893C53.6399 18.2712 53.6958 18.3463 53.7611 18.4127C53.7867 19.361 53.2826 19.7919 52.9306 20.367C52.2847 21.4224 51.7329 22.5192 51.1034 23.5498C50.1679 25.0811 49.3626 26.6752 48.4456 28.1844C47.9177 29.053 47.5796 30.1618 46.7291 30.6971C46.258 30.9936 45.4722 31.0195 44.625 31.0321C43.7013 31.046 42.7031 31.0321 41.9119 31.0321H33.3849C31.9088 31.0321 30.0516 31.1735 28.8445 30.8646V30.7529C28.5516 30.4175 28.864 29.8355 29.0106 29.5803C29.5966 28.5606 30.2298 27.51 30.8378 26.5092C31.4961 25.426 31.8275 24.2861 33.2187 23.9407H41.9673C43.1965 23.5974 43.5841 22.5291 44.1821 21.5396C44.5457 20.9377 45.0595 20.1585 44.9019 19.5294C44.6416 19.3546 44.5508 19.2475 44.0713 19.2502C43.9625 19.3284 43.8291 19.3005 43.6837 19.3619C43.2763 19.5341 42.7674 19.9118 42.521 20.2553C41.957 21.0415 41.7458 21.9723 40.9152 22.4889C40.3828 22.8201 39.5254 22.7681 38.645 22.7681C37.7988 22.7681 36.7167 22.7591 35.7104 22.7681C34.9485 22.7749 34.2376 22.8239 33.6617 22.7122C33.6001 22.6099 33.5256 22.5161 33.4402 22.433C33.4347 21.8988 33.721 21.3833 33.9939 20.9254C34.2576 20.4833 34.5046 20.0961 34.7137 19.7528C34.9861 19.3056 35.135 18.8229 35.5443 18.5243C35.8221 18.3218 36.0708 18.1345 36.4856 18.0776ZM56.585 18.0776H82.4983C83.1357 18.0776 83.9767 17.9353 84.1594 18.4127C84.4546 18.86 83.8693 19.5911 83.7165 19.8645C83.031 21.0896 82.3234 22.3162 81.6124 23.5498C79.6351 26.9808 77.6861 30.5006 75.6324 33.8799C74.8334 35.1944 74.1463 36.5573 73.3622 37.8444C72.9331 38.5492 72.757 39.0052 72.1995 39.5754H71.8672C70.9907 38.1824 70.1945 36.7154 69.3202 35.2758C68.9625 34.6868 68.4525 34.1256 68.2682 33.3773C68.1491 32.8929 68.411 32.4085 68.545 32.1489C68.9996 31.2695 69.4869 30.4532 69.9846 29.6362C71.4038 27.3054 73.9713 22.6564 73.9713 22.6564C73.9713 22.6564 75.1202 20.9417 75.3556 20.0878C75.5322 19.4469 75.0101 18.7897 73.6945 19.5853C72.6928 20.1908 71.3135 23.2148 71.3135 23.2148C71.3135 23.2148 69.3512 26.6566 68.3235 28.3519C67.7283 29.3338 67.4066 30.4633 66.2748 30.8646C65.5622 31.1174 62.565 30.9763 62.565 30.9763C62.565 30.9763 59.9471 31.1253 59.4643 30.9204C58.6919 30.5928 59.7694 29.0975 60.018 28.6869C61.3568 26.4752 62.5412 24.1348 63.8939 21.9305C64.1492 21.5145 64.7771 20.5093 64.8906 20.0878C64.9936 19.7053 64.8347 19.452 64.6137 19.3619C64.0921 18.978 63.369 19.5403 63.0634 19.7528C62.4565 20.1747 62.2915 20.7284 61.9006 21.3721C61.5069 22.0207 61.0501 22.7122 60.6824 23.3823C59.7489 25.0853 58.7954 26.769 57.8032 28.4077C57.3336 29.1831 57.0479 30.1465 56.3082 30.6413C55.6958 31.0508 54.8059 31.0321 53.7611 31.0321C48.5847 31.0321 48.7982 30.8646 48.7224 30.6413C48.5546 30.3841 48.7851 29.9465 48.8885 29.7478C49.3005 28.9569 49.8339 28.181 50.2728 27.4026C51.4043 25.3961 52.5202 23.3775 53.7058 21.4279C54.0974 20.784 54.4311 19.9702 54.8685 19.3061C55.0656 19.007 55.2651 18.7206 55.533 18.5243C55.8082 18.3228 56.1936 18.1272 56.585 18.0776ZM86.8172 18.0776H102.155C102.75 18.0776 103.499 18.0209 103.927 18.1893C103.971 18.2712 104.027 18.3464 104.093 18.4127C104.118 19.3521 103.612 19.796 103.262 20.367C102.617 21.4205 102.065 22.5194 101.435 23.5498C100.5 25.0802 99.6941 26.6758 98.7772 28.1844C98.2495 29.053 97.9112 30.1618 97.0607 30.6971C96.0757 31.3169 93.7601 31.0321 92.2435 31.0321H83.7165C82.2403 31.0321 79.3234 31.1159 79.1761 30.8646C78.7381 30.2432 79.8173 28.8282 80.2835 28.0727C80.8167 27.2085 81.1683 26.0047 82 25.4483C82.5592 25.0742 83.4385 25.1133 84.3809 25.1133C85.99 25.1133 88.8753 25.1321 89.2535 25.2249C89.6317 25.3177 89.686 25.7801 89.5304 26.1184C89.2989 26.4793 88.9767 27.0676 88.9767 27.0676C88.9767 27.0676 87.5885 28.881 87.98 29.6362C88.0822 29.7079 88.1941 29.7643 88.3122 29.8037C90.0946 29.7526 90.0592 29.1135 91.5237 26.6767C91.919 26.0191 92.5719 25.2995 92.5757 24.2757C92.4894 24.2209 92.429 24.0934 92.3543 24.0523C91.9838 23.8479 91.1389 24.0523 91.0254 23.6056C90.851 22.9207 92.5536 22.8272 93.0187 22.6564C94.0829 22.2655 94.1942 21.8724 94.7352 20.9812C94.9738 20.588 95.2546 20.3219 95.2889 19.697C95.1815 19.5673 95.1554 19.4601 95.012 19.3619C94.5491 19.0128 93.7285 19.4592 93.4617 19.697C92.8437 20.2471 92.3437 21.2292 91.5237 21.5396C91.2092 21.6585 90.7031 21.5955 90.3056 21.5955H87.4263C86.712 21.5955 84.835 21.7562 84.547 21.3721C84.2453 20.9812 84.6157 20.4753 84.7685 20.1995C85.083 19.6326 85.3676 18.8945 85.8759 18.5243C86.1544 18.3216 86.4545 18.1335 86.8172 18.0776ZM106.806 18.0776H111.845C112.481 18.0776 113.325 17.9349 113.506 18.4127C113.738 18.7808 113.396 19.2056 113.284 19.4178C112.944 20.0655 112.451 20.5959 112.62 21.4279C114.706 22.391 115.269 19.261 116.274 18.5243C117.094 17.9236 118.727 18.0776 120.15 18.0776C121.014 18.0776 123.761 17.8666 123.971 18.4127C124.16 18.7937 123.38 20.0627 123.196 20.367C122.6 21.3498 122.269 22.4357 121.036 22.7681H115.665C114.722 22.7681 113.78 22.7671 113.395 23.3264C113.313 23.4329 113.293 23.5118 113.34 23.6056C113.397 23.7777 113.393 23.7686 113.561 23.829C113.903 24.0858 114.953 23.9407 115.499 23.9407C116.878 23.9407 118.707 23.777 120.039 23.9407C119.91 23.9247 121.221 23.8449 120.427 25.1691C120.033 25.8258 119.655 26.5946 119.32 27.2351C118.611 28.5903 117.647 30.3409 116.828 30.8088C116.323 31.0973 115.447 31.0321 114.668 31.0321C113.076 31.0321 111.083 31.2308 109.685 30.9204C109.614 30.8048 109.57 30.792 109.519 30.6413C109.316 30.3114 109.669 29.757 109.796 29.5245C110.338 28.5353 110.986 27.5272 111.568 26.5651C111.836 26.1222 112.095 25.2267 111.291 25.1691C110.821 24.9299 110.039 25.5453 109.796 25.7833C108.656 26.8997 108.191 28.7108 107.249 30.027C106.307 31.3422 104.237 31.0321 102.044 31.0321C101.105 31.0321 99.9887 31.0855 99.2202 30.9204C99.1493 30.8048 99.105 30.792 99.0541 30.6413C98.8741 30.3684 99.1128 29.8922 99.2202 29.692C99.6332 28.9242 100.151 28.1453 100.604 27.4026C101.886 25.304 102.993 23.1127 104.259 21.0371C104.675 20.354 105.101 19.0883 105.699 18.636C106.026 18.3884 106.32 18.1744 106.806 18.0776ZM40.8045 25.1133C40.4602 25.1482 40.1638 25.2326 39.9186 25.3925C39.1552 25.8898 38.8504 26.8378 38.3682 27.626C38.1362 28.0052 37.7295 28.4735 37.593 28.9103C37.5215 29.1392 37.6185 29.4789 37.6484 29.6362C37.7295 29.6814 37.8041 29.7378 37.8699 29.8037C39.8521 29.8361 40.3487 28.1701 41.0813 26.9559C41.3208 26.5591 42.1732 25.3143 41.1367 25.1691C41.0714 25.1244 40.9329 25.1259 40.8045 25.1133Z" fill="#2A3865"/>
</g>
<defs>
<clipPath id="clip0">
<rect width="124" height="48" fill="white"/>
</clipPath>
</defs>
</svg>
