<svg width="56" height="44" viewBox="0 0 56 44" fill="none" xmlns="http://www.w3.org/2000/svg">
<path opacity="0.5" d="M44.8643 22.2164C44.1805 22.3126 43.2526 22.3607 42.0804 22.3607C38.3685 22.3607 35.5846 21.3027 33.7286 19.1869C31.775 17.1672 30.7982 14.6186 30.7982 11.541C30.7982 8.27104 31.9215 5.53005 34.1682 3.31803C36.3172 1.10601 39.2965 6.54355e-06 43.106 6.7912e-06C47.0133 7.0452e-06 50.1391 1.05793 52.4834 3.17377C54.8278 5.3858 56 8.55957 56 12.6951C56 18.2732 54.2905 23.8995 50.8717 29.5738C47.4529 35.3443 43.2526 40.153 38.2708 44L35.3404 40.9705C41.6897 34.3344 44.8643 28.0831 44.8643 22.2164ZM14.0661 22.2164C13.3823 22.3126 12.4544 22.3607 11.2822 22.3607C7.5703 22.3607 4.78638 21.3027 2.93044 19.1869C0.976814 17.1672 3.45433e-06 14.6186 3.81616e-06 11.541C4.2006e-06 8.27104 1.12334 5.53005 3.37 3.31803C5.51899 1.10601 8.49827 4.54146e-06 12.3078 4.78911e-06C16.2151 5.04311e-06 19.3409 1.05792 21.6852 3.17377C24.0296 5.38579 25.2018 8.55957 25.2018 12.6951C25.2018 18.2732 23.4923 23.8995 20.0735 29.5738C16.6547 35.3443 12.4544 40.153 7.47262 44L4.54218 40.9705C10.8915 34.3344 14.0661 28.0831 14.0661 22.2164Z" fill="#BCC3D2"/>
</svg>
