<svg width="96" height="77" viewBox="0 0 96 77" fill="none" xmlns="http://www.w3.org/2000/svg">
    <path opacity="0.1" d="M76.9102 38.8787C75.7381 39.047 74.1472 39.1312 72.1378 39.1312C65.7746 39.1312 61.0021 37.2798 57.8205 33.5771C54.4714 30.0426 52.7969 25.5825 52.7969 20.1967C52.7969 14.4743 54.7226 9.67759 58.5741 5.80655C62.258 1.93551 67.3654 5.12608e-06 73.8961 5.69701e-06C80.5942 6.28258e-06 85.9527 1.85137 89.9716 5.5541C93.9905 9.42514 95.9999 14.9792 95.9999 22.2164C95.9999 31.9782 93.0695 41.8241 87.2086 51.7541C81.3477 61.8525 74.1472 70.2678 65.6071 77L60.5835 71.6984C71.468 60.0853 76.9102 49.1454 76.9102 38.8787ZM24.1133 38.8787C22.9411 39.047 21.3503 39.1312 19.3409 39.1312C12.9777 39.1312 8.20522 37.2798 5.0236 33.577C1.67453 30.0426 -3.13434e-06 25.5825 -2.6635e-06 20.1967C-2.16323e-06 14.4743 1.92571 9.67759 5.77714 5.80655C9.46112 1.93551 14.5685 5.10422e-07 21.0992 1.08135e-06C27.7973 1.66692e-06 33.1558 1.85137 37.1747 5.55409C41.1936 9.42514 43.203 14.9792 43.203 22.2164C43.203 31.9782 40.2726 41.824 34.4117 51.7541C28.5508 61.8525 21.3503 70.2678 12.8102 77L7.78659 71.6984C18.6711 60.0852 24.1133 49.1454 24.1133 38.8787Z" fill="#3B3D3E"/>
</svg>
