<svg width="63" height="63" viewBox="0 0 63 63" fill="none" xmlns="http://www.w3.org/2000/svg">
<path d="M58.5897 28.4684L56.9583 21.9426C57.4043 21.8479 57.739 21.4522 57.739 20.9781V19.9259C57.739 17.6414 55.8804 15.7829 53.596 15.7829H46.165V13.6126C46.165 12.4885 45.2505 11.574 44.1263 11.574H6.24734C5.12318 11.574 4.20869 12.4885 4.20869 13.6126V31.4999C4.20869 32.0447 4.65031 32.4864 5.19516 32.4864C5.73989 32.4864 6.18163 32.0448 6.18163 31.4999V13.6126C6.18163 13.5763 6.21104 13.5469 6.24734 13.5469H44.1262C44.1625 13.5469 44.1919 13.5763 44.1919 13.6126V31.5002C44.1919 32.0449 44.6335 32.4867 45.1784 32.4867C45.7231 32.4867 46.1648 32.045 46.1648 31.5002V30.3819H57.8013C57.8022 30.3819 57.803 30.3822 57.8038 30.3822C57.8048 30.3822 57.8057 30.3821 57.8066 30.3821C59.2385 30.383 60.4543 31.3229 60.8719 32.6179H57.8046C57.2599 32.6179 56.8181 33.0596 56.8181 33.6044V35.7088C56.8181 37.4131 58.2046 38.7996 59.9089 38.7996H61.0269V43.1398H58.4476C57.6003 40.6933 55.2746 38.931 52.5436 38.931C49.8126 38.931 47.4867 40.6933 46.6396 43.1398H46.1646V35.7086C46.1646 35.1639 45.723 34.7222 45.1781 34.7222C44.6334 34.7222 44.1917 35.1638 44.1917 35.7086V43.1396H23.7255C22.8782 40.693 20.5525 38.9307 17.8215 38.9307C15.0905 38.9307 12.7646 40.693 11.9175 43.1396H6.24734C6.21104 43.1396 6.18163 43.1102 6.18163 43.0739V40.9037H10.4562C11.0009 40.9037 11.4426 40.4621 11.4426 39.9172C11.4426 39.3724 11.001 38.9307 10.4562 38.9307H0.986467C0.441738 38.9307 0 39.3724 0 39.9172C0 40.4621 0.441615 40.9037 0.986467 40.9037H4.20882V43.0739C4.20882 44.198 5.1233 45.1125 6.24746 45.1125H11.5759C11.5756 45.1344 11.5742 45.1562 11.5742 45.1782C11.5742 48.623 14.3768 51.4255 17.8215 51.4255C21.2662 51.4255 24.0688 48.623 24.0688 45.1782C24.0688 45.1561 24.0674 45.1344 24.0671 45.1125H46.298C46.2977 45.1344 46.2963 45.1562 46.2963 45.1782C46.2963 48.623 49.0989 51.4255 52.5436 51.4255C55.9883 51.4255 58.7909 48.623 58.7909 45.1782C58.7909 45.1561 58.7895 45.1344 58.7892 45.1125H62.0134C62.5581 45.1125 62.9999 44.6709 62.9999 44.126V33.6042C63 31.0064 61.0833 28.848 58.5897 28.4684ZM46.165 17.7557H53.596C54.7926 17.7557 55.7662 18.7293 55.7662 19.9259V19.9916H46.165V17.7557ZM46.165 28.4091V21.9644H54.9302L56.5414 28.4091H46.165ZM17.8215 49.453C15.4645 49.453 13.547 47.5355 13.547 45.1785C13.547 42.8214 15.4645 40.9039 17.8215 40.9039C20.1785 40.9039 22.096 42.8214 22.096 45.1785C22.096 47.5355 20.1785 49.453 17.8215 49.453ZM52.5438 49.453C50.1869 49.453 48.2693 47.5355 48.2693 45.1785C48.2693 42.8214 50.1869 40.9039 52.5438 40.9039C54.9008 40.9039 56.8184 42.8214 56.8184 45.1785C56.8184 47.5355 54.9008 49.453 52.5438 49.453ZM61.0272 36.8266H59.9092C59.2927 36.8266 58.7912 36.3251 58.7912 35.7086V34.5906H61.0271V36.8266H61.0272Z" fill="black"/>
<path d="M17.8215 43.1399C16.6973 43.1399 15.7828 44.0544 15.7828 45.1785C15.7828 46.3027 16.6973 47.2172 17.8215 47.2172C18.9456 47.2172 19.8601 46.3027 19.8601 45.1785C19.8601 44.0544 18.9456 43.1399 17.8215 43.1399Z" fill="black"/>
<path d="M52.5438 43.1399C51.4197 43.1399 50.5052 44.0544 50.5052 45.1785C50.5052 46.3027 51.4197 47.2172 52.5438 47.2172C53.668 47.2172 54.5825 46.3027 54.5825 45.1785C54.5825 44.0544 53.668 43.1399 52.5438 43.1399Z" fill="black"/>
<path d="M40.9697 38.9312H26.239C25.6943 38.9312 25.2525 39.3728 25.2525 39.9176C25.2525 40.4625 25.6941 40.9041 26.239 40.9041H40.9697C41.5144 40.9041 41.9562 40.4625 41.9562 39.9176C41.9562 39.3728 41.5145 38.9312 40.9697 38.9312Z" fill="black"/>
<path d="M15.7171 34.7224H3.09081C2.54608 34.7224 2.10434 35.164 2.10434 35.7089C2.10434 36.2537 2.54595 36.6953 3.09081 36.6953H15.7171C16.2619 36.6953 16.7036 36.2537 16.7036 35.7089C16.7036 35.164 16.2619 34.7224 15.7171 34.7224Z" fill="black"/>
<path d="M34.3019 21.3325C33.9168 20.9474 33.2921 20.9474 32.9069 21.3327L24.1347 30.1048L19.5712 25.5414C19.186 25.1561 18.5614 25.1561 18.1762 25.5414C17.791 25.9266 17.791 26.5511 18.1762 26.9363L23.4372 32.1973C23.6298 32.39 23.8823 32.4862 24.1347 32.4862C24.387 32.4862 24.6397 32.39 24.8321 32.1973L34.3018 22.7276C34.687 22.3423 34.687 21.7178 34.3019 21.3325Z" fill="black"/>
</svg>
