<svg width="20" height="13" viewBox="0 0 20 13" fill="none" xmlns="http://www.w3.org/2000/svg">
<path fill-rule="evenodd" clip-rule="evenodd" d="M19.7769 5.72099C18.7453 4.00824 17.3015 2.58089 15.577 1.569C13.8984 0.543549 11.9695 0.000976562 10.0024 0.000976562C8.03542 0.000976562 6.10649 0.543549 4.42792 1.569C2.70313 2.58052 1.25924 4.00795 0.227966 5.72099C0.0821871 5.95449 0.00488281 6.22423 0.00488281 6.4995C0.00488281 6.77476 0.0821871 7.0445 0.227966 7.278C1.25897 8.99125 2.70293 10.4187 4.42792 11.43C6.10707 12.4538 8.03577 12.9955 10.0024 12.9955C11.9691 12.9955 13.8978 12.4538 15.577 11.43C17.3042 10.4195 18.7487 8.98976 19.7769 7.27299C19.9217 7.04006 19.9985 6.77126 19.9985 6.49699C19.9985 6.22273 19.9217 5.95393 19.7769 5.72099ZM7.60596 2.63499C7.91392 2.31084 8.28549 2.05381 8.69745 1.88C9.10941 1.7062 9.55285 1.61939 9.99994 1.625C10.0706 1.62394 10.1407 1.63742 10.2059 1.6646C10.2711 1.69178 10.33 1.73208 10.379 1.783C10.4791 1.88556 10.5351 2.02319 10.5351 2.1665C10.5351 2.30982 10.4791 2.44745 10.379 2.55C10.3302 2.60117 10.2713 2.64162 10.2061 2.66882C10.1408 2.69602 10.0706 2.70936 9.99994 2.70799C9.69372 2.70372 9.38991 2.76271 9.10754 2.88127C8.82517 2.99983 8.57033 3.17541 8.35895 3.397C8.13898 3.61278 7.96515 3.87101 7.84808 4.15604C7.73101 4.44106 7.67312 4.7469 7.67792 5.05499C7.67922 5.12622 7.6661 5.19698 7.63928 5.26299C7.61247 5.32899 7.57252 5.38886 7.52191 5.439C7.47219 5.48903 7.41309 5.52875 7.34796 5.55585C7.28283 5.58295 7.213 5.59689 7.14246 5.59689C7.07191 5.59689 7.00202 5.58295 6.93689 5.55585C6.87176 5.52875 6.81266 5.48903 6.76294 5.439C6.71233 5.38886 6.67244 5.32899 6.64563 5.26299C6.61882 5.19698 6.60563 5.12622 6.60693 5.05499C6.60067 4.60496 6.68599 4.15836 6.85773 3.74234C7.02947 3.32632 7.28406 2.94956 7.60596 2.63499ZM14.8489 10.183C13.3901 11.0797 11.7113 11.5544 9.99896 11.5544C8.28661 11.5544 6.60774 11.0797 5.14893 10.183C3.64351 9.25496 2.37037 7.99481 1.42694 6.49899C2.4619 4.81431 3.93085 3.43896 5.67993 2.517C5.22925 3.28654 4.99405 4.1632 4.99896 5.05499C4.98893 5.71854 5.11373 6.37721 5.36591 6.99106C5.61808 7.6049 5.99234 8.16114 6.46594 8.62601C6.92644 9.09591 7.47608 9.4692 8.08264 9.72404C8.68921 9.97889 9.34049 10.1102 9.99841 10.1102C10.6563 10.1102 11.3077 9.97889 11.9142 9.72404C12.5208 9.4692 13.0704 9.09591 13.5309 8.62601C14.0053 8.16159 14.3801 7.6055 14.6327 6.99158C14.8852 6.37766 15.0102 5.71875 14.9999 5.05499C15.0049 4.1632 14.7696 3.28654 14.3189 2.517C16.0677 3.43898 17.5364 4.81435 18.5709 6.49899C17.628 7.99526 16.3548 9.25552 14.8489 10.183Z" fill="#88929B"/>
</svg>
