<svg width="30" height="30" viewBox="0 0 30 30" fill="none" xmlns="http://www.w3.org/2000/svg">
<path fill-rule="evenodd" clip-rule="evenodd" d="M15 29.9998C6.72414 29.9998 0 23.2524 0 15.0517C0 6.74716 6.72414 -0.000244141 15 -0.000244141C23.2759 -0.000244141 30 6.74716 30 15.0517C29.8966 23.2524 23.1724 29.9998 15 29.9998ZM16.1379 22.5257V15.6745H18.4138L18.8276 12.9755H16.2414V11.3146C16.2414 10.588 16.4483 9.96515 17.5862 9.96515H19.0345V7.57761C18.8276 7.57761 17.8966 7.4738 16.9655 7.4738C14.8966 7.4738 13.5517 8.71948 13.5517 11.0032V12.9755H11.2759V15.6745H13.4483V22.5257H16.1379Z" fill="#828282"/>
</svg>
