<svg width="24" height="24" viewBox="0 0 24 24" fill="none" xmlns="http://www.w3.org/2000/svg">
<path d="M21.8906 9.89062H2.10938C0.946219 9.89062 0 10.8368 0 12V16.2188C0 17.3819 0.946219 18.3281 2.10938 18.3281H4.96875V17.625C4.96875 16.4618 5.91497 15.5156 7.07812 15.5156H16.9219C18.085 15.5156 19.0312 16.4618 19.0312 17.625V18.3281H21.8906C23.0538 18.3281 24 17.3819 24 16.2188V12C24 10.8368 23.0538 9.89062 21.8906 9.89062ZM14.8125 13.4062C14.4242 13.4062 14.1094 13.0914 14.1094 12.7031C14.1094 12.3147 14.4242 12 14.8125 12C15.2008 12 15.5156 12.3147 15.5156 12.7031C15.5156 13.0914 15.2008 13.4062 14.8125 13.4062ZM17.625 13.4062C17.2367 13.4062 16.9219 13.0914 16.9219 12.7031C16.9219 12.3147 17.2367 12 17.625 12C18.0133 12 18.3281 12.3147 18.3281 12.7031C18.3281 13.0914 18.0133 13.4062 17.625 13.4062Z" fill="#E2A03B"/>
<path d="M15.5156 1.52417V4.26552H18.257C17.9767 2.89006 16.8911 1.80448 15.5156 1.52417Z" fill="#E2A03B"/>
<path d="M6.375 1.45312C5.98636 1.45312 5.67188 1.76761 5.67188 2.15625V8.48438H18.3281V5.67188H14.8125C14.4239 5.67188 14.1094 5.35739 14.1094 4.96875V1.45312H6.375Z" fill="#E2A03B"/>
<path d="M16.9219 22.5469C17.3105 22.5469 17.625 22.2324 17.625 21.8438V17.625C17.625 17.2364 17.3105 16.9219 16.9219 16.9219H7.07812C6.68948 16.9219 6.375 17.2364 6.375 17.625V21.8438C6.375 22.2324 6.68948 22.5469 7.07812 22.5469H16.9219ZM9.1875 19.0312H14.8125C15.2011 19.0312 15.5156 19.3457 15.5156 19.7344C15.5156 20.123 15.2011 20.4375 14.8125 20.4375H9.1875C8.79886 20.4375 8.48438 20.123 8.48438 19.7344C8.48438 19.3457 8.79886 19.0312 9.1875 19.0312Z" fill="#E2A03B"/>
</svg>
