<svg width="30" height="30" viewBox="0 0 30 30" fill="none" xmlns="http://www.w3.org/2000/svg">
<circle cx="15" cy="15" r="15" fill="#CF3B9D"/>
<circle cx="15" cy="15" r="15" fill="url(#paint0_linear)"/>
<path fill-rule="evenodd" clip-rule="evenodd" d="M11.7742 7H15.129C17.3226 7 17.5806 7 18.3548 7.128C19.129 7.128 19.7742 7.256 20.2903 7.512C20.8064 7.64 21.1935 7.896 21.7097 8.408C22.0968 8.792 22.3548 9.304 22.6129 9.816C22.871 10.328 23 10.84 23 11.736V15.064V18.392C23 19.16 22.871 19.8 22.6129 20.312C22.4839 20.824 22.2258 21.208 21.7097 21.72C21.3226 22.104 20.8064 22.36 20.2903 22.616C19.7742 22.872 19.2581 23 18.3548 23H15H11.6452C10.871 23 10.2258 22.872 9.70968 22.616C9.19355 22.488 8.80645 22.232 8.29032 21.72C7.90322 21.336 7.64516 20.824 7.3871 20.312C7.12903 19.8 7 19.288 7 18.392V15.064V11.736C7 10.968 7.12903 10.328 7.3871 9.816C7.51613 9.304 7.77419 8.92 8.29032 8.408C8.67742 7.896 9.19355 7.64 9.83871 7.384C10.3548 7.128 10.871 7 11.7742 7ZM10.871 15.192C10.871 12.888 12.8065 10.968 15.129 10.968C17.4516 10.968 19.3871 12.888 19.3871 15.192C19.3871 17.496 17.4516 19.416 15.129 19.416C12.8065 19.288 10.871 17.496 10.871 15.192ZM15 17.88C13.4516 17.88 12.2903 16.728 12.2903 15.192C12.2903 13.656 13.5806 12.376 15 12.504C16.5484 12.504 17.7097 13.656 17.7097 15.192C17.7097 16.728 16.5484 17.88 15 17.88ZM20.5484 10.712C20.5484 11.352 20.0323 11.736 19.5161 11.736C18.871 11.736 18.4839 11.352 18.4839 10.712C18.4839 10.072 18.871 9.688 19.5161 9.688C20.1613 9.688 20.5484 10.2 20.5484 10.712Z" fill="white"/>
<defs>
<linearGradient id="paint0_linear" x1="7.5" y1="28" x2="22" y2="2" gradientUnits="userSpaceOnUse">
<stop stop-color="#FFDA55"/>
<stop offset="0.364583" stop-color="#F24D57"/>
<stop offset="0.703125" stop-color="#C837AB"/>
<stop offset="1" stop-color="#3E6BC9"/>
</linearGradient>
</defs>
</svg>
