<svg width="20" height="20" viewBox="0 0 20 20" fill="none" xmlns="http://www.w3.org/2000/svg">
<g clip-path="url(#clip0)">
<path d="M9.29463 11.1265C9.46095 11.2982 9.73928 11.4072 10.0366 11.4068C10.3336 11.4091 10.6127 11.2963 10.7709 11.1335L18.1066 3.74813C18.5974 3.25423 18.4307 2.85376 17.7341 2.85376H2.3915C1.69529 2.85376 1.52741 3.2554 2.01624 3.75079L9.29463 11.1265Z" fill="#E2A03B"/>
<path d="M0.88157 15.077L5.87467 9.97179L0.885793 4.91587C0.396574 4.42041 0 4.58323 0 5.2795V14.7179C0 15.4138 0.394624 15.5747 0.88157 15.077Z" fill="#E2A03B"/>
<path d="M2.38321 17.1465H17.6137C18.31 17.1465 18.4802 16.7425 17.9937 16.2447L13.0262 11.1582L11.9183 12.2755C11.3988 12.7954 10.7079 13.0272 10.0334 13.0284C9.36119 13.0276 8.66537 12.7946 8.13931 12.2674L7.01313 11.1257L2.0045 16.2456C1.51756 16.7429 1.687 17.1465 2.38321 17.1465Z" fill="#E2A03B"/>
<path d="M20.0012 14.7161V5.4029C20.0012 4.70669 19.6035 4.5427 19.1127 5.03654L14.1738 10.0079L19.1208 15.0747C19.6069 15.5729 20.0012 15.4124 20.0012 14.7161Z" fill="#E2A03B"/>
</g>
<defs>
<clipPath id="clip0">
<rect width="20" height="20" fill="white"/>
</clipPath>
</defs>
</svg>
