<svg width="20" height="20" viewBox="0 0 20 20" fill="none" xmlns="http://www.w3.org/2000/svg">
<g clip-path="url(#clip0)">
<path d="M9.29463 11.1265C9.46095 11.2982 9.73928 11.4071 10.0366 11.4067C10.3336 11.4091 10.6127 11.2962 10.7709 11.1334L18.1066 3.74807C18.5974 3.25417 18.4307 2.8537 17.7341 2.8537H2.3915C1.69529 2.8537 1.52741 3.25534 2.01624 3.75073L9.29463 11.1265Z" fill="#E2A03B"/>
<path d="M0.88157 15.0769L5.87467 9.97173L0.885793 4.91581C0.396574 4.42035 0 4.58317 0 5.27944V14.7179C0 15.4138 0.394624 15.5746 0.88157 15.0769Z" fill="#E2A03B"/>
<path d="M2.38321 17.1463H17.6137C18.31 17.1463 18.4802 16.7424 17.9937 16.2446L13.0262 11.158L11.9183 12.2753C11.3988 12.7952 10.7079 13.027 10.0334 13.0282C9.36119 13.0274 8.66537 12.7944 8.13931 12.2672L7.01313 11.1255L2.0045 16.2454C1.51756 16.7427 1.687 17.1463 2.38321 17.1463Z" fill="#E2A03B"/>
<path d="M20.0012 14.716V5.40278C20.0012 4.70657 19.6035 4.54258 19.1127 5.03642L14.1738 10.0078L19.1208 15.0746C19.6069 15.5728 20.0012 15.4123 20.0012 14.716Z" fill="#E2A03B"/>
</g>
<defs>
<clipPath id="clip0">
<rect width="20" height="20" fill="white"/>
</clipPath>
</defs>
</svg>
