<svg width="23" height="26" viewBox="0 0 23 26" fill="none" xmlns="http://www.w3.org/2000/svg">
<mask id="path-1-outside-1" maskUnits="userSpaceOnUse" x="0" y="0" width="23" height="26" fill="black">
<rect fill="white" width="23" height="26"/>
<path fill-rule="evenodd" clip-rule="evenodd" d="M4 11.2953C4 7.27268 7.36448 4 11.5 4C15.6355 4 18.9999 7.27268 19 11.2953C19 16.3626 13.6942 20.4645 12.3166 21.5294C12.1449 21.6622 12.0342 21.7478 12.0025 21.7821C11.7346 22.0724 11.2659 22.0729 10.9975 21.7821C10.9656 21.7476 10.8537 21.662 10.6801 21.5292C9.29751 20.4717 4 16.4198 4 11.2953ZM11.5 14.5311C13.1569 14.5311 14.5 13.1891 14.5 11.5336C14.5 9.87807 13.1569 8.53601 11.5 8.53601C9.84315 8.53601 8.5 9.87807 8.5 11.5336C8.5 13.1891 9.84315 14.5311 11.5 14.5311Z"/>
</mask>
<path fill-rule="evenodd" clip-rule="evenodd" d="M4 11.2953C4 7.27268 7.36448 4 11.5 4C15.6355 4 18.9999 7.27268 19 11.2953C19 16.3626 13.6942 20.4645 12.3166 21.5294C12.1449 21.6622 12.0342 21.7478 12.0025 21.7821C11.7346 22.0724 11.2659 22.0729 10.9975 21.7821C10.9656 21.7476 10.8537 21.662 10.6801 21.5292C9.29751 20.4717 4 16.4198 4 11.2953ZM11.5 14.5311C13.1569 14.5311 14.5 13.1891 14.5 11.5336C14.5 9.87807 13.1569 8.53601 11.5 8.53601C9.84315 8.53601 8.5 9.87807 8.5 11.5336C8.5 13.1891 9.84315 14.5311 11.5 14.5311Z" fill="url(#paint0_linear)"/>
<path d="M19 11.2953H23V11.2952L19 11.2953ZM12.3166 21.5294L9.87016 18.3648L9.87015 18.3648L12.3166 21.5294ZM12.0025 21.7821L9.06333 19.0689L9.06313 19.0691L12.0025 21.7821ZM10.9975 21.7821L13.9368 19.069L13.9366 19.0689L10.9975 21.7821ZM10.6801 21.5292L13.1102 18.352L13.1102 18.352L10.6801 21.5292ZM11.5 0C5.26038 0 0 4.95994 0 11.2953H8C8 9.58542 9.46857 8 11.5 8V0ZM23 11.2952C22.9999 4.95998 17.7396 0 11.5 0V8C13.5313 8 15 9.58538 15 11.2954L23 11.2952ZM14.7631 24.694C15.4776 24.1416 17.4467 22.6276 19.2433 20.4794C20.9861 18.3955 23 15.2044 23 11.2953H15C15 12.4536 14.361 13.8471 13.1065 15.3471C11.9058 16.7829 10.5332 17.8522 9.87016 18.3648L14.7631 24.694ZM14.9416 24.4953C14.8891 24.5522 14.8437 24.5979 14.8109 24.6301C14.7773 24.6631 14.7483 24.6902 14.7265 24.7103C14.6843 24.7492 14.6513 24.7776 14.6349 24.7916C14.6034 24.8184 14.5863 24.8317 14.5986 24.8219C14.6074 24.8149 14.6244 24.8015 14.6547 24.778C14.6845 24.7548 14.719 24.7281 14.7631 24.694L9.87015 18.3648C9.79357 18.424 9.69626 18.4991 9.61547 18.5634C9.57461 18.596 9.51315 18.6454 9.44668 18.702C9.41155 18.732 9.24382 18.8734 9.06333 19.0689L14.9416 24.4953ZM8.05825 24.4952C9.91233 26.5038 13.0918 26.4994 14.9418 24.4951L9.06313 19.0691C10.3773 17.6453 12.6195 17.6419 13.9368 19.069L8.05825 24.4952ZM8.24996 24.7063C8.29459 24.7405 8.32934 24.767 8.35939 24.7902C8.38989 24.8136 8.40672 24.8268 8.41525 24.8335C8.42729 24.843 8.40906 24.8289 8.37614 24.8011C8.35892 24.7865 8.32465 24.7572 8.28084 24.7171C8.25822 24.6964 8.22828 24.6684 8.19345 24.6344C8.15949 24.6012 8.1126 24.554 8.05841 24.4953L13.9366 19.0689C13.7507 18.8675 13.5775 18.7226 13.5416 18.6923C13.4734 18.6345 13.4103 18.5843 13.3687 18.5515C13.2864 18.4866 13.1874 18.411 13.1102 18.352L8.24996 24.7063ZM0 11.2953C0 15.2252 2.00346 18.4166 3.75639 20.5073C5.55729 22.6552 7.53207 24.1572 8.24998 24.7063L13.1102 18.352C12.4455 17.8436 11.0803 16.7909 9.88676 15.3674C8.6453 13.8867 8 12.4899 8 11.2953H0ZM10.5 11.5336C10.5 10.9769 10.9508 10.5311 11.5 10.5311V18.5311C15.3629 18.5311 18.5 15.4013 18.5 11.5336H10.5ZM11.5 12.536C10.9508 12.536 10.5 12.0903 10.5 11.5336H18.5C18.5 7.66586 15.3629 4.53601 11.5 4.53601V12.536ZM12.5 11.5336C12.5 12.0903 12.0492 12.536 11.5 12.536V4.53601C7.63707 4.53601 4.5 7.66586 4.5 11.5336H12.5ZM11.5 10.5311C12.0492 10.5311 12.5 10.9769 12.5 11.5336H4.5C4.5 15.4013 7.63707 18.5311 11.5 18.5311V10.5311Z" fill="white" mask="url(#path-1-outside-1)"/>
<defs>
<linearGradient id="paint0_linear" x1="11.5" y1="22" x2="11.5" y2="4" gradientUnits="userSpaceOnUse">
<stop stop-color="#E2A03B"/>
<stop offset="1" stop-color="#EECA4D"/>
</linearGradient>
</defs>
</svg>
