<svg width="18" height="22" viewBox="0 0 18 22" fill="none" xmlns="http://www.w3.org/2000/svg">
<path fill-rule="evenodd" clip-rule="evenodd" d="M0 8.91651C0 3.99994 4.03737 0 9 0C13.9626 0 17.9999 3.99994 18 8.91651C18 14.3949 11.5073 20.0631 9.93264 21.4378C9.75349 21.5942 9.638 21.695 9.60297 21.7337C9.28146 22.0885 8.71912 22.0891 8.39703 21.7337C8.362 21.695 8.24651 21.5942 8.06736 21.4378C6.49271 20.0631 0 14.3949 0 8.91651ZM8.99971 12.7499C11.0708 12.7499 12.7497 11.071 12.7497 8.99993C12.7497 6.92886 11.0708 5.24993 8.99971 5.24993C6.92864 5.24993 5.24971 6.92886 5.24971 8.99993C5.24971 11.071 6.92864 12.7499 8.99971 12.7499Z" fill="#A6D224"/>
</svg>
