<svg width="66" height="78" viewBox="0 0 66 78" fill="none" xmlns="http://www.w3.org/2000/svg">
<mask id="path-1-outside-1" maskUnits="userSpaceOnUse" x="0" y="0" width="66" height="78" fill="black">
<rect fill="white" width="66" height="78"/>
<path fill-rule="evenodd" clip-rule="evenodd" d="M4 32.3707C4 16.7271 17.0093 4 33 4C48.9905 4 61.9997 16.7271 62 32.3707C62 49.8018 41.079 67.8372 36.0052 72.2112C35.4279 72.7088 35.0558 73.0296 34.9429 73.1526C33.9069 74.2815 32.0949 74.2835 31.0571 73.1526C30.9442 73.0296 30.5721 72.7088 29.9948 72.2112C24.921 67.8372 4 49.8018 4 32.3707ZM32.9993 44.5682C39.6728 44.5682 45.0826 39.2262 45.0826 32.6364C45.0826 26.0466 39.6728 20.7046 32.9993 20.7046C26.3259 20.7046 20.916 26.0466 20.916 32.6364C20.916 39.2262 26.3259 44.5682 32.9993 44.5682Z"/>
</mask>
<path fill-rule="evenodd" clip-rule="evenodd" d="M4 32.3707C4 16.7271 17.0093 4 33 4C48.9905 4 61.9997 16.7271 62 32.3707C62 49.8018 41.079 67.8372 36.0052 72.2112C35.4279 72.7088 35.0558 73.0296 34.9429 73.1526C33.9069 74.2815 32.0949 74.2835 31.0571 73.1526C30.9442 73.0296 30.5721 72.7088 29.9948 72.2112C24.921 67.8372 4 49.8018 4 32.3707ZM32.9993 44.5682C39.6728 44.5682 45.0826 39.2262 45.0826 32.6364C45.0826 26.0466 39.6728 20.7046 32.9993 20.7046C26.3259 20.7046 20.916 26.0466 20.916 32.6364C20.916 39.2262 26.3259 44.5682 32.9993 44.5682Z" fill="url(#paint0_linear)"/>
<path d="M62 32.3707H66V32.3706L62 32.3707ZM36.0052 72.2112L33.3934 69.1816L36.0052 72.2112ZM34.9429 73.1526L31.996 70.4478L31.9958 70.448L34.9429 73.1526ZM31.0571 73.1526L34.0041 70.448L34.004 70.4478L31.0571 73.1526ZM29.9948 72.2112L27.3831 75.2408L27.3831 75.2408L29.9948 72.2112ZM33 0C14.8833 0 0 14.4357 0 32.3707H8C8 19.0185 19.1353 8 33 8V0ZM66 32.3706C65.9996 14.4357 51.1166 0 33 0V8C46.8645 8 57.9997 19.0185 58 32.3708L66 32.3706ZM38.6169 75.2408C41.1725 73.0378 47.9066 67.2386 54.0126 59.7062C59.9994 52.3209 66 42.5308 66 32.3707H58C58 39.6417 53.5401 47.5849 47.798 54.6685C42.175 61.6051 35.9117 67.0106 33.3934 69.1816L38.6169 75.2408ZM37.8898 75.8574C37.834 75.9182 37.7939 75.9571 37.7871 75.9638C37.7761 75.9745 37.7747 75.9755 37.7875 75.9637C37.8139 75.9393 37.8625 75.8956 37.9424 75.8253C38.1028 75.6841 38.322 75.4951 38.6169 75.2408L33.3934 69.1816C32.9736 69.5435 32.3164 70.0987 31.996 70.4478L37.8898 75.8574ZM28.1101 75.8573C30.7348 78.7172 35.2707 78.7113 37.89 75.8572L31.9958 70.448C32.5431 69.8516 33.455 69.8497 34.0041 70.448L28.1101 75.8573ZM27.3831 75.2408C27.678 75.4951 27.8972 75.6841 28.0577 75.8253C28.1375 75.8956 28.1861 75.9393 28.2125 75.9637C28.2253 75.9755 28.2239 75.9745 28.213 75.9638C28.2061 75.9571 28.166 75.9182 28.1102 75.8574L34.004 70.4478C33.6835 70.0987 33.0264 69.5435 32.6066 69.1815L27.3831 75.2408ZM0 32.3707C0 42.5308 6.00062 52.3208 11.9874 59.7062C18.0934 67.2386 24.8275 73.0378 27.3831 75.2408L32.6066 69.1816C30.0883 67.0106 23.825 61.6051 18.202 54.6685C12.4599 47.5849 8 39.6417 8 32.3707H0ZM41.0826 32.6364C41.0826 36.9696 37.5113 40.5682 32.9993 40.5682V48.5682C41.8342 48.5682 49.0826 41.4827 49.0826 32.6364H41.0826ZM32.9993 24.7046C37.5113 24.7046 41.0826 28.3032 41.0826 32.6364H49.0826C49.0826 23.7901 41.8342 16.7046 32.9993 16.7046V24.7046ZM24.916 32.6364C24.916 28.3032 28.4873 24.7046 32.9993 24.7046V16.7046C24.1645 16.7046 16.916 23.7901 16.916 32.6364H24.916ZM32.9993 40.5682C28.4873 40.5682 24.916 36.9696 24.916 32.6364H16.916C16.916 41.4827 24.1645 48.5682 32.9993 48.5682V40.5682Z" fill="white" mask="url(#path-1-outside-1)"/>
<defs>
<linearGradient id="paint0_linear" x1="33" y1="74" x2="33" y2="4" gradientUnits="userSpaceOnUse">
<stop stop-color="#E2A03B"/>
<stop offset="1" stop-color="#EECA4D"/>
</linearGradient>
</defs>
</svg>
