<svg width="151" height="30" viewBox="0 0 151 30" fill="white" xmlns="http://www.w3.org/2000/svg">
<path fill-rule="evenodd" clip-rule="evenodd" d="M2.75618 9.00126C6.63275 8.83159 15.3949 9.20334 23.7544 10.0048C34.4524 11.0304 40.7993 15.8153 42.6338 17.2003C45.4144 19.2997 44.1718 23.619 40.7886 24.4704C38.2528 25.1086 36.5653 23.4069 35.9074 22.7434C35.8952 22.731 35.8833 22.7191 35.8717 22.7075C35.4838 22.3169 35.4838 21.6838 35.8717 21.2932C36.2597 20.9027 36.8887 20.9027 37.2766 21.2932C37.97 21.9913 38.9162 22.8801 40.3067 22.5301C42.3769 22.0092 42.6346 19.7009 41.4417 18.8003L41.4363 18.7962C39.7095 17.4925 33.7184 12.9691 23.5661 11.9958C16.5795 11.326 9.36367 10.9636 5.01202 10.9608C6.18822 12.37 7.26063 13.8994 8.30336 15.3865L8.32943 15.4236C9.82966 17.5631 11.2713 19.6146 12.9388 21.2932C16.2461 24.6226 20.4697 26.0003 22.6669 26.0003C23.2155 26.0003 23.6603 26.448 23.6603 27.0003C23.6603 27.5526 23.2155 28.0003 22.6669 28.0003C19.8972 28.0003 15.1804 26.3781 11.534 22.7075C9.73535 20.8968 8.20432 18.7134 6.73241 16.6142L6.70632 16.577C5.20609 14.4375 3.76445 12.3861 2.09691 10.7074L0.500122 9.1L2.75618 9.00126Z" fill="white"/>
<path fill-rule="evenodd" clip-rule="evenodd" d="M147.897 9.04032C144.02 8.87065 135.258 9.2424 126.899 10.0439C116.201 11.0695 109.854 15.8543 108.019 17.2393C105.239 19.3387 106.481 23.6581 109.864 24.5095C112.4 25.1477 114.088 23.4459 114.746 22.7825C114.758 22.7701 114.77 22.7581 114.781 22.7465C115.169 22.356 115.169 21.7228 114.781 21.3323C114.393 20.9418 113.764 20.9418 113.376 21.3323C112.683 22.0304 111.737 22.9192 110.346 22.5692C108.276 22.0482 108.018 19.74 109.211 18.8393L109.217 18.8352C110.943 17.5315 116.935 13.0082 127.087 12.0348C134.073 11.365 141.289 11.0027 145.641 10.9999C144.465 12.409 143.392 13.9384 142.35 15.4255L142.324 15.4627C140.823 17.6022 139.382 19.6536 137.714 21.3323C134.407 24.6616 130.183 26.0393 127.986 26.0393C127.437 26.0393 126.993 26.4871 126.993 27.0393C126.993 27.5916 127.437 28.0393 127.986 28.0393C130.756 28.0393 135.473 26.4172 139.119 22.7465C140.918 20.9359 142.449 18.7524 143.921 16.6533L143.947 16.6161C145.447 14.4766 146.889 12.4251 148.556 10.7465L150.153 9.13906L147.897 9.04032Z" fill="white"/>
<path d="M54.8333 21.2815C54.8333 22.9073 55.548 24.3177 56.9767 25.3508C58.4313 26.4025 60.6851 27.0996 63.7737 27.0997C66.2031 27.0997 69.5754 26.2705 73.518 24.9548C77.4344 23.648 81.7981 21.9023 86.1813 20.1423L86.5151 20.0082C90.7735 18.2982 95.0399 16.5849 98.8601 15.2897C102.751 13.9707 106.306 13.0391 108.972 13.0391C111.876 13.0392 114.464 13.8116 116.35 15.2434C118.253 16.689 119.403 18.7832 119.403 21.2815C119.403 23.2371 118.677 24.7468 117.577 25.8745C116.498 26.9797 115.097 27.6828 113.771 28.1361C112.438 28.5915 111.119 28.8153 110.143 28.9265C109.652 28.9823 109.242 29.0104 108.952 29.0246C108.807 29.0317 108.691 29.0353 108.61 29.0371C108.025 29.0505 107.482 28.6901 107.482 28.0694C107.482 27.4726 107.999 27.1112 108.564 27.0983C108.629 27.0968 108.726 27.0938 108.853 27.0876C109.106 27.0753 109.472 27.0503 109.913 27.0001C110.799 26.8992 111.964 26.6987 113.114 26.3056C114.271 25.9104 115.354 25.3408 116.138 24.537C116.9 23.7556 117.416 22.7198 117.416 21.2815C117.416 19.4163 116.579 17.8742 115.13 16.7743C113.663 15.6607 111.532 14.9786 108.972 14.9785C106.672 14.9785 103.397 15.8045 99.5119 17.1218C95.7453 18.3987 91.5238 20.094 87.2432 21.813L86.9371 21.9359C82.5661 23.691 78.1447 25.4605 74.1607 26.79C70.2028 28.1107 66.5594 29.0391 63.7736 29.0391C60.4054 29.039 57.6922 28.2816 55.7942 26.9092C53.8702 25.518 52.8465 23.5345 52.8465 21.2815C52.8465 19.0718 53.7097 17.0887 55.575 15.618C57.4049 14.1753 60.1133 13.2919 63.7029 13.0416C64.2501 13.0034 64.7254 13.4055 64.7645 13.9397C64.8036 14.4739 64.3917 14.9379 63.8444 14.976C60.4804 15.2106 58.2219 16.0241 56.8233 17.1268C55.4601 18.2016 54.8333 19.6123 54.8333 21.2815Z" fill="white"/>
<path d="M95.1834 21.2424C95.1834 22.8683 94.4686 24.2787 93.0399 25.3117C91.5853 26.3635 89.3316 27.0606 86.2429 27.0606C83.8135 27.0606 80.4412 26.2314 76.4986 24.9158C72.5822 23.6089 68.2185 21.8633 63.8353 20.1032L63.5015 19.9692C59.2431 18.2591 54.9767 16.5458 51.1565 15.2507C47.2657 13.9316 43.7109 13 41.0443 13C38.1407 13.0001 35.5529 13.7726 33.6671 15.2044C31.7631 16.6499 30.6139 18.7441 30.6139 21.2424C30.6139 23.1981 31.3398 24.7077 32.4401 25.8354C33.5183 26.9406 34.9192 27.6437 36.2459 28.097C37.5789 28.5525 38.8978 28.7762 39.8737 28.8874C40.3642 28.9433 40.7744 28.9714 41.0645 28.9855C41.2097 28.9926 41.3253 28.9962 41.4062 28.9981C41.9917 29.0114 42.5344 28.6511 42.5344 28.0303C42.5344 27.4335 42.0178 27.0721 41.4526 27.0592C41.388 27.0577 41.2902 27.0547 41.1638 27.0486C40.9106 27.0362 40.5447 27.0113 40.104 26.9611C39.2173 26.8601 38.0527 26.6596 36.9023 26.2665C35.7456 25.8714 34.663 25.3018 33.8787 24.4979C33.1164 23.7165 32.6006 22.6807 32.6006 21.2424C32.6006 19.3772 33.4381 17.8352 34.8868 16.7352C36.3536 15.6216 38.4843 14.9395 41.0443 14.9394C43.3446 14.9394 46.6193 15.7655 50.5047 17.0827C54.2713 18.3597 58.4928 20.0549 62.7734 21.7739L63.0795 21.8968C67.4505 23.6519 71.8719 25.4214 75.856 26.7509C79.8138 28.0716 83.4572 29 86.243 29C89.6113 28.9999 92.3244 28.2425 94.2225 26.8701C96.1464 25.479 97.1701 23.4955 97.1701 21.2424C97.1701 19.0328 96.3069 17.0496 94.4416 15.579C92.6117 14.1362 89.9033 13.2528 86.3137 13.0025C85.7665 12.9643 85.2912 13.3665 85.2521 13.9006C85.213 14.4348 85.6249 14.8988 86.1722 14.937C89.5362 15.1715 91.7948 15.9851 93.1933 17.0877C94.5565 18.1625 95.1834 19.5733 95.1834 21.2424Z" fill="white"/>
<path fill-rule="evenodd" clip-rule="evenodd" d="M75.3198 1.08984L83.0052 14.1337L75.316 22.4414L67.0964 14.1399L75.3198 1.08984ZM69.6282 13.8601L75.316 19.5625L80.5406 13.8664L75.3198 4.91016L69.6282 13.8601Z" fill="white"/>
</svg>
