<svg width="72" height="14" viewBox="0 0 72 14" fill="none" xmlns="http://www.w3.org/2000/svg">
<path fill-rule="evenodd" clip-rule="evenodd" d="M1.08291 4.20046C2.94366 4.12128 7.14949 4.29476 11.1621 4.66877C16.2971 5.14741 19.3436 7.38032 20.2241 8.02667C21.5589 9.00638 20.9624 11.0221 19.3385 11.4194C18.1213 11.7172 17.3113 10.9231 16.9955 10.6135C16.9896 10.6077 16.9839 10.6021 16.9784 10.5967C16.7922 10.4144 16.7922 10.119 16.9784 9.93672C17.1646 9.75447 17.4665 9.75447 17.6527 9.93672C17.9856 10.2625 18.4397 10.6772 19.1072 10.5139C20.1009 10.2708 20.2245 9.19363 19.652 8.77334L19.6493 8.77142C18.8205 8.16303 15.9448 6.05212 11.0717 5.5979C7.71811 5.28532 4.2545 5.11622 2.16571 5.11491C2.73029 5.77253 3.24504 6.48625 3.74556 7.18022L3.75807 7.19757C4.47818 8.196 5.17017 9.15334 5.97059 9.93672C7.55808 11.4904 9.58538 12.1333 10.64 12.1333C10.9034 12.1333 11.1169 12.3423 11.1169 12.6C11.1169 12.8577 10.9034 13.0667 10.64 13.0667C9.3106 13.0667 7.04652 12.3097 5.29626 10.5967C4.43291 9.75172 3.69801 8.73277 2.9915 7.75317L2.97897 7.7358C2.25887 6.73737 1.56688 5.78003 0.766459 4.99667L0 4.24654L1.08291 4.20046Z" fill="white"/>
<path fill-rule="evenodd" clip-rule="evenodd" d="M70.7505 4.21901C68.8897 4.13983 64.6839 4.31332 60.6713 4.68733C55.5363 5.16596 52.4898 7.39888 51.6092 8.04523C50.2745 9.02494 50.871 11.0406 52.4949 11.438C53.7121 11.7358 54.5221 10.9416 54.8379 10.632C54.8438 10.6262 54.8495 10.6207 54.855 10.6152C55.0412 10.433 55.0412 10.1375 54.855 9.95527C54.6688 9.77303 54.3669 9.77303 54.1807 9.95527C53.8478 10.281 53.3936 10.6958 52.7262 10.5325C51.7325 10.2894 51.6088 9.21218 52.1814 8.79189L52.184 8.78997C53.0129 8.18158 55.8886 6.07068 60.7617 5.61646C64.1153 5.30387 67.5789 5.13478 69.6677 5.13346C69.1031 5.79108 68.5883 6.5048 68.0878 7.19877L68.0753 7.21612C67.3552 8.21456 66.6632 9.1719 65.8628 9.95527C64.2753 11.509 62.248 12.1519 61.1933 12.1519C60.93 12.1519 60.7165 12.3608 60.7165 12.6186C60.7165 12.8763 60.93 13.0852 61.1933 13.0852C62.5228 13.0852 64.7869 12.3282 66.5371 10.6152C67.4005 9.77027 68.1354 8.75132 68.8419 7.77173L68.8544 7.75436C69.5745 6.75593 70.2665 5.79859 71.0669 5.01522L71.8334 4.26509L70.7505 4.21901Z" fill="white"/>
<path d="M26.08 9.93157C26.08 10.6903 26.4231 11.3485 27.1088 11.8306C27.8071 12.3214 28.8889 12.6467 30.3714 12.6467C31.5375 12.6467 33.1562 12.2598 35.0487 11.6458C36.9285 11.0359 39.0231 10.2213 41.127 9.39993L41.2873 9.33738C43.3313 8.53934 45.3792 7.7398 47.2129 7.13541C49.0805 6.51983 50.7868 6.08511 52.0667 6.08511C53.4605 6.08515 54.7026 6.44563 55.6078 7.11381C56.5217 7.78838 57.0733 8.76568 57.0733 9.93157C57.0733 10.8442 56.7249 11.5487 56.1968 12.0749C55.6792 12.5907 55.0068 12.9188 54.3699 13.1304C53.7301 13.3429 53.0971 13.4473 52.6286 13.4992C52.3932 13.5253 52.1963 13.5384 52.057 13.545C51.9873 13.5483 51.9319 13.55 51.893 13.5509C51.612 13.5571 51.3515 13.3889 51.3515 13.0992C51.3515 12.8207 51.5994 12.6521 51.8707 12.6461C51.9017 12.6454 51.9487 12.644 52.0094 12.6411C52.1309 12.6353 52.3065 12.6237 52.5181 12.6003C52.9437 12.5531 53.5027 12.4596 54.0549 12.2761C54.6101 12.0917 55.1297 11.8259 55.5062 11.4508C55.8721 11.0861 56.1197 10.6028 56.1197 9.93157C56.1197 9.06113 55.7177 8.3415 55.0223 7.82821C54.3183 7.30851 53.2955 6.99019 52.0667 6.99016C50.9626 6.99016 49.3907 7.37564 47.5257 7.99036C45.7178 8.58628 43.6914 9.3774 41.6368 10.1796L41.4898 10.2369C39.3918 11.056 37.2695 11.8818 35.3571 12.5022C33.4574 13.1185 31.7085 13.5518 30.3714 13.5518C28.7546 13.5517 27.4523 13.1983 26.5412 12.5578C25.6177 11.9086 25.1263 10.983 25.1263 9.93157C25.1263 8.90038 25.5407 7.97491 26.436 7.28861C27.3144 6.61532 28.6144 6.20307 30.3374 6.08626C30.6001 6.06845 30.8282 6.25611 30.847 6.50539C30.8657 6.75468 30.668 6.9712 30.4053 6.98901C28.7906 7.09848 27.7065 7.47813 27.0352 7.99269C26.3809 8.49426 26.08 9.15262 26.08 9.93157Z" fill="white"/>
<path d="M45.448 9.91301C45.448 10.6717 45.1049 11.3299 44.4191 11.812C43.7209 12.3028 42.6391 12.6281 41.1566 12.6282C39.9904 12.6282 38.3717 12.2412 36.4793 11.6272C34.5994 11.0174 32.5048 10.2027 30.4009 9.38138L30.2407 9.31882C28.1966 8.52078 26.1488 7.72125 24.3151 7.11685C22.4475 6.50128 20.7412 6.06656 19.4612 6.06656C18.0675 6.06659 16.8254 6.42707 15.9201 7.09525C15.0063 7.76983 14.4546 8.74712 14.4546 9.91301C14.4546 10.8256 14.8031 11.5301 15.3312 12.0564C15.8488 12.5721 16.5212 12.9003 17.158 13.1118C17.7978 13.3244 18.4309 13.4288 18.8993 13.4807C19.1348 13.5067 19.3317 13.5198 19.4709 13.5264C19.5406 13.5298 19.5961 13.5314 19.635 13.5323C19.916 13.5385 20.1764 13.3704 20.1765 13.0807C20.1765 12.8022 19.9285 12.6335 19.6572 12.6275C19.6262 12.6268 19.5792 12.6254 19.5186 12.6225C19.3971 12.6168 19.2214 12.6051 19.0099 12.5817C18.5843 12.5346 18.0253 12.441 17.4731 12.2576C16.9179 12.0732 16.3982 11.8074 16.0218 11.4322C15.6558 11.0676 15.4083 10.5842 15.4083 9.91301C15.4083 9.04258 15.8103 8.32294 16.5056 7.80965C17.2097 7.28996 18.2324 6.97164 19.4612 6.9716C20.5654 6.9716 22.1372 7.35708 24.0022 7.97181C25.8102 8.56772 27.8365 9.35884 29.8912 10.161L30.0381 10.2184C32.1362 11.0374 34.2585 11.8632 36.1708 12.4836C38.0706 13.1 39.8194 13.5332 41.1566 13.5332C42.7734 13.5332 44.0757 13.1797 44.9867 12.5393C45.9103 11.89 46.4016 10.9644 46.4016 9.91301C46.4016 8.88183 45.9873 7.95636 45.0919 7.27006C44.2136 6.59676 42.9136 6.18451 41.1906 6.06771C40.9279 6.0499 40.6997 6.23755 40.681 6.48684C40.6622 6.73612 40.8599 6.95265 41.1226 6.97045C42.7373 7.07992 43.8214 7.45957 44.4927 7.97414C45.1471 8.4757 45.448 9.13406 45.448 9.91301Z" fill="white"/>
<path fill-rule="evenodd" clip-rule="evenodd" d="M35.9134 0.508789L39.6024 6.59591L35.9116 10.4729L31.9662 6.59882L35.9134 0.508789ZM33.1814 6.46826L35.9116 9.12936L38.4194 6.47116L35.9134 2.2916L33.1814 6.46826Z" fill="white"/>
</svg>
