<svg width="20" height="20" viewBox="0 0 20 20" fill="none" xmlns="http://www.w3.org/2000/svg">
<path d="M19.6407 16.7077C19.2257 17.7875 17.2893 18.8673 16.3211 19.0023C15.4912 19.1373 14.3847 19.1373 13.2782 18.8673C12.5866 18.5974 11.6184 18.3274 10.5119 17.7875C5.53258 15.7629 2.35135 10.9038 2.07472 10.4989C1.79809 10.229 0 7.93442 0 5.50489C0 3.07536 1.24483 1.99557 1.65977 1.45568C2.07471 0.915783 2.62797 0.915784 3.04291 0.915784C3.31954 0.915784 3.73448 0.915784 4.01111 0.915784C4.28774 0.915784 4.70269 0.78081 5.11763 1.72563C5.53258 2.67044 6.50077 5.09997 6.63909 5.23495C6.7774 5.5049 6.7774 5.77484 6.63909 6.04479C6.50077 6.31474 6.36246 6.58468 6.08583 6.85463C5.8092 7.12458 5.53257 7.5295 5.39426 7.66448C5.11763 7.93442 4.841 8.20437 5.11763 8.60929C5.39426 9.14919 6.36246 10.6339 7.88392 11.9836C9.82032 13.6033 11.3418 14.1432 11.895 14.4132C12.4483 14.6831 12.7249 14.5481 13.0016 14.2782C13.2782 14.0082 14.2464 12.9285 14.523 12.3886C14.7996 11.8487 15.2146 11.9836 15.6295 12.1186C16.0445 12.2536 18.5341 13.4684 18.9491 13.7383C19.5023 14.0082 19.779 14.1432 19.9173 14.2782C20.0556 14.6831 20.0556 15.6279 19.6407 16.7077Z" fill="#E2A03B"/>
</svg>
