<svg width="18" height="18" viewBox="0 0 18 18" fill="none" xmlns="http://www.w3.org/2000/svg">
<circle cx="9" cy="9" r="9" fill="url(#paint0_linear)"/>
<path d="M12.7404 12.8492C12.4534 13.2721 11.4876 13.5458 11.0429 13.5088C10.66 13.4854 10.1664 13.3768 9.69822 13.1524C9.41519 12.9686 9.00875 12.7578 8.5661 12.4174C6.53592 11.0597 5.57548 8.66131 5.4903 8.46031C5.39238 8.31727 4.80686 7.15567 5.03622 6.11248C5.26559 5.0693 5.92285 4.72776 6.15893 4.53664C6.39501 4.34552 6.64182 4.39978 6.82693 4.44048C6.95033 4.46762 7.13544 4.50832 7.25885 4.53545C7.38225 4.56258 7.58011 4.54533 7.67602 4.99171C7.77193 5.43809 7.97449 6.57624 8.02345 6.64777C8.05967 6.77724 8.03418 6.89315 7.947 6.99549C7.85981 7.09784 7.77262 7.20018 7.62373 7.28896C7.47484 7.37773 7.31321 7.52446 7.23876 7.56885C7.08987 7.65763 6.94098 7.7464 7.02616 7.9474C7.0986 8.20635 7.39035 8.93882 7.94166 9.6676C8.6526 10.553 9.28036 10.934 9.50169 11.1042C9.72301 11.2744 9.85916 11.2436 10.0081 11.1548C10.1569 11.066 10.6908 10.6973 10.8652 10.4927C11.0396 10.288 11.2119 10.3866 11.3843 10.4853C11.5567 10.5839 12.5526 11.3497 12.7123 11.5063C12.9336 11.6765 13.0442 11.7616 13.0932 11.8331C13.1167 12.0205 13.0275 12.4262 12.7404 12.8492Z" fill="white"/>
<defs>
<linearGradient id="paint0_linear" x1="9" y1="18" x2="9" y2="-6.49041e-07" gradientUnits="userSpaceOnUse">
<stop stop-color="#E2A03B"/>
<stop offset="1" stop-color="#EECA4D"/>
</linearGradient>
</defs>
</svg>
