<svg width="20" height="20" viewBox="0 0 20 20" fill="none" xmlns="http://www.w3.org/2000/svg">
<path d="M19.6407 16.7078C19.2257 17.7876 17.2893 18.8674 16.3211 19.0023C15.4912 19.1373 14.3847 19.1373 13.2782 18.8674C12.5866 18.5974 11.6184 18.3275 10.5119 17.7876C5.53258 15.763 2.35135 10.9039 2.07472 10.499C1.79809 10.229 0 7.93448 0 5.50495C0 3.07543 1.24483 1.99563 1.65977 1.45574C2.07471 0.915844 2.62797 0.915845 3.04291 0.915845C3.31954 0.915845 3.73448 0.915845 4.01111 0.915845C4.28774 0.915845 4.70269 0.780871 5.11763 1.72569C5.53258 2.6705 6.50077 5.10004 6.63909 5.23501C6.7774 5.50496 6.7774 5.7749 6.63909 6.04485C6.50077 6.3148 6.36246 6.58474 6.08583 6.85469C5.8092 7.12464 5.53257 7.52956 5.39426 7.66454C5.11763 7.93448 4.841 8.20443 5.11763 8.60935C5.39426 9.14925 6.36246 10.634 7.88392 11.9837C9.82032 13.6034 11.3418 14.1433 11.895 14.4132C12.4483 14.6832 12.7249 14.5482 13.0016 14.2783C13.2782 14.0083 14.2464 12.9285 14.523 12.3886C14.7996 11.8487 15.2146 11.9837 15.6295 12.1187C16.0445 12.2536 18.5341 13.4684 18.9491 13.7384C19.5023 14.0083 19.779 14.1433 19.9173 14.2783C20.0556 14.6832 20.0556 15.628 19.6407 16.7078Z" fill="#A6D224"/>
</svg>
