<svg width="60" height="60" viewBox="0 0 60 60" fill="none" xmlns="http://www.w3.org/2000/svg">
<g clip-path="url(#clip0)">
<path d="M29.5313 0C24.3126 0.00108815 19.1873 1.38483 14.6771 4.01039C10.167 6.63596 6.43293 10.4096 3.8551 14.9472C1.27727 19.4848 -0.0523191 24.6244 0.00165561 29.8429C0.0556303 35.0613 1.49124 40.1723 4.16238 44.6557C4.02789 44.8187 3.94949 45.0206 3.93878 45.2317C3.92808 45.4427 3.98564 45.6516 4.10294 45.8273L5.21775 47.4995L0.477984 50.3434C0.307597 50.4456 0.172131 50.597 0.0893969 50.7776C0.00666231 50.9583 -0.0194677 51.1597 0.0144424 51.3555C0.0483525 51.5513 0.140715 51.7322 0.279387 51.8745C0.418058 52.0168 0.596546 52.1138 0.791384 52.1528L4.8774 52.97L4.60387 58.0248C4.5942 58.2033 4.63332 58.3811 4.71702 58.539C4.80072 58.697 4.92585 58.8291 5.07897 58.9214C5.2321 59.0136 5.40745 59.0623 5.5862 59.0625C5.76495 59.0626 5.94036 59.014 6.0936 58.922L13.6118 54.4062C18.365 57.4464 23.8894 59.062 29.5318 59.062C35.1741 59.062 40.6985 57.4464 45.4517 54.4062L52.9699 58.922C53.1231 59.014 53.2986 59.0626 53.4773 59.0625C53.6561 59.0623 53.8314 59.0136 53.9845 58.9214C54.1377 58.8291 54.2628 58.697 54.3465 58.539C54.4302 58.3811 54.4693 58.2033 54.4596 58.0248L54.1861 52.97L58.2721 52.1528C58.467 52.1138 58.6454 52.0168 58.7841 51.8745C58.9228 51.7322 59.0152 51.5513 59.0491 51.3555C59.083 51.1597 59.0568 50.9583 58.9741 50.7776C58.8914 50.597 58.7559 50.4456 58.5855 50.3434L53.8454 47.4995L54.9602 45.8273C55.0775 45.6515 55.1351 45.4426 55.1243 45.2314C55.1136 45.0203 55.0351 44.8183 54.9005 44.6553C57.5725 40.1721 59.0089 35.061 59.0632 29.8422C59.1176 24.6234 57.7881 19.4834 55.2101 14.9455C52.6321 10.4076 48.8976 6.63393 44.3869 4.00862C39.8762 1.38331 34.7504 0.000165323 29.5313 0ZM9.15094 44.3433C15.5113 41.2904 22.4762 39.7054 29.5313 39.7054C36.5864 39.7054 43.5514 41.2904 49.9117 44.3433L52.6926 45.6783L49.8523 49.9388C43.4711 47.035 36.5418 45.5326 29.5311 45.5326C22.5203 45.5326 15.591 47.035 9.20988 49.9388L6.36971 45.6783L9.15094 44.3433ZM29.5313 37.7366C23.9705 37.7444 18.4509 38.6914 13.2055 40.5375C11.0049 37.2897 9.83351 33.4544 9.84382 29.5312C9.84382 18.6754 18.6755 9.84375 29.5313 9.84375C40.3871 9.84375 49.2188 18.6754 49.2188 29.5312C49.2282 33.4543 48.0566 37.2893 45.8566 40.5373C40.6113 38.6913 35.0919 37.7444 29.5313 37.7366ZM36.3444 48.0035C31.9467 49.6238 27.1155 49.6238 22.7178 48.0035C27.2354 47.3338 31.8269 47.3338 36.3444 48.0035ZM6.66995 56.2793L6.88922 52.2252C6.90204 51.9888 6.82925 51.7557 6.68419 51.5686C6.53913 51.3815 6.33151 51.253 6.09938 51.2066L3.67425 50.7216L6.31114 49.1395L8.04045 51.7336C8.17173 51.9305 8.36954 52.0735 8.59766 52.1364C8.82578 52.1993 9.06894 52.178 9.2826 52.0763C9.94148 51.7625 10.6081 51.4646 11.2825 51.1826L12.3899 52.8437L6.66995 56.2793ZM14.6773 52.7515C14.6555 52.7024 14.6298 52.6551 14.6003 52.6102L13.1562 50.4445C15.167 49.7015 17.2258 49.0953 19.3184 48.6302C22.4608 50.3092 25.9686 51.1876 29.5313 51.1876C33.0941 51.1876 36.6019 50.3092 39.7442 48.6302C41.8369 49.095 43.8957 49.701 45.9065 50.4439L44.4624 52.6096C44.433 52.6544 44.4072 52.7017 44.3855 52.7508C39.9501 55.5863 34.7958 57.0931 29.5315 57.0931C24.2672 57.0931 19.1129 55.5863 14.6775 52.7508L14.6773 52.7515ZM55.3884 50.7213L52.9633 51.2062C52.7311 51.2526 52.5235 51.3812 52.3784 51.5682C52.2334 51.7553 52.1606 51.9884 52.1734 52.2248L52.3927 56.2789L46.6729 52.8437L47.7803 51.1826C48.454 51.4653 49.1206 51.7631 49.7802 52.0763C49.9939 52.1782 50.2372 52.1996 50.4654 52.1367C50.6937 52.0737 50.8916 51.9306 51.0229 51.7336L52.7522 49.1395L55.3884 50.7213ZM53.1653 43.7209L50.7637 42.5681C49.7745 42.0933 48.7692 41.6526 47.7475 41.2459C50.0024 37.7556 51.1972 33.6866 51.1876 29.5312C51.1876 17.5899 41.4727 7.875 29.5313 7.875C17.59 7.875 7.87507 17.5899 7.87507 29.5312C7.86426 33.6868 9.05885 37.7563 11.3141 41.2467C10.294 41.6535 9.28908 42.094 8.29946 42.5684L5.89845 43.7209C3.3886 39.5385 2.03361 34.7649 1.97183 29.8876C1.91005 25.0103 3.14368 20.2039 5.54677 15.9593C7.94986 11.7146 11.4363 8.18372 15.6502 5.72706C19.8641 3.27039 24.6544 1.97598 29.5321 1.97598C34.4098 1.97598 39.2002 3.27039 43.414 5.72706C47.6279 8.18372 51.1144 11.7146 53.5175 15.9593C55.9206 20.2039 57.1542 25.0103 57.0924 29.8876C57.0306 34.7649 55.6756 39.5385 53.1658 43.7209H53.1653Z" fill="black"/>
<path d="M38.8829 21.6562H33.4688C33.2078 21.656 32.9576 21.5522 32.7731 21.3676C32.5885 21.1831 32.4847 20.9329 32.4845 20.6719V17.7188C32.4835 16.9358 32.1721 16.1852 31.6185 15.6316C31.0649 15.078 30.3143 14.7665 29.5313 14.7656H27.5626C27.3015 14.7656 27.0511 14.8693 26.8665 15.0539C26.6819 15.2385 26.5782 15.4889 26.5782 15.75V17.9197C26.5802 18.6633 26.4348 19.3999 26.1502 20.0869C25.8656 20.7739 25.4476 21.3976 24.9203 21.9219L24.2017 22.6406H18.7032C18.4421 22.6406 18.1917 22.7443 18.0071 22.9289C17.8225 23.1135 17.7188 23.3639 17.7188 23.625V34.4531C17.7188 34.7142 17.8225 34.9646 18.0071 35.1492C18.1917 35.3338 18.4421 35.4375 18.7032 35.4375H35.9298C36.3284 35.4376 36.7211 35.3409 37.074 35.1556C37.427 34.9704 37.7297 34.7021 37.956 34.374C38.1824 34.0459 38.3257 33.6677 38.3735 33.272C38.4214 32.8762 38.3724 32.4748 38.2307 32.1022C38.7102 31.799 39.0701 31.3393 39.2495 30.8011C39.4289 30.263 39.4167 29.6793 39.2151 29.1491C39.6946 28.8458 40.0545 28.3862 40.2338 27.848C40.4132 27.3098 40.4011 26.7262 40.1995 26.1959C40.6497 25.9107 40.9952 25.4869 41.1839 24.9884C41.3726 24.4899 41.3943 23.9436 41.2458 23.4317C41.0974 22.9198 40.7867 22.4699 40.3606 22.1497C39.9345 21.8296 39.4159 21.6564 38.8829 21.6562ZM19.6876 24.6094H23.6251V33.4688H19.6876V24.6094ZM38.8829 24.6094H37.8985C37.6374 24.6094 37.3871 24.7131 37.2025 24.8977C37.0178 25.0823 36.9141 25.3327 36.9141 25.5938C36.9141 25.8548 37.0178 26.1052 37.2025 26.2898C37.3871 26.4744 37.6374 26.5781 37.8985 26.5781C38.029 26.5781 38.1542 26.63 38.2465 26.7223C38.3388 26.8146 38.3907 26.9398 38.3907 27.0703C38.3907 27.2008 38.3388 27.326 38.2465 27.4183C38.1542 27.5106 38.029 27.5625 37.8985 27.5625H36.9141C36.6531 27.5625 36.4027 27.6662 36.2181 27.8508C36.0335 28.0354 35.9298 28.2858 35.9298 28.5469C35.9298 28.8079 36.0335 29.0583 36.2181 29.2429C36.4027 29.4275 36.6531 29.5312 36.9141 29.5312C37.0447 29.5312 37.1699 29.5831 37.2622 29.6754C37.3545 29.7677 37.4063 29.8929 37.4063 30.0234C37.4063 30.154 37.3545 30.2792 37.2622 30.3715C37.1699 30.4638 37.0447 30.5156 36.9141 30.5156H35.9298C35.6687 30.5156 35.4183 30.6193 35.2337 30.8039C35.0491 30.9885 34.9454 31.2389 34.9454 31.5C34.9454 31.7611 35.0491 32.0115 35.2337 32.1961C35.4183 32.3807 35.6687 32.4844 35.9298 32.4844C36.0603 32.4844 36.1855 32.5362 36.2778 32.6285C36.3701 32.7208 36.4219 32.846 36.4219 32.9766C36.4219 33.1071 36.3701 33.2323 36.2778 33.3246C36.1855 33.4169 36.0603 33.4688 35.9298 33.4688H25.5938V24.0327L26.3125 23.3142C27.0231 22.6074 27.5865 21.7667 27.97 20.8407C28.3536 19.9148 28.5497 18.9219 28.547 17.9197V16.7344H29.5313C29.7923 16.7347 30.0425 16.8385 30.2271 17.023C30.4116 17.2076 30.5154 17.4578 30.5157 17.7188V20.6719C30.5166 21.4548 30.828 22.2054 31.3817 22.759C31.9353 23.3127 32.6859 23.6241 33.4688 23.625H38.8829C39.0134 23.625 39.1386 23.6769 39.2309 23.7692C39.3232 23.8615 39.3751 23.9867 39.3751 24.1172C39.3751 24.2477 39.3232 24.3729 39.2309 24.4652C39.1386 24.5575 39.0134 24.6094 38.8829 24.6094Z" fill="black"/>
<path d="M27.49 42.3527L28.4005 43.0143L28.0527 44.0848C28.0285 44.159 28.0285 44.2388 28.0526 44.313C28.0766 44.3872 28.1236 44.4518 28.1867 44.4977C28.2498 44.5435 28.3257 44.5682 28.4037 44.5682C28.4817 44.5682 28.5577 44.5435 28.6208 44.4976L29.5313 43.836L30.4419 44.4976C30.5049 44.5435 30.5809 44.5682 30.6589 44.5682C30.7369 44.5682 30.8129 44.5435 30.876 44.4977C30.9391 44.4518 30.986 44.3872 31.0101 44.313C31.0341 44.2388 31.0341 44.159 31.01 44.0848L30.6621 43.0143L31.5727 42.3527C31.6357 42.3068 31.6827 42.2422 31.7068 42.1681C31.7308 42.094 31.7308 42.0141 31.7068 41.94C31.6827 41.8658 31.6357 41.8012 31.5727 41.7554C31.5096 41.7096 31.4337 41.6849 31.3557 41.6849H30.2302L29.8824 40.6144C29.8583 40.5403 29.8113 40.4757 29.7483 40.4299C29.6852 40.384 29.6093 40.3594 29.5313 40.3594C29.4534 40.3594 29.3774 40.384 29.3144 40.4299C29.2513 40.4757 29.2044 40.5403 29.1803 40.6144L28.8324 41.6849H27.7069C27.629 41.6849 27.553 41.7096 27.49 41.7554C27.4269 41.8012 27.38 41.8658 27.3559 41.94C27.3318 42.0141 27.3318 42.094 27.3559 42.1681C27.38 42.2422 27.4269 42.3068 27.49 42.3527Z" fill="black"/>
<path d="M21.8091 43.0643L22.7197 43.7259L22.3718 44.7964C22.3477 44.8706 22.3477 44.9505 22.3717 45.0246C22.3958 45.0988 22.4428 45.1635 22.5058 45.2093C22.5689 45.2551 22.6449 45.2798 22.7229 45.2798C22.8009 45.2798 22.8769 45.2551 22.9399 45.2092L23.8505 44.5476L24.761 45.2092C24.8241 45.2551 24.9001 45.2798 24.9781 45.2798C25.0561 45.2798 25.132 45.2551 25.1951 45.2093C25.2582 45.1635 25.3052 45.0988 25.3292 45.0246C25.3533 44.9505 25.3533 44.8706 25.3291 44.7964L24.9813 43.7259L25.8918 43.0643C25.9549 43.0185 26.0018 42.9539 26.0259 42.8797C26.05 42.8056 26.05 42.7257 26.0259 42.6516C26.0018 42.5775 25.9549 42.5128 25.8919 42.467C25.8288 42.4212 25.7529 42.3965 25.6749 42.3965H24.5493L24.2015 41.326C24.1775 41.2518 24.1305 41.1872 24.0675 41.1413C24.0044 41.0955 23.9284 41.0708 23.8504 41.0708C23.7724 41.0708 23.6965 41.0955 23.6334 41.1413C23.5703 41.1872 23.5234 41.2518 23.4993 41.326L23.1516 42.3965H22.0261C21.9481 42.3965 21.8722 42.4212 21.8091 42.467C21.7461 42.5128 21.6991 42.5775 21.675 42.6516C21.651 42.7257 21.651 42.8056 21.6751 42.8797C21.6991 42.9539 21.7461 43.0185 21.8091 43.0643Z" fill="black"/>
<path d="M33.1707 43.0643L34.0812 43.7259L33.7334 44.7964C33.7092 44.8706 33.7092 44.9505 33.7333 45.0246C33.7573 45.0988 33.8043 45.1635 33.8674 45.2093C33.9305 45.2551 34.0064 45.2798 34.0844 45.2798C34.1624 45.2798 34.2384 45.2551 34.3015 45.2092L35.212 44.5476L36.1226 45.2092C36.1856 45.2551 36.2616 45.2798 36.3396 45.2798C36.4176 45.2798 36.4936 45.2551 36.5567 45.2093C36.6197 45.1635 36.6667 45.0988 36.6908 45.0246C36.7148 44.9505 36.7148 44.8706 36.6907 44.7964L36.3428 43.7259L37.2534 43.0643C37.3164 43.0185 37.3634 42.9538 37.3875 42.8797C37.4115 42.8055 37.4115 42.7257 37.3874 42.6515C37.3633 42.5774 37.3164 42.5128 37.2533 42.467C37.1902 42.4212 37.1143 42.3965 37.0363 42.3965H35.9108L35.5631 41.326C35.539 41.2518 35.4921 41.1872 35.429 41.1413C35.3659 41.0955 35.2899 41.0708 35.212 41.0708C35.134 41.0708 35.058 41.0955 34.9949 41.1413C34.9318 41.1872 34.8849 41.2518 34.8608 41.326L34.5131 42.3965H33.3876C33.3096 42.3965 33.2337 42.4212 33.1706 42.467C33.1076 42.5128 33.0607 42.5775 33.0366 42.6516C33.0125 42.7257 33.0125 42.8056 33.0366 42.8797C33.0607 42.9539 33.1076 43.0185 33.1707 43.0643Z" fill="black"/>
</g>
<defs>
<clipPath id="clip0">
<rect width="59.0648" height="59.0625" fill="white"/>
</clipPath>
</defs>
</svg>
