<svg width="63" height="63" viewBox="0 0 63 63" fill="none" xmlns="http://www.w3.org/2000/svg">
<g clip-path="url(#clip0)">
<path d="M58.8164 13.1011H56.3531L56.3555 8.6974C56.3569 5.74091 53.9532 3.33428 50.9962 3.33284L32.3008 3.32227C32.2998 3.32227 32.2993 3.32227 32.2984 3.32227C31.2342 3.32227 30.2335 3.73659 29.4808 4.48929L1.57029 32.3998C0.557556 33.4125 0 34.7588 0 36.1912C0 37.6235 0.557556 38.9698 1.57029 39.9825L19.6832 58.0954C20.7286 59.1408 22.1018 59.6633 23.4746 59.6633C24.8478 59.6633 26.221 59.1408 27.2664 58.0954L44.8391 40.5228C45.3197 40.0421 45.3197 39.263 44.8391 38.7828C44.3584 38.3022 43.5793 38.3022 43.0986 38.7828L25.526 56.3555C24.395 57.4864 22.5546 57.4864 21.4236 56.3555L3.31073 38.2426C2.76279 37.6946 2.46094 36.966 2.46094 36.1912C2.46094 35.4164 2.76279 34.6877 3.31073 34.1397L31.2207 6.22973C31.5087 5.94182 31.8913 5.7832 32.2984 5.7832H32.2993L50.9948 5.79378C52.5944 5.79426 53.8955 7.09682 53.8945 8.69643L53.8888 19.0074H48.3464C47.8691 19.0074 47.437 18.8122 47.1245 18.4979C47.6393 18.2773 48.1219 17.9586 48.5415 17.539C50.3098 15.7702 50.3098 12.893 48.5415 11.1247C46.7727 9.35589 43.8955 9.35589 42.1267 11.1247C40.3584 12.893 40.3584 15.7702 42.1267 17.539C42.7823 18.1946 43.5908 18.6065 44.4382 18.7762C45.0404 20.3484 46.5646 21.4683 48.3464 21.4683H53.8873L53.884 27.3669C53.884 27.774 53.7253 28.1561 53.4374 28.4435L50.0594 31.822C49.5788 32.3027 49.5788 33.0818 50.0594 33.5625C50.5396 34.0426 51.3187 34.0426 51.7994 33.5625L55.1779 30.184C55.9296 29.4318 56.3444 28.432 56.3449 27.3683L56.3483 21.4683H58.8164C61.1231 21.4683 63 19.5919 63 17.2847C63 14.9781 61.1231 13.1011 58.8164 13.1011ZM43.8672 12.8646C44.2719 12.4599 44.803 12.2581 45.3346 12.2581C45.8657 12.2581 46.3968 12.4604 46.8016 12.8646C46.9294 12.993 47.0351 13.1348 47.1226 13.2843C45.772 13.6981 44.7107 14.7791 44.3228 16.1413C44.1599 16.0504 44.0056 15.9375 43.8672 15.799C43.0582 14.9896 43.0582 13.6736 43.8672 12.8646ZM58.8164 19.0074H56.3497L56.3516 15.5621H58.8164C59.7662 15.5621 60.5391 16.335 60.5391 17.2847C60.5391 18.2345 59.7662 19.0074 58.8164 19.0074Z" fill="black"/>
<path d="M19.8615 34.3676C20.0129 34.9122 20.5075 35.2683 21.0458 35.2683C21.1554 35.2683 21.2665 35.2539 21.3765 35.2232L34.0081 31.7072C34.6627 31.525 35.0458 30.8463 34.8636 30.1917C34.6814 29.5375 34.0032 29.1544 33.3481 29.3366L20.7166 32.8521C20.0624 33.0347 19.6793 33.7129 19.8615 34.3676Z" fill="black"/>
<path d="M25.4217 35.9911C24.7363 36.6765 24.3589 37.5873 24.3589 38.5568C24.3589 39.5258 24.7363 40.4366 25.4217 41.1221C26.1292 41.8291 27.0578 42.1829 27.9869 42.1829C28.916 42.1829 29.8451 41.8291 30.5526 41.1221C31.9672 39.7075 31.9672 37.4057 30.5526 35.9911C29.1381 34.5765 26.8362 34.5765 25.4217 35.9911ZM28.8122 39.3816C28.357 39.8368 27.6168 39.8368 27.1616 39.3816C26.941 39.1615 26.8199 38.8683 26.8199 38.5563C26.8199 38.2449 26.9415 37.9517 27.1616 37.7311C27.3895 37.5037 27.6884 37.3898 27.9869 37.3898C28.2859 37.3898 28.5848 37.5037 28.8122 37.7311C29.2674 38.1862 29.2674 38.9269 28.8122 39.3816Z" fill="black"/>
<path d="M31.1621 28.6651C32.5767 27.2501 32.5767 24.9487 31.1621 23.5342C30.4767 22.8487 29.5654 22.4714 28.5964 22.4714C27.6274 22.4714 26.7161 22.8487 26.0311 23.5342C24.6166 24.9487 24.6166 27.2501 26.0311 28.6651C26.7387 29.3722 27.6673 29.7259 28.5964 29.7259C29.5255 29.7259 30.4546 29.3722 31.1621 28.6651ZM27.7711 25.2741C27.9917 25.0535 28.2849 24.9324 28.5964 24.9324C28.9083 24.9324 29.2015 25.0535 29.4217 25.2741C29.8768 25.7293 29.8768 26.4695 29.4217 26.9247C28.967 27.3799 28.2263 27.3799 27.7711 26.9247C27.3164 26.4695 27.3164 25.7293 27.7711 25.2741Z" fill="black"/>
<path d="M12.2384 31.825C11.7577 31.3443 10.9786 31.3443 10.4979 31.825L7.00166 35.3212C6.77095 35.5519 6.64117 35.8649 6.64117 36.1912C6.64117 36.5176 6.77095 36.8305 7.00166 37.0612L22.6051 52.6646C22.8449 52.9044 23.1602 53.0246 23.475 53.0246C23.7899 53.0246 24.1047 52.9044 24.345 52.6646L47.6739 29.3352C48.1546 28.8545 48.1546 28.0754 47.6739 27.5948L32.071 11.9918C31.8403 11.7611 31.5274 11.6313 31.201 11.6313C30.8747 11.6313 30.5618 11.7611 30.3311 11.9918L17.4587 24.8642C16.9781 25.3448 16.9781 26.124 17.4587 26.6046C17.9389 27.0848 18.718 27.0848 19.1987 26.6046L31.201 14.6023L45.064 28.4652L23.475 50.0542L9.61208 36.1912L12.2384 33.5649C12.7185 33.0843 12.719 32.3056 12.2384 31.825Z" fill="black"/>
<path d="M47.4495 34.9419C47.1255 34.9419 46.8083 35.0736 46.5795 35.3024C46.3507 35.5312 46.219 35.8489 46.219 36.1724C46.219 36.4958 46.3507 36.8136 46.5795 37.0423C46.8083 37.2711 47.1255 37.4028 47.4495 37.4028C47.7729 37.4028 48.0902 37.2711 48.3194 37.0423C48.5482 36.8136 48.6799 36.4958 48.6799 36.1724C48.6799 35.8489 48.5482 35.5312 48.3194 35.3024C48.0902 35.0736 47.7729 34.9419 47.4495 34.9419Z" fill="black"/>
<path d="M15.7178 30.0841C15.948 29.8553 16.0788 29.539 16.0788 29.2141C16.0788 28.8906 15.948 28.5744 15.7178 28.3441C15.489 28.1153 15.1727 27.9836 14.8483 27.9836C14.5243 27.9836 14.2071 28.1153 13.9783 28.3441C13.749 28.5729 13.6178 28.8906 13.6178 29.2141C13.6178 29.539 13.749 29.8553 13.9783 30.0841C14.2081 30.3143 14.5243 30.4446 14.8483 30.4446C15.1727 30.4446 15.489 30.3143 15.7178 30.0841Z" fill="black"/>
</g>
<defs>
<clipPath id="clip0">
<rect width="63" height="63" fill="white"/>
</clipPath>
</defs>
</svg>
