<svg width="63" height="63" viewBox="0 0 63 63" fill="none" xmlns="http://www.w3.org/2000/svg">
<path d="M60.8467 4.29883H2.15332C0.966041 4.29883 0 5.26487 0 6.45215V14.0312C0 15.2244 1.8457 15.2244 1.8457 14.0312V6.45215C1.8457 6.28259 1.98364 6.14453 2.15332 6.14453H60.8467C61.0164 6.14453 61.1543 6.28259 61.1543 6.45215V51.4552C61.1543 51.6247 61.0164 51.7628 60.8467 51.7628H49.0204V49.8425H58.3023C58.8121 49.8425 59.2252 49.4293 59.2252 48.9197V39.2557C59.2252 38.0625 57.3795 38.0625 57.3795 39.2557V47.9968H49.0204V43.9022C49.0504 43.9048 49.0807 43.9074 49.1091 43.91C49.8752 43.9773 50.8281 44.0611 51.4882 43.3997C52.1476 42.739 52.0642 41.7852 51.9971 41.0187C51.9249 40.1962 52.0027 39.971 52.6349 39.4454C54.2627 38.0919 54.293 36.6427 52.6349 35.2643C52.0027 34.7384 51.9253 34.5135 51.9971 33.6908C52.1778 31.6264 51.2136 30.6147 49.1091 30.7997C48.2878 30.8718 48.0649 30.7938 47.5413 30.1614C46.1898 28.5298 44.7396 28.4997 43.3631 30.1614C42.8394 30.7937 42.6167 30.872 41.7953 30.7997C39.7295 30.6182 38.7229 31.5878 38.9072 33.6908C38.979 34.5136 38.9016 34.7384 38.2694 35.2643C36.6416 36.6177 36.6115 38.0672 38.2694 39.4454C38.9016 39.9713 38.979 40.1963 38.9072 41.019C38.7134 43.23 39.7694 44.0849 41.8837 43.9023V47.9971H5.62066V9.91038H57.3795V34.3338C57.3795 35.527 59.2252 35.527 59.2252 34.3338V8.98753C59.2252 8.47787 58.8121 8.06468 58.3023 8.06468H4.69781C4.18802 8.06468 3.77496 8.47787 3.77496 8.98753V48.9197C3.77496 49.4293 4.18802 49.8425 4.69781 49.8425H41.8837V51.7628H2.15332C1.98364 51.7628 1.8457 51.6247 1.8457 51.4552V18.7069C1.8457 17.5137 0 17.5137 0 18.7069V51.4552C0 52.6425 0.966041 53.6085 2.15332 53.6085H41.8837V57.786C42.0151 58.5444 42.4525 58.8234 43.1957 58.6227L45.452 57.5732L47.7084 58.6227C48.2666 58.8823 49.0204 58.4719 49.0204 57.786V53.6085H60.8467C62.034 53.6085 63 52.6425 63 51.4552V6.45215C63 5.26475 62.034 4.29883 60.8467 4.29883ZM41.6335 42.0711C40.7097 42.1525 40.6649 42.103 40.7456 41.1797C40.8697 39.7625 40.5437 38.9357 39.4492 38.0259C38.7003 37.4031 38.7005 37.306 39.4492 36.6833C40.5437 35.7735 40.8698 34.9466 40.7456 33.5296C40.6649 32.6061 40.7097 32.5572 41.6335 32.638C43.0508 32.7629 43.8765 32.4345 44.7843 31.3385C45.4045 30.5899 45.4994 30.5899 46.1197 31.3385C47.0277 32.4345 47.8532 32.7624 49.2704 32.638C50.1944 32.5567 50.2391 32.6061 50.1583 33.5295C50.0343 34.9466 50.3603 35.7734 51.4548 36.6832C52.2035 37.3059 52.2039 37.4032 51.4546 38.0259C50.3601 38.9358 50.0341 39.7623 50.1582 41.1794C50.2393 42.1028 50.1943 42.1524 49.2705 42.0711C48.6909 42.0202 48.0333 41.9624 47.4545 42.2028C46.8943 42.4355 46.5004 42.9108 46.1196 43.3706C45.9402 43.5872 45.6127 43.9826 45.4518 44.0533C45.291 43.9826 44.9635 43.5872 44.7841 43.3706C44.4033 42.9109 44.0096 42.4355 43.4492 42.2028C42.8519 42.0207 42.2467 41.9768 41.6335 42.0711ZM45.8412 55.7188C45.5944 55.604 45.3097 55.604 45.0628 55.7188L43.7294 56.339V44.9758C44.1673 45.4573 44.7076 45.9043 45.452 45.9043C46.1965 45.9043 46.7368 45.4574 47.1747 44.9759V56.339L45.8412 55.7188Z" fill="black"/>
<path d="M11.9679 17.6353H43.7813C44.9745 17.6353 44.9745 15.7896 43.7813 15.7896H11.9679C10.7746 15.7896 10.7746 17.6353 11.9679 17.6353Z" fill="black"/>
<path d="M51.9549 22.3257C51.9549 21.816 51.5419 21.4028 51.0321 21.4028H11.9679C10.7747 21.4028 10.7747 23.2485 11.9679 23.2485H51.0322C51.5419 23.2485 51.9549 22.8353 51.9549 22.3257Z" fill="black"/>
<path d="M35.0852 27.9385C35.0852 27.4288 34.6721 27.0156 34.1624 27.0156H11.9679C10.7747 27.0156 10.7747 28.8613 11.9679 28.8613H34.1624C34.672 28.8613 35.0852 28.4481 35.0852 27.9385Z" fill="black"/>
<path d="M22.9668 40.8021C22.4637 40.8029 21.9604 40.8035 21.4573 40.8039C20.4893 40.8047 19.9564 40.5466 19.7586 39.5202C19.5781 38.5832 18.2266 38.7025 17.9789 39.5202C17.8692 39.8823 17.3155 40.919 16.8318 40.8342C16.5755 40.7893 16.4636 40.3939 16.3688 40.1892C16.1844 39.7906 16.05 39.3682 15.9349 38.9449C15.4492 37.1566 15.3522 35.2893 15.0483 33.4672C14.8721 32.4106 13.2615 32.7094 13.2355 33.7126C13.1529 36.9082 12.6304 40.0601 11.4927 43.0554C11.0705 44.1669 12.8541 44.6475 13.2725 43.5461C13.7111 42.3912 14.0593 41.2086 14.3296 40.0084C14.4745 40.4457 14.6474 40.8747 14.8584 41.2919C15.3974 42.357 16.4965 42.9871 17.6726 42.5134C18.0923 42.3443 18.4752 42.0488 18.8012 41.6891C19.6743 42.696 20.9733 42.6504 22.1852 42.6489C24.0121 42.6465 25.839 42.6422 27.666 42.6372C28.8535 42.6339 28.8557 40.7882 27.666 40.7915C26.0996 40.7959 24.5332 40.7995 22.9668 40.8021Z" fill="black"/>
<path d="M45.452 40.9591C47.4396 40.9591 49.0567 39.3421 49.0567 37.3545C49.0567 35.367 47.4396 33.75 45.452 33.75C43.4646 33.75 41.8475 35.3671 41.8475 37.3545C41.8475 39.342 43.4645 40.9591 45.452 40.9591ZM45.452 35.5957C46.4219 35.5957 47.211 36.3848 47.211 37.3545C47.211 38.3243 46.4219 39.1134 45.452 39.1134C44.4822 39.1134 43.6932 38.3244 43.6932 37.3545C43.6932 36.3847 44.4822 35.5957 45.452 35.5957Z" fill="black"/>
</svg>
