<svg width="20" height="15" viewBox="0 0 20 15" fill="none" xmlns="http://www.w3.org/2000/svg">
<path fill-rule="evenodd" clip-rule="evenodd" d="M19.6362 6.226L16.2132 1.16701C15.9687 0.826556 15.6512 0.545071 15.2839 0.343155C14.9165 0.141239 14.5087 0.0239928 14.0903 0H1.60722C1.16395 0.0192437 0.746267 0.212963 0.445234 0.53891C0.144201 0.864857 -0.0157637 1.2966 0.000226579 1.74001V13.258C-0.0165697 13.7018 0.143052 14.1342 0.444196 14.4607C0.74534 14.7871 1.1635 14.981 1.60722 15H14.0903C14.509 14.9767 14.9171 14.8597 15.2846 14.6575C15.652 14.4554 15.9694 14.1733 16.2132 13.832L19.6362 8.77299C19.8736 8.39066 19.9995 7.94956 19.9995 7.4995C19.9995 7.04943 19.8736 6.60834 19.6362 6.226ZM18.7432 8.07001L15.3192 13.129C15.002 13.5721 14.5323 13.8823 14.0002 14H2.00023C1.77222 13.9137 1.56514 13.7799 1.39274 13.6075C1.22035 13.4351 1.08657 13.228 1.00023 13V2C1.08674 1.77209 1.22061 1.56512 1.39299 1.39275C1.56536 1.22037 1.77232 1.08651 2.00023 1H14.0002C14.5328 1.12211 15.0031 1.43294 15.3242 1.875L18.7472 6.93401C18.8439 7.10787 18.8942 7.30361 18.8935 7.50252C18.8928 7.70142 18.841 7.89683 18.7432 8.07001ZM14.5002 6C14.7969 6 15.0869 6.08797 15.3336 6.25279C15.5803 6.41761 15.7725 6.65189 15.886 6.92598C15.9996 7.20007 16.0293 7.50166 15.9714 7.79263C15.9135 8.0836 15.7707 8.35087 15.5609 8.56065C15.3511 8.77043 15.0839 8.9133 14.7929 8.97118C14.5019 9.02905 14.2003 8.99935 13.9262 8.88582C13.6521 8.77229 13.4179 8.58003 13.253 8.33336C13.0882 8.08669 13.0002 7.79667 13.0002 7.5C13.0002 7.10218 13.1583 6.72065 13.4396 6.43935C13.7209 6.15804 14.1024 6 14.5002 6Z" fill="#88929B"/>
</svg>
