<svg width="30" height="30" viewBox="0 0 30 30" fill="none" xmlns="http://www.w3.org/2000/svg">
<path fill-rule="evenodd" clip-rule="evenodd" d="M30 14.9998C30 23.2756 23.2867 29.9998 15 29.9998C6.71329 29.9998 0 23.2756 0 15.1032C0 6.82734 6.71329 0.103204 15 -0.000244141C23.2867 -0.000244141 30 6.72389 30 14.9998ZM21.2251 8.34172L6.34076 13.8267C5.32045 14.2083 5.33854 14.7477 6.16588 14.999L9.97636 16.135L18.8154 10.8159C19.2261 10.5554 19.6066 10.703 19.2954 10.9646L12.1418 17.1401L11.868 20.8938C12.2672 20.8938 12.4409 20.7278 12.6465 20.5313L14.508 18.8172L18.3674 21.5358C19.0711 21.9168 19.5746 21.7203 19.7621 20.9111L22.2966 9.50016L22.2954 9.50131C22.5192 8.50251 21.9161 8.10311 21.2251 8.34172Z" fill="#828282"/>
</svg>
