<svg width="30" height="30" viewBox="0 0 30 30" fill="none" xmlns="http://www.w3.org/2000/svg">
<circle cx="15" cy="15" r="15" fill="#7C509A"/>
<path d="M19.6904 7.90944C16.8318 7.36352 13.8632 7.36352 11.0046 7.90944C9.74018 8.18239 8.14594 9.71095 7.87107 10.912C7.37631 13.2594 7.37631 15.6614 7.87107 18.0088C8.20092 19.2098 9.79516 20.7384 11.0046 21.0114C11.0596 21.0114 11.1145 21.066 11.1145 21.1205V24.5598C11.1145 24.7236 11.3344 24.8328 11.4444 24.669L13.0936 22.9767C13.0936 22.9767 14.413 21.6119 14.6329 21.3935C14.6329 21.3935 14.6878 21.3389 14.7428 21.3389C16.392 21.3935 18.0962 21.2297 19.7454 20.9568C21.0098 20.6838 22.6041 19.1553 22.8789 17.9542C23.3737 15.6068 23.3737 13.2048 22.8789 10.8574C22.5491 9.71095 20.9548 8.18239 19.6904 7.90944ZM19.7454 18.1726C19.4705 18.7185 19.1407 19.1553 18.591 19.4282C18.426 19.4828 18.2611 19.5374 18.0962 19.592C17.8763 19.5374 17.7114 19.4828 17.5465 19.4282C15.7873 18.7185 14.1381 17.7359 12.8187 16.3165C12.1041 15.4976 11.4993 14.5696 11.0046 13.5869C10.7847 13.0956 10.5648 12.6589 10.3999 12.1676C10.2349 11.7308 10.5098 11.2941 10.7847 10.9666C11.0596 10.639 11.3894 10.4206 11.7742 10.2569C12.0491 10.0931 12.324 10.2023 12.5438 10.4206C12.9836 10.9666 13.4234 11.5125 13.7533 12.113C13.9732 12.4951 13.9182 12.9318 13.5334 13.2048C13.4234 13.2594 13.3685 13.314 13.2585 13.4232C13.2035 13.4778 13.0936 13.5323 13.0386 13.6415C12.9287 13.8053 12.9287 13.9691 12.9836 14.1329C13.4234 15.3885 14.248 16.3711 15.5124 16.917C15.7323 17.0262 15.8973 17.0808 16.1721 17.0808C16.5569 17.0262 16.7219 16.5895 16.9967 16.3711C17.2716 16.1527 17.6014 16.1527 17.9313 16.3165C18.2062 16.4803 18.481 16.6986 18.8109 16.917C19.0857 17.1354 19.3606 17.2992 19.6355 17.5175C19.8004 17.6267 19.8554 17.8997 19.7454 18.1726ZM17.4365 14.0783C17.3266 14.0783 17.3815 14.0783 17.4365 14.0783C17.2166 14.0783 17.1616 13.9691 17.1067 13.8053C17.1067 13.6961 17.1067 13.5323 17.0517 13.4232C16.9967 13.2048 16.8868 12.9864 16.6669 12.8227C16.5569 12.7681 16.447 12.7135 16.337 12.6589C16.1721 12.6043 16.0622 12.6043 15.8973 12.6043C15.7323 12.5497 15.6774 12.4405 15.6774 12.2767C15.6774 12.1676 15.8423 12.0584 15.9522 12.0584C16.8318 12.113 17.4915 12.6043 17.6014 13.6415C17.6014 13.6961 17.6014 13.8053 17.6014 13.8599C17.6014 13.9691 17.5465 14.0783 17.4365 14.0783ZM16.8868 11.6762C16.6119 11.5671 16.337 11.4579 16.0072 11.4033C15.8973 11.4033 15.7323 11.3487 15.6224 11.3487C15.4575 11.3487 15.3475 11.2395 15.4025 11.0757C15.4025 10.912 15.5124 10.8028 15.6774 10.8574C16.2271 10.912 16.7219 11.0211 17.2166 11.2395C18.2062 11.7308 18.7559 12.5497 18.9208 13.6415C18.9208 13.6961 18.9208 13.7507 18.9208 13.8053C18.9208 13.9145 18.9208 14.0237 18.9208 14.1874C18.9208 14.242 18.9208 14.2966 18.9208 14.3512C18.8658 14.5696 18.481 14.6242 18.426 14.3512C18.426 14.2966 18.3711 14.1874 18.3711 14.1329C18.3711 13.6415 18.2611 13.1502 18.0412 12.7135C17.7114 12.2222 17.3266 11.8946 16.8868 11.6762ZM19.8554 14.9517C19.6904 14.9517 19.5805 14.7879 19.5805 14.6242C19.5805 14.2966 19.5255 13.9691 19.4705 13.6415C19.2507 11.8946 17.8213 10.4752 16.1171 10.2023C15.8423 10.1477 15.5674 10.1477 15.3475 10.0931C15.1826 10.0931 14.9627 10.0931 14.9077 9.87472C14.8527 9.71095 15.0177 9.54718 15.1826 9.54718C15.2376 9.54718 15.2925 9.54718 15.2925 9.54718C17.5465 9.60177 15.4025 9.54718 15.2925 9.54718C17.6014 9.60177 19.5255 11.1303 19.9103 13.4232C19.9653 13.8053 20.0203 14.1874 20.0203 14.6242C20.1302 14.7879 20.0203 14.9517 19.8554 14.9517Z" fill="white"/>
</svg>
