<svg width="30" height="30" viewBox="0 0 30 30" fill="none" xmlns="http://www.w3.org/2000/svg">
<path fill-rule="evenodd" clip-rule="evenodd" d="M30 14.9998C30 23.2756 23.3101 29.9998 15.0523 29.9998C6.6899 29.8963 0 23.1722 0 14.9998C0 6.82734 6.6899 -0.000244141 14.9477 -0.000244141C23.2056 -0.000244141 30 6.72389 30 14.9998ZM21.7422 20.2756H19.6516C19.6516 20.2756 19.2334 20.3791 18.6063 19.9653C17.77 19.448 17.0383 17.9998 16.5157 18.2067C15.8885 18.4135 15.993 19.6549 15.993 19.6549C15.993 19.6549 15.993 19.9653 15.8885 20.0687C15.784 20.2756 15.4704 20.2756 15.4704 20.2756H14.5296C14.5296 20.2756 12.439 20.3791 10.5575 18.517C8.57143 16.448 6.79443 12.3101 6.79443 12.3101C6.79443 12.3101 6.6899 11.9998 6.79443 11.8963C6.89895 11.7929 7.21254 11.6894 7.21254 11.6894H9.5122C9.5122 11.6894 9.72125 11.6894 9.93031 11.7929C10.0348 11.8963 10.1394 12.1032 10.1394 12.1032C10.1394 12.1032 10.5575 13.0342 10.9756 13.8618C11.9164 15.517 12.3345 15.8273 12.6481 15.7239C13.0662 15.517 12.9617 13.448 12.9617 13.448C12.9617 13.448 12.9617 12.7239 12.7526 12.4135C12.5436 12.2067 12.23 12.1032 12.0209 12.1032C11.9164 12.1032 12.1254 11.7929 12.3345 11.6894C12.7526 11.4825 13.4843 11.4825 14.3206 11.4825C14.9477 11.4825 15.1568 11.4825 15.4704 11.586C16.2021 11.7929 15.993 12.517 15.993 14.2756C15.993 14.7929 15.8885 15.6204 16.3066 15.9308C16.5157 16.0342 16.9338 15.9308 17.9791 14.1722C18.5017 13.3446 18.8153 12.3101 18.8153 12.3101C18.8153 12.3101 18.9199 12.1032 19.0244 12.1032C19.1289 11.9998 19.338 11.9998 19.338 11.9998H21.7422C21.7422 11.9998 22.4739 11.8963 22.5784 12.2067C22.6829 12.517 22.2648 13.3446 21.324 14.586C19.7561 16.7584 19.547 16.5515 20.9059 17.7929C22.1603 18.9308 22.4739 19.5515 22.4739 19.6549C22.892 20.2756 21.7422 20.2756 21.7422 20.2756Z" fill="#828282"/>
</svg>
