<svg width="10" height="10" viewBox="0 0 10 10" fill="none" xmlns="http://www.w3.org/2000/svg">
<path d="M8.74047 8.84898C8.45342 9.27192 7.48764 9.54563 7.04297 9.50862C6.66001 9.48518 6.16639 9.37665 5.69825 9.1522C5.41522 8.96846 5.00878 8.75759 4.56613 8.41724C2.53596 7.05952 1.57551 4.66112 1.49033 4.46012C1.39241 4.31708 0.806892 3.15549 1.03625 2.1123C1.26562 1.06911 1.92288 0.727574 2.15896 0.536455C2.39504 0.345335 2.64185 0.399602 2.82696 0.440301C2.95036 0.467434 3.13547 0.508133 3.25888 0.535266C3.38228 0.562399 3.58014 0.545144 3.67605 0.991527C3.77196 1.43791 3.97452 2.57606 4.02348 2.64758C4.0597 2.77706 4.03421 2.89297 3.94703 2.99531C3.85984 3.09765 3.77265 3.2 3.62376 3.28877C3.47487 3.37755 3.31324 3.52428 3.23879 3.56867C3.0899 3.65745 2.94101 3.74622 3.02619 3.94722C3.09863 4.20617 3.39038 4.93864 3.94169 5.66742C4.65263 6.55281 5.28039 6.93386 5.50172 7.10403C5.72305 7.27421 5.85919 7.24338 6.00808 7.15461C6.15697 7.06583 6.69084 6.69716 6.86521 6.49247C7.03959 6.28779 7.21195 6.38644 7.38432 6.4851C7.55668 6.58375 8.55266 7.34954 8.71228 7.50615C8.93361 7.67632 9.04427 7.76141 9.09323 7.83293C9.11671 8.02036 9.02751 8.42605 8.74047 8.84898Z" fill="white"/>
</svg>
