<svg width="120" height="121" viewBox="0 0 120 121" fill="none" xmlns="http://www.w3.org/2000/svg">
<path d="M118.122 56.6089C121.732 50.7935 119.987 43.3133 114.177 39.6084C111.666 38.0139 110.279 35.2 110.59 32.2689C111.259 25.4921 106.382 19.5126 99.4952 18.645C96.5302 18.2698 94.0435 16.3236 93.0153 13.58C90.6242 7.20193 83.5704 3.87218 76.9949 6.00603C74.1495 6.92054 71.065 6.24052 68.913 4.20047C63.9156 -0.536223 56.1206 -0.536223 51.1232 4.20047C48.9712 6.24052 45.8867 6.94399 43.0413 6.00603C36.4657 3.87218 29.412 7.17848 27.0209 13.58C25.9927 16.3236 23.506 18.2698 20.541 18.645C13.6307 19.5126 8.75288 25.4921 9.42239 32.2689C9.70932 35.2 8.32248 37.9904 5.83574 39.6084C0.00145075 43.3133 -1.72014 50.7701 1.86651 56.6089C3.42073 59.1179 3.42073 62.2366 1.86651 64.7457C-1.72014 70.561 0.00145075 78.0178 5.83574 81.7227C8.34639 83.3172 9.73323 86.1311 9.42239 89.0622C8.75288 95.839 13.6307 101.818 20.5171 102.686C23.4821 103.061 25.9688 105.007 26.997 107.751C28.9099 112.816 33.7399 115.958 38.9525 115.958C40.2915 115.958 41.6783 115.747 43.0174 115.302C45.8628 114.387 48.9473 115.067 51.0993 117.107C53.586 119.476 56.7901 120.648 59.9942 120.648C63.1983 120.648 66.4023 119.476 68.8891 117.107C71.0411 115.067 74.1256 114.364 76.971 115.302C83.5465 117.435 90.6003 114.129 92.9914 107.728C94.0195 104.984 96.5063 103.038 99.4713 102.663C106.358 101.795 111.235 95.8155 110.566 89.0388C110.279 86.1077 111.666 83.3172 114.153 81.6992C119.963 77.9943 121.708 70.5141 118.098 64.6988C116.568 62.2132 116.568 59.1179 118.122 56.6089Z" fill="url(#paint0_linear)"/>
<path opacity="0.2" d="M110.372 57.1474C113.501 52.1075 111.989 45.6246 106.953 42.4137C104.777 41.0317 103.575 38.593 103.845 36.0527C104.425 30.1796 100.197 24.9973 94.2291 24.2454C91.6595 23.9202 89.5043 22.2335 88.6133 19.8558C86.541 14.3281 80.4277 11.4423 74.7289 13.2916C72.2629 14.0842 69.5896 13.4948 67.7246 11.7268C63.3935 7.62167 56.6379 7.62167 52.3068 11.7268C50.4417 13.4948 47.7685 14.1045 45.3024 13.2916C39.6036 11.4423 33.4904 14.3077 31.4181 19.8558C30.527 22.2335 28.3718 23.9202 25.8022 24.2454C19.8133 24.9973 15.5858 30.1796 16.1661 36.0527C16.4147 38.593 15.2128 41.0114 13.0576 42.4137C8.00126 45.6246 6.50921 52.0871 9.61764 57.1474C10.9646 59.3219 10.9646 62.0248 9.61764 64.1993C6.50921 69.2393 8.00126 75.7018 13.0576 78.9127C15.2335 80.2947 16.4355 82.7333 16.1661 85.2737C15.5858 91.1468 19.8133 96.329 25.7815 97.081C28.3511 97.4061 30.5063 99.0929 31.3974 101.471C33.0552 105.86 37.2412 108.583 41.7588 108.583C42.9193 108.583 44.1212 108.401 45.2817 108.014C47.7477 107.222 50.421 107.811 52.286 109.579C54.4412 111.632 57.2181 112.648 59.995 112.648C62.7718 112.648 65.5487 111.632 67.7039 109.579C69.5689 107.811 72.2422 107.202 74.7082 108.014C80.407 109.864 86.5202 106.998 88.5925 101.45C89.4836 99.0726 91.6388 97.3858 94.2084 97.0607C100.177 96.3087 104.404 91.1265 103.824 85.2533C103.575 82.713 104.777 80.2947 106.932 78.8924C111.968 75.6815 113.481 69.1986 110.352 64.1587C109.025 62.0045 109.025 59.3219 110.372 57.1474Z" fill="url(#paint1_linear)" stroke="#3B3D3E" stroke-width="2" stroke-linecap="round" stroke-dasharray="1 3"/>
<path opacity="0.2" fill-rule="evenodd" clip-rule="evenodd" d="M59.437 7.66165C59.8226 7.64338 60.2088 7.64338 60.5943 7.66165C61.146 7.68778 61.572 8.15619 61.5459 8.70785C61.5197 9.25952 61.0513 9.68554 60.4997 9.65941C60.1772 9.64413 59.8541 9.64413 59.5317 9.65941C58.98 9.68554 58.5116 9.25952 58.4855 8.70785C58.4593 8.15619 58.8854 7.68778 59.437 7.66165ZM62.723 8.93345C62.9032 8.41138 63.4725 8.1342 63.9945 8.31436C64.3581 8.43981 64.717 8.58298 65.0699 8.74386C65.5724 8.97294 65.7941 9.56603 65.5651 10.0686C65.336 10.5711 64.7429 10.7928 64.2403 10.5637C63.9456 10.4293 63.6458 10.3098 63.3421 10.205C62.82 10.0248 62.5429 9.45553 62.723 8.93345ZM57.3083 8.93345C57.4885 9.45553 57.2113 10.0248 56.6892 10.205C56.3855 10.3098 56.0858 10.4293 55.791 10.5637C55.2885 10.7928 54.6954 10.5711 54.4663 10.0686C54.2372 9.56603 54.4589 8.97294 54.9614 8.74387C55.3144 8.58298 55.6733 8.43981 56.0368 8.31436C56.5589 8.1342 57.1282 8.41138 57.3083 8.93345ZM53.458 10.7167C53.8188 11.1347 53.7725 11.7662 53.3544 12.1271C53.2327 12.2322 53.1128 12.3407 52.9947 12.4525C52.8641 12.5764 52.7299 12.6953 52.5924 12.8093C52.1672 13.1617 51.5368 13.1027 51.1844 12.6774C50.8319 12.2522 50.891 11.6218 51.3162 11.2694C51.4195 11.1838 51.5204 11.0943 51.6188 11.0011L51.6188 11.001C51.7594 10.8678 51.9023 10.7385 52.0475 10.6132C52.4656 10.2523 53.0971 10.2986 53.458 10.7167ZM66.5734 10.7167C66.9343 10.2986 67.5658 10.2523 67.9838 10.6132C68.129 10.7385 68.272 10.8678 68.4125 11.001L68.4126 11.0011C68.5107 11.0941 68.6114 11.1833 68.7145 11.2686C69.14 11.6208 69.1994 12.2511 68.8473 12.6766C68.4951 13.102 67.8648 13.1615 67.4393 12.8093C67.3017 12.6955 67.1674 12.5765 67.0366 12.4525C66.9186 12.3407 66.7987 12.2322 66.6769 12.1271C66.2589 11.7662 66.2125 11.1347 66.5734 10.7167ZM42.65 12.7204C42.6564 13.2726 42.2139 13.7255 41.6616 13.7319C41.338 13.7356 41.0164 13.7547 40.6977 13.7885C40.1485 13.8469 39.656 13.449 39.5976 12.8998C39.5392 12.3506 39.9372 11.8581 40.4863 11.7997C40.8674 11.7592 41.2518 11.7365 41.6385 11.732C42.1907 11.7256 42.6436 12.1681 42.65 12.7204ZM77.3803 12.7216C77.3872 12.1693 77.8405 11.7273 78.3927 11.7342C78.7793 11.739 79.1636 11.7622 79.5445 11.803C80.0936 11.8619 80.491 12.3549 80.4321 12.904C80.3732 13.4531 79.8803 13.8505 79.3311 13.7916C79.0126 13.7574 78.6911 13.7381 78.3677 13.734C77.8154 13.7271 77.3734 13.2738 77.3803 12.7216ZM43.8302 12.8745C43.9765 12.342 44.5269 12.0289 45.0594 12.1752C45.2437 12.2259 45.4276 12.2809 45.6111 12.3405L45.6155 12.3419C45.7445 12.3844 45.874 12.4224 46.0039 12.4558C46.5388 12.5936 46.8606 13.1389 46.7228 13.6737C46.5851 14.2085 46.0398 14.5304 45.505 14.3926C45.3331 14.3483 45.1619 14.2982 44.9917 14.2421C44.8379 14.1922 44.6838 14.1461 44.5295 14.1037C43.997 13.9574 43.6839 13.4071 43.8302 12.8745ZM76.201 12.8748C76.3473 13.4074 76.0341 13.9577 75.5015 14.1039C75.3467 14.1464 75.192 14.1927 75.0376 14.2428L75.0349 14.2437C74.8642 14.2985 74.6924 14.3476 74.52 14.3909C73.9844 14.5255 73.4411 14.2004 73.3065 13.6648C73.1719 13.1291 73.497 12.5858 74.0326 12.4512C74.1627 12.4185 74.2924 12.3815 74.4216 12.34C74.6046 12.2806 74.7881 12.2257 74.9719 12.1753C75.5045 12.029 76.0548 12.3422 76.201 12.8748ZM69.595 13.0733C69.7503 12.5433 70.3058 12.2395 70.8358 12.3948C71.0938 12.4703 71.3569 12.5286 71.6234 12.569C72.1695 12.6519 72.5449 13.1617 72.4621 13.7077C72.3792 14.2537 71.8694 14.6292 71.3233 14.5464C70.9685 14.4925 70.6178 14.4149 70.2736 14.3141C69.7436 14.1589 69.4398 13.6033 69.595 13.0733ZM50.4363 13.0773C50.5928 13.607 50.2904 14.1632 49.7608 14.3198C49.4164 14.4216 49.0653 14.5001 48.7099 14.5545C48.164 14.6382 47.6536 14.2635 47.5699 13.7176C47.4863 13.1716 47.861 12.6613 48.4069 12.5776C48.673 12.5368 48.9359 12.4781 49.1938 12.4019C49.7234 12.2453 50.2797 12.5477 50.4363 13.0773ZM38.4436 13.1913C38.6534 13.7021 38.4094 14.2864 37.8985 14.4962C37.6007 14.6186 37.309 14.755 37.0247 14.9048C36.5361 15.1623 35.9313 14.975 35.6738 14.4865C35.4163 13.9979 35.6036 13.3931 36.0922 13.1355C36.4328 12.956 36.782 12.7927 37.1386 12.6462C37.6494 12.4364 38.2337 12.6804 38.4436 13.1913ZM81.5847 13.1964C81.7949 12.6856 82.3793 12.442 82.89 12.6522C83.2463 12.7988 83.5952 12.9622 83.9356 13.1417C84.4241 13.3993 84.6112 14.0042 84.3535 14.4927C84.0959 14.9812 83.491 15.1683 83.0025 14.9107C82.7182 14.7607 82.4267 14.6242 82.1289 14.5017C81.6182 14.2915 81.3745 13.7071 81.5847 13.1964ZM34.7106 15.1865C35.0969 15.5812 35.0902 16.2143 34.6955 16.6007C34.467 16.8244 34.2488 17.0598 34.0418 17.3065C33.6867 17.7295 33.056 17.7847 32.6329 17.4296C32.2099 17.0746 32.1547 16.4438 32.5098 16.0208C32.759 15.7238 33.0216 15.4405 33.2964 15.1715C33.6911 14.7851 34.3242 14.7919 34.7106 15.1865ZM85.3159 15.1919C85.702 14.7969 86.3351 14.7896 86.7301 15.1756C87.005 15.4443 87.2678 15.7271 87.5172 16.0236C87.8727 16.4462 87.8183 17.077 87.3957 17.4326C86.973 17.7881 86.3422 17.7337 85.9867 17.3111C85.7794 17.0647 85.5609 16.8295 85.3322 16.606C84.9372 16.22 84.9299 15.5868 85.3159 15.1919ZM32.0098 18.4447C32.5173 18.6624 32.7522 19.2504 32.5344 19.758C32.4714 19.9049 32.4115 20.0541 32.3549 20.2057L32.3545 20.2067C32.2914 20.3752 32.2227 20.5407 32.1486 20.7031C31.9195 21.2056 31.3264 21.4272 30.8239 21.1981C30.3214 20.969 30.0997 20.3759 30.3289 19.8734C30.3836 19.7532 30.4345 19.6307 30.4813 19.5059C30.5491 19.3244 30.6208 19.1456 30.6965 18.9693C30.9143 18.4618 31.5022 18.2269 32.0098 18.4447ZM88.0198 18.4456C88.527 18.2272 89.1153 18.4613 89.3338 18.9685C89.4097 19.1447 89.4816 19.3234 89.5496 19.5047L89.5497 19.5048C89.5966 19.63 89.6476 19.7529 89.7025 19.8734C89.9316 20.3759 89.71 20.969 89.2074 21.1981C88.7049 21.4272 88.1118 21.2056 87.8827 20.7031C87.8087 20.5407 87.74 20.3753 87.6769 20.2068C87.6202 20.0555 87.5601 19.9064 87.4969 19.7596C87.2785 19.2524 87.5126 18.6641 88.0198 18.4456ZM30.3291 21.8672C30.6969 22.2792 30.6611 22.9113 30.2491 23.2791C29.9826 23.5171 29.6999 23.7368 29.403 23.9368C28.9449 24.2453 28.3235 24.1241 28.0149 23.6661C27.7064 23.208 27.8276 22.5866 28.2857 22.278C28.5075 22.1286 28.7185 21.9646 28.9172 21.7872C29.3292 21.4194 29.9613 21.4552 30.3291 21.8672ZM89.7022 21.8672C90.07 21.4552 90.7022 21.4194 91.1142 21.7872C91.3128 21.9646 91.5238 22.1286 91.7457 22.278C92.2038 22.5866 92.325 23.208 92.0164 23.6661C91.7079 24.1241 91.0864 24.2453 90.6284 23.9368C90.3314 23.7368 90.0487 23.5171 89.7822 23.2791C89.3702 22.9113 89.3344 22.2792 89.7022 21.8672ZM27.2463 23.9812C27.3513 24.5234 26.997 25.0481 26.4548 25.1532C26.2809 25.1869 26.1051 25.215 25.9277 25.2375L25.9268 25.2376C25.766 25.2578 25.6067 25.2815 25.4489 25.3085C24.9046 25.4018 24.3877 25.0362 24.2943 24.4919C24.201 23.9475 24.5667 23.4306 25.111 23.3373C25.298 23.3052 25.4865 23.2772 25.6767 23.2533C25.8106 23.2364 25.9432 23.2151 26.0743 23.1897C26.6164 23.0846 27.1412 23.439 27.2463 23.9812ZM92.7851 23.9812C92.8902 23.439 93.4149 23.0846 93.9571 23.1897C94.0879 23.2151 94.2204 23.2363 94.3541 23.2533M23.1729 24.8463C23.4122 25.344 23.2028 25.9415 22.705 26.1808C22.4146 26.3205 22.1329 26.473 21.8605 26.6375C21.3877 26.923 20.773 26.7712 20.4875 26.2984C20.202 25.8257 20.3538 25.211 20.8266 24.9255C21.1532 24.7282 21.4907 24.5456 21.8383 24.3784C22.3361 24.1391 22.9336 24.3485 23.1729 24.8463ZM96.8542 24.8476C97.0944 24.3502 97.6922 24.1417 98.1895 24.3818C98.5366 24.5493 98.8735 24.7324 99.1995 24.93C99.6718 25.2163 99.8226 25.8313 99.5363 26.3036C99.25 26.7759 98.6351 26.9266 98.1628 26.6404C97.8909 26.4756 97.6098 26.3228 97.32 26.1829C96.8227 25.9428 96.6141 25.345 96.8542 24.8476ZM19.5776 27.0442C19.986 27.4161 20.0156 28.0485 19.6438 28.4569C19.4284 28.6934 19.225 28.94 19.0342 29.1956C18.7039 29.6382 18.0773 29.7292 17.6347 29.3989C17.1921 29.0686 17.101 28.442 17.4314 27.9994C17.6611 27.6916 17.9059 27.3949 18.1649 27.1104C18.5368 26.702 19.1692 26.6724 19.5776 27.0442ZM100.442 27.0489C100.851 26.6776 101.484 26.7082 101.855 27.1171C102.113 27.4017 102.357 27.6984 102.587 28.0062C102.916 28.4493 102.824 29.0757 102.381 29.4055C101.938 29.7352 101.312 29.6433 100.982 29.2003C100.792 28.9446 100.589 28.698 100.374 28.4614C100.003 28.0525 100.034 27.4201 100.442 27.0489ZM17.0763 30.4351C17.596 30.6219 17.866 31.1946 17.6792 31.7144C17.5719 32.0131 17.479 32.3181 17.4012 32.6286C17.2671 33.1643 16.7241 33.4899 16.1883 33.3558C15.6526 33.2216 15.327 32.6786 15.4611 32.1428C15.5551 31.7676 15.6673 31.399 15.797 31.0381C15.9838 30.5183 16.5565 30.2484 17.0763 30.4351ZM102.937 30.4394C103.457 30.253 104.03 30.5234 104.216 31.0432C104.345 31.4039 104.457 31.7721 104.551 32.147C104.685 32.6828 104.359 33.2257 103.823 33.3596C103.287 33.4934 102.744 33.1676 102.61 32.6317C102.533 32.3215 102.44 32.0167 102.333 31.7182C102.147 31.1983 102.417 30.6258 102.937 30.4394ZM16.0763 34.5276C16.6278 34.4997 17.0976 34.9242 17.1255 35.4758C17.1335 35.6346 17.1454 35.7942 17.1612 35.9544L17.1613 35.9553C17.1787 36.1334 17.19 36.3112 17.1951 36.4883C17.2111 37.0403 16.7766 37.5008 16.2245 37.5168C15.6725 37.5328 15.212 37.0983 15.1959 36.5462C15.1921 36.4151 15.1838 36.2833 15.1709 36.1511C15.1519 35.959 15.1377 35.7676 15.128 35.5768C15.1001 35.0252 15.5247 34.5555 16.0763 34.5276ZM103.934 34.5281C104.486 34.556 104.91 35.0258 104.883 35.5774C104.873 35.768 104.859 35.9592 104.84 36.1511L104.839 36.1582C104.825 36.2906 104.816 36.4225 104.811 36.5539C104.791 37.1058 104.327 37.5371 103.775 37.5171C103.223 37.4972 102.792 37.0336 102.812 36.4817C102.819 36.3053 102.831 36.1284 102.85 35.9512C102.865 35.7922 102.877 35.6339 102.885 35.4763C102.913 34.9247 103.383 34.5002 103.934 34.5281ZM16.0789 38.3198C16.59 38.5291 16.8346 39.1131 16.6252 39.6242C16.4901 39.954 16.3323 40.274 16.1531 40.5823C15.8754 41.0597 15.2633 41.2216 14.7859 40.944C14.3085 40.6663 14.1465 40.0542 14.4242 39.5768C14.5574 39.3478 14.6744 39.1103 14.7745 38.8661C14.9838 38.355 15.5678 38.1104 16.0789 38.3198ZM103.918 38.326C104.43 38.1176 105.013 38.3633 105.222 38.8748C105.321 39.1191 105.438 39.3565 105.571 39.5853C105.849 40.0626 105.687 40.6748 105.21 40.9526C104.733 41.2304 104.12 41.0686 103.843 40.5913C103.663 40.282 103.505 39.9606 103.37 39.6295C103.161 39.118 103.407 38.5344 103.918 38.326ZM14.2405 41.5488C14.571 41.9913 14.4803 42.6179 14.0379 42.9485C13.8969 43.0538 13.7519 43.155 13.603 43.2519L13.5937 43.2579L13.5937 43.2578C13.4579 43.3441 13.3249 43.4329 13.1949 43.5241C12.7427 43.8412 12.1191 43.7316 11.802 43.2795C11.4849 42.8273 11.5944 42.2037 12.0466 41.8866C12.2 41.779 12.3566 41.6743 12.5164 41.5727C12.6277 41.5002 12.7358 41.4247 12.8409 41.3462C13.2833 41.0157 13.9099 41.1064 14.2405 41.5488ZM105.761 41.5597C106.088 41.1142 106.714 41.0177 107.159 41.3442C107.266 41.4224 107.376 41.4976 107.489 41.5695L107.491 41.5705C107.652 41.6734 107.81 41.7794 107.965 41.8885C108.417 42.2065 108.525 42.8304 108.207 43.2819C107.889 43.7334 107.265 43.8417 106.813 43.5236C106.684 43.4322 106.551 43.3433 106.415 43.2568C106.265 43.1614 106.119 43.0615 105.977 42.9574C105.531 42.6309 105.435 42.0051 105.761 41.5597ZM10.9535 44.0714C11.3852 44.4159 11.4558 45.0451 11.1113 45.4768C10.912 45.7266 10.7263 45.9843 10.5545 46.2491C10.2537 46.7123 9.63444 46.844 9.1712 46.5433C8.70797 46.2426 8.57622 45.6233 8.87694 45.1601C9.08421 44.8408 9.30804 44.5301 9.54811 44.2293C9.89261 43.7976 10.5218 43.7269 10.9535 44.0714ZM109.053 44.0754C109.485 43.7318 110.114 43.8037 110.458 44.236C110.697 44.5371 110.92 44.848 111.127 45.1675C111.427 45.6312 111.294 46.2503 110.83 46.5503C110.367 46.8502 109.748 46.7175 109.448 46.2538C109.276 45.9887 109.091 45.7306 108.892 45.4805C108.548 45.0481 108.62 44.419 109.053 44.0754ZM8.68889 47.5995C9.21968 47.7521 9.5263 48.306 9.37373 48.8368C9.28608 49.1418 9.21362 49.4507 9.15659 49.7626C9.05724 50.3059 8.53629 50.6657 7.99301 50.5664C7.44973 50.467 7.08986 49.9461 7.18921 49.4028C7.25813 49.026 7.34567 48.6527 7.45155 48.2843C7.60412 47.7535 8.15809 47.4469 8.68889 47.5995ZM111.312 47.606C111.842 47.4536 112.396 47.7604 112.549 48.2912C112.654 48.6594 112.742 49.0326 112.811 49.4092C112.91 49.9525 112.55 50.4734 112.007 50.5728C111.464 50.6721 110.943 50.3122 110.843 49.769C110.786 49.4572 110.714 49.1482 110.626 48.8432C110.474 48.3124 110.781 47.7585 111.312 47.606ZM7.95565 51.727C8.50421 51.6629 9.00085 52.0557 9.06494 52.6042C9.10155 52.9177 9.15376 53.2307 9.2218 53.5424C9.33958 54.082 8.99765 54.6149 8.45807 54.7327C7.91849 54.8505 7.38559 54.5086 7.26781 53.969C7.18571 53.5929 7.12268 53.2149 7.07845 52.8363C7.01436 52.2878 7.4071 51.7911 7.95565 51.727ZM112.045 51.7326C112.593 51.797 112.986 52.2938 112.921 52.8423C112.877 53.221 112.813 53.5991 112.731 53.9752C112.613 54.5147 112.079 54.856 111.54 54.7376C111 54.6192 110.659 54.0859 110.777 53.5465C110.846 53.2352 110.898 52.9225 110.935 52.6093C110.999 52.0608 111.496 51.6683 112.045 51.7326ZM8.86997 55.8181C9.3535 55.5512 9.96182 55.7268 10.2287 56.2104C10.305 56.3487 10.385 56.4861 10.4688 56.6225C10.5623 56.7735 10.6502 56.9269 10.7325 57.0824C10.9909 57.5705 10.8046 58.1757 10.3165 58.434C9.82838 58.6924 9.22323 58.5062 8.96486 58.018C8.90341 57.9019 8.83764 57.7872 8.76752 57.674L8.76556 57.6708C8.66525 57.5075 8.56929 57.3428 8.47766 57.1768C8.2108 56.6932 8.38644 56.0849 8.86997 55.8181ZM111.126 55.8214C111.608 56.0903 111.781 56.6993 111.512 57.1817C111.42 57.3474 111.323 57.5117 111.222 57.6745C111.222 57.6746 111.222 57.6748 111.222 57.6749L110.372 57.1474L111.222 57.674C111.222 57.6742 111.222 57.6743 111.222 57.6745C111.152 57.787 111.087 57.901 111.026 58.0163C110.767 58.5042 110.162 58.6899 109.674 58.4312C109.186 58.1724 109 57.5671 109.259 57.0792C109.341 56.9243 109.429 56.7714 109.522 56.6208L109.523 56.6199C109.607 56.4837 109.688 56.3463 109.765 56.208C110.034 55.7256 110.643 55.5525 111.126 55.8214ZM109.451 59.192C110.002 59.2326 110.415 59.7121 110.375 60.2629C110.355 60.5236 110.354 60.7851 110.372 61.0455C110.408 61.5965 109.991 62.073 109.44 62.1096C108.889 62.1462 108.413 61.7292 108.376 61.1781C108.353 60.8245 108.354 60.4695 108.38 60.1157C108.421 59.5649 108.9 59.1513 109.451 59.192ZM10.5415 59.2118C11.0925 59.1731 11.5705 59.5883 11.6091 60.1393C11.6341 60.4949 11.6341 60.8518 11.6091 61.2075C11.5705 61.7584 11.0925 62.1736 10.5415 62.1349C9.99062 62.0962 9.57537 61.6183 9.61406 61.0673C9.63248 60.805 9.63248 60.5417 9.61406 60.2794C9.57537 59.7284 9.99062 59.2505 10.5415 59.2118ZM109.658 62.8724C110.147 62.6155 110.751 62.8035 111.008 63.2924C111.069 63.4073 111.133 63.5208 111.202 63.6328C111.303 63.7952 111.399 63.9591 111.491 64.1243C111.76 64.6067 111.587 65.2158 111.105 65.4847C110.622 65.7535 110.013 65.5804 109.744 65.098C109.667 64.9597 109.587 64.8224 109.502 64.6861L109.5 64.6829C109.407 64.5318 109.32 64.3783 109.238 64.2228C108.981 63.7339 109.169 63.1293 109.658 62.8724ZM10.3165 62.9127C10.8046 63.171 10.9909 63.7762 10.7325 64.2643C10.6501 64.4201 10.562 64.5737 10.4683 64.725C10.3843 64.8613 10.3041 64.9985 10.2275 65.1367C9.95993 65.6198 9.35135 65.7945 8.86822 65.527C8.38509 65.2594 8.21036 64.6508 8.47794 64.1677C8.56978 64.0018 8.66596 63.8374 8.7665 63.6743L8.76752 63.6727C8.83764 63.5595 8.90341 63.4448 8.96486 63.3287C9.22323 62.8405 9.82838 62.6543 10.3165 62.9127ZM111.519 66.5685C112.059 66.4501 112.592 66.7914 112.71 67.3309C112.793 67.707 112.856 68.085 112.901 68.4637C112.965 69.0123 112.572 69.5091 112.024 69.5734C111.475 69.6378 110.978 69.2453 110.914 68.6968C110.877 68.3836 110.825 68.0708 110.757 67.7596C110.638 67.2201 110.98 66.6869 111.519 66.5685ZM8.4569 66.6088C8.99648 66.7266 9.33842 67.2595 9.22065 67.799C9.15274 68.1102 9.10069 68.4228 9.06424 68.7358C9.00036 69.2843 8.50387 69.6773 7.95529 69.6134C7.40671 69.5495 7.01379 69.053 7.07767 68.5044C7.12173 68.1261 7.18463 67.7484 7.26666 67.3726C7.38443 66.833 7.91732 66.491 8.4569 66.6088ZM111.986 70.7333C112.53 70.8327 112.889 71.3536 112.79 71.8969C112.721 72.2735 112.634 72.6466 112.528 73.0149C112.375 73.5457 111.822 73.8525 111.291 73.7C110.76 73.5476 110.453 72.9937 110.606 72.4629C110.693 72.1579 110.766 71.8489 110.823 71.5371C110.922 70.9938 111.443 70.6339 111.986 70.7333ZM7.99347 70.7705C8.53666 70.6706 9.05793 71.03 9.15776 71.5732C9.21499 71.8846 9.28764 72.1931 9.37546 72.4976C9.5285 73.0283 9.22238 73.5825 8.69173 73.7356C8.16107 73.8886 7.60682 73.5825 7.45378 73.0518C7.34767 72.6839 7.25988 72.3111 7.19071 71.9348C7.09087 71.3916 7.45028 70.8703 7.99347 70.7705ZM110.81 74.7558C111.273 75.0558 111.406 75.6749 111.106 76.1386C110.899 76.4581 110.676 76.769 110.437 77.0701C110.093 77.5024 109.464 77.5743 109.032 77.2307C108.6 76.887 108.528 76.2579 108.871 75.8256C109.07 75.5755 109.255 75.3174 109.427 75.0523C109.727 74.5885 110.346 74.4558 110.81 74.7558ZM9.17343 74.7881C9.63648 74.487 10.2559 74.6184 10.5569 75.0815C10.7287 75.3458 10.9143 75.6031 11.1135 75.8525C11.4583 76.2841 11.3879 76.9133 10.9564 77.258C10.5249 77.6027 9.89563 77.5323 9.55093 77.1008C9.31098 76.8005 9.08725 76.4903 8.88003 76.1715C8.57902 75.7085 8.71039 75.0891 9.17343 74.7881ZM106.793 77.7824C107.244 77.4644 107.868 77.5726 108.186 78.0241C108.504 78.4757 108.396 79.0995 107.944 79.4175C107.791 79.5257 107.634 79.6308 107.474 79.7329C107.363 79.8055 107.254 79.8812 107.149 79.9598C106.707 80.2904 106.08 80.1997 105.749 79.7572C105.419 79.3148 105.51 78.6881 105.952 78.3576C106.093 78.2523 106.238 78.1511 106.387 78.0542L106.395 78.0492C106.53 77.9628 106.663 77.8738 106.793 77.7824ZM11.8024 78.0473C12.1195 77.5951 12.7431 77.4856 13.1953 77.8026C13.3252 77.8937 13.458 77.9824 13.5937 78.0686L13.0576 78.9127L13.5938 78.0686C13.7445 78.1643 13.8912 78.2645 14.0338 78.369C14.4793 78.6955 14.5757 79.3212 14.2493 79.7667C13.9228 80.2122 13.2971 80.3087 12.8516 79.9822C12.7448 79.904 12.6348 79.8288 12.5216 79.7569C12.3602 79.6544 12.202 79.5488 12.0471 79.4402C11.5949 79.1231 11.4854 78.4995 11.8024 78.0473ZM105.204 80.3621C105.681 80.6397 105.843 81.2519 105.566 81.7293C105.433 81.9583 105.315 82.1957 105.215 82.44C105.006 82.951 104.422 83.1956 103.911 82.9863C103.4 82.7769 103.155 82.1929 103.365 81.6819C103.5 81.3521 103.658 81.032 103.837 80.7238C104.115 80.2464 104.727 80.0844 105.204 80.3621ZM14.8008 80.3738C15.2781 80.096 15.8902 80.2578 16.168 80.7351C16.3481 81.0444 16.5061 81.3658 16.6411 81.6969C16.8495 82.2084 16.6038 82.7919 16.0923 83.0003C15.5809 83.2087 14.9973 82.9631 14.7889 82.4516C14.6894 82.2073 14.5726 81.9699 14.4395 81.7411C14.1617 81.2638 14.3234 80.6516 14.8008 80.3738ZM103.765 83.7893C104.317 83.7733 104.778 84.2078 104.794 84.7599C104.798 84.8909 104.806 85.0227 104.819 85.155M16.2352 83.8092C16.7871 83.8292 17.2184 84.2928 17.1985 84.8447C17.1921 85.0211 17.1796 85.198 17.1609 85.3753C17.1452 85.5343 17.1335 85.6925 17.1255 85.8501C17.0976 86.4016 16.6278 86.8262 16.0762 86.7983C15.5247 86.7703 15.1001 86.3006 15.1281 85.749C15.1377 85.5584 15.152 85.3672 15.1709 85.1753L15.1716 85.1682C15.1857 85.0358 15.195 84.9038 15.1998 84.7725C15.2197 84.2206 15.6833 83.7893 16.2352 83.8092ZM103.802 87.9465C104.338 88.0804 104.664 88.6233 104.53 89.1591C104.436 89.5339 104.324 89.9022 104.195 90.2628C104.009 90.7827 103.436 91.0531 102.916 90.8667C102.396 90.6803 102.126 90.1078 102.313 89.5879C102.42 89.2894 102.512 88.9846 102.59 88.6743C102.724 88.1385 103.266 87.8127 103.802 87.9465ZM16.1877 87.9668C16.7235 87.833 17.2664 88.1588 17.4003 88.6946C17.4778 89.0049 17.5704 89.3097 17.6774 89.6082C17.8638 90.1281 17.5934 90.7006 17.0735 90.887C16.5536 91.0734 15.9811 90.803 15.7947 90.2831C15.6654 89.9225 15.5535 89.5543 15.4599 89.1794C15.326 88.6436 15.6519 88.1007 16.1877 87.9668ZM102.361 91.9006C102.804 92.2303 102.896 92.8568 102.566 93.2999C102.337 93.6077 102.093 93.9044 101.834 94.1889C101.463 94.5979 100.831 94.6284 100.422 94.2572C100.013 93.886 99.9822 93.2536 100.353 92.8446C100.568 92.608 100.771 92.3615 100.961 92.1058C101.291 91.6627 101.918 91.5709 102.361 91.9006ZM17.6293 91.9209C18.0723 91.5912 18.6988 91.6831 19.0285 92.1261C19.2188 92.3818 19.4217 92.6284 19.6365 92.865C20.0077 93.2739 19.9771 93.9063 19.5682 94.2775C19.1593 94.6487 18.5268 94.6182 18.1556 94.2093C17.8973 93.9247 17.6532 93.628 17.4241 93.3202C17.0944 92.8771 17.1862 92.2507 17.6293 91.9209ZM99.5156 95.0025C99.8019 95.4748 99.6511 96.0897 99.1788 96.376C98.8528 96.5737 98.5158 96.7567 98.1688 96.9243C97.6715 97.1644 97.0736 96.9558 96.8335 96.4585C96.5934 95.9611 96.8019 95.3633 97.2993 95.1232C97.5891 94.9833 97.8702 94.8305 98.1421 94.6657C98.6144 94.3794 99.2293 94.5302 99.5156 95.0025ZM20.4743 95.0228C20.7606 94.5505 21.3755 94.3997 21.8478 94.686C22.1197 94.8508 22.4009 95.0036 22.6906 95.1435C23.188 95.3836 23.3965 95.9814 23.1564 96.4788C22.9163 96.9762 22.3184 97.1847 21.8211 96.9446C21.4741 96.777 21.1371 96.594 20.8111 96.3963C20.3388 96.1101 20.188 95.4951 20.4743 95.0228ZM95.7156 96.8133C95.8093 97.3576 95.444 97.8748 94.8997 97.9685C94.7125 98.0007 94.5238 98.0288 94.3334 98.0528L94.2084 97.0607L94.334 98.0527C94.3338 98.0528 94.3336 98.0528 94.3334 98.0528M24.2743 96.8337C24.368 96.2894 24.8852 95.9241 25.4294 96.0178C25.5869 96.0449 25.746 96.0686 25.9065 96.0888L25.907 96.0889C26.0844 96.1113 26.2602 96.1395 26.4341 96.1732C26.9763 96.2783 27.3306 96.803 27.2255 97.3452C27.1204 97.8874 26.5957 98.2417 26.0535 98.1367C25.9227 98.1113 25.7903 98.0901 25.6565 98.0731M91.9957 97.64C92.3042 98.098 92.183 98.7195 91.725 99.028C91.5031 99.1775 91.2921 99.3415 91.0935 99.5189C90.6815 99.8867 90.0493 99.8509 89.6815 99.4389C89.3137 99.0269 89.3495 98.3948 89.7615 98.0269C90.028 97.789 90.3107 97.5693 90.6076 97.3693C91.0657 97.0607 91.6871 97.1819 91.9957 97.64ZM27.9942 97.6603C28.3028 97.2022 28.9242 97.081 29.3823 97.3896C29.6792 97.5896 29.9619 97.8093 30.2284 98.0473C30.6404 98.4151 30.6762 99.0472 30.3084 99.4592C29.9406 99.8712 29.3084 99.907 28.8965 99.5392C28.6978 99.3618 28.4868 99.1978 28.2649 99.0484C27.8069 98.7398 27.6857 98.1184 27.9942 97.6603ZM89.1867 100.108C89.6892 100.337 89.9109 100.93 89.6818 101.433C89.6268 101.553 89.5758 101.676 89.5289 101.801C89.4613 101.982 89.3896 102.161 89.3141 102.337C89.0964 102.844 88.5084 103.079 88.0008 102.861C87.4933 102.644 87.2584 102.056 87.4762 101.548C87.5393 101.401 87.5991 101.252 87.6557 101.1L87.6561 101.099C87.7193 100.931 87.788 100.765 87.862 100.603C88.0911 100.1 88.6842 99.8788 89.1867 100.108ZM30.8032 100.128C31.3057 99.8992 31.8988 100.121 32.1279 100.623C32.2017 100.785 32.2702 100.95 32.3332 101.118C32.3932 101.277 32.4568 101.433 32.5239 101.587C32.7447 102.093 32.5133 102.683 32.007 102.904C31.5008 103.124 30.9114 102.893 30.6907 102.387C30.6101 102.202 30.5338 102.014 30.4619 101.824L30.461 101.822C30.4141 101.696 30.3631 101.573 30.3081 101.453C30.079 100.95 30.3007 100.357 30.8032 100.128ZM87.3777 103.876C87.8008 104.231 87.8559 104.862 87.5009 105.285C87.2516 105.582 86.989 105.866 86.7142 106.135C86.3195 106.521 85.6864 106.514 85.3 106.12C84.9137 105.725 84.9204 105.092 85.3151 104.705C85.5436 104.482 85.7618 104.246 85.9689 104C86.3239 103.577 86.9547 103.521 87.3777 103.876ZM32.7294 104.047C33.1456 103.684 33.7773 103.727 34.1403 104.144C34.3629 104.399 34.5977 104.641 34.8435 104.871C35.2471 105.248 35.2687 105.881 34.8918 106.284C34.5148 106.688 33.882 106.71 33.4784 106.333C33.1831 106.057 32.9009 105.765 32.6333 105.458C32.2702 105.042 32.3132 104.411 32.7294 104.047ZM84.3368 106.82C84.5944 107.308 84.407 107.913 83.9185 108.171C83.5778 108.35 83.2286 108.513 82.8721 108.66C82.3612 108.87 81.7769 108.626 81.5671 108.115C81.3572 107.604 81.6012 107.02 82.1121 106.81C82.41 106.687 82.7016 106.551 82.9859 106.401C83.4745 106.144 84.0793 106.331 84.3368 106.82ZM36.0094 107.047C36.2487 106.549 36.8462 106.339 37.3439 106.579C37.6482 106.725 37.9601 106.856 38.2784 106.972C38.7975 107.16 39.0656 107.734 38.8771 108.253C38.6886 108.772 38.115 109.04 37.5959 108.852C37.215 108.713 36.8416 108.556 36.4772 108.381C35.9795 108.142 35.77 107.544 36.0094 107.047ZM72.4407 107.589C72.5244 108.134 72.1496 108.645 71.6037 108.728C71.3376 108.769 71.0747 108.828 70.8168 108.904C70.2872 109.061 69.7309 108.758 69.5744 108.229C69.4178 107.699 69.7202 107.143 70.2499 106.986C70.5943 106.884 70.9454 106.806 71.3007 106.752C71.8467 106.668 72.357 107.043 72.4407 107.589ZM47.5486 107.598C47.6314 107.052 48.1413 106.677 48.6873 106.76C49.0421 106.814 49.3928 106.891 49.737 106.992C50.2671 107.147 50.5708 107.703 50.4156 108.233C50.2603 108.763 49.7048 109.067 49.1748 108.911C48.9168 108.836 48.6537 108.778 48.3872 108.737C47.8412 108.654 47.4657 108.144 47.5486 107.598ZM73.2878 107.632C73.4256 107.098 73.9708 106.776 74.5056 106.913C74.6772 106.958 74.8481 107.008 75.018 107.064C75.1722 107.114 75.3266 107.16 75.4811 107.202C76.0137 107.349 76.3268 107.899 76.1804 108.432C76.0341 108.964 75.4838 109.277 74.9512 109.131C74.7669 109.08 74.583 109.025 74.3995 108.966L74.3951 108.964C74.2662 108.922 74.1366 108.884 74.0067 108.85C73.4719 108.712 73.15 108.167 73.2878 107.632ZM46.7042 107.641C46.8387 108.177 46.5136 108.72 45.978 108.855C45.849 108.887 45.7204 108.924 45.5923 108.965C45.4389 109.016 45.2849 109.064 45.1305 109.108C44.5998 109.261 44.0457 108.955 43.8929 108.424C43.7401 107.893 44.0465 107.339 44.5772 107.186C44.7073 107.149 44.837 107.109 44.966 107.066L44.9757 107.062C45.1465 107.008 45.3182 106.958 45.4906 106.915C46.0262 106.781 46.5696 107.106 46.7042 107.641ZM80.413 108.406C80.4714 108.955 80.0735 109.448 79.5243 109.506C79.1433 109.547 78.7588 109.57 78.3721 109.574C77.8199 109.58 77.367 109.138 77.3606 108.586C77.3542 108.033 77.7967 107.581 78.349 107.574C78.6726 107.57 78.9942 107.551 79.313 107.518C79.8622 107.459 80.3547 107.857 80.413 108.406ZM40.203 108.52C40.2304 107.968 40.6997 107.543 41.2513 107.571C41.4199 107.579 41.5891 107.583 41.7588 107.583C41.894 107.583 42.0299 107.581 42.1664 107.575C42.7182 107.553 43.1836 107.982 43.2059 108.534C43.2281 109.086 42.7988 109.551 42.247 109.574C42.0837 109.58 41.9209 109.583 41.7588 109.583C41.5559 109.583 41.3537 109.578 41.1521 109.568C40.6005 109.541 40.1756 109.072 40.203 108.52ZM68.8263 108.629C69.1787 109.054 69.1197 109.684 68.6944 110.037C68.5914 110.122 68.4908 110.211 68.3927 110.304M51.1634 108.629C51.5155 108.204 52.1459 108.145 52.5713 108.497C52.7089 108.611 52.8432 108.73 52.974 108.854L52.9757 108.855C53.0932 108.967 53.2127 109.076 53.334 109.181C53.7515 109.542 53.7969 110.174 53.4354 110.591C53.0739 111.009 52.4423 111.054 52.0248 110.693C51.8799 110.567 51.7373 110.438 51.5972 110.304C51.5969 110.304 51.5966 110.304 51.5964 110.303L52.286 109.579L51.5981 110.305C51.5978 110.305 51.5975 110.304 51.5972 110.304C51.4993 110.211 51.3989 110.122 51.2961 110.037C50.8707 109.685 50.8112 109.055 51.1634 108.629ZM54.4438 111.238C54.6718 110.735 55.2644 110.512 55.7675 110.74C56.0621 110.873 56.362 110.992 56.666 111.096C57.1885 111.275 57.467 111.844 57.2882 112.366C57.1093 112.889 56.5407 113.167 56.0182 112.988C55.6542 112.864 55.295 112.721 54.9418 112.561C54.4387 112.333 54.2158 111.741 54.4438 111.238ZM65.5461 111.238C65.7741 111.741 65.5512 112.333 65.0481 112.561C64.6949 112.721 64.3357 112.864 63.9717 112.988C63.4492 113.167 62.8806 112.889 62.7017 112.366C62.5229 111.844 62.8014 111.275 63.3239 111.096C63.6279 110.992 63.9278 110.873 64.2224 110.74C64.7255 110.512 65.3181 110.735 65.5461 111.238ZM58.4649 112.589C58.4907 112.037 58.9588 111.611 59.5105 111.637C59.6719 111.644 59.8334 111.648 59.9949 111.648C60.1565 111.648 60.318 111.644 60.4794 111.637C61.0311 111.611 61.4992 112.037 61.525 112.589C61.5508 113.141 61.1245 113.609 60.5728 113.634C60.3803 113.643 60.1876 113.648 59.9949 113.648C59.8023 113.648 59.6096 113.643 59.4171 113.634C58.8654 113.609 58.4391 113.141 58.4649 112.589Z" fill="url(#paint2_linear)"/>
<defs>
<linearGradient id="paint0_linear" x1="60" y1="120.648" x2="60" y2="0.647945" gradientUnits="userSpaceOnUse">
<stop stop-color="#8CAD03"/>
<stop offset="1" stop-color="#A6D224"/>
</linearGradient>
<linearGradient id="paint1_linear" x1="60" y1="112.648" x2="60" y2="8.64795" gradientUnits="userSpaceOnUse">
<stop stop-color="#8CAD03"/>
<stop offset="1" stop-color="#A6D224"/>
</linearGradient>
<linearGradient id="paint2_linear" x1="59.9995" y1="113.648" x2="59.9995" y2="7.64795" gradientUnits="userSpaceOnUse">
<stop stop-color="#8CAD03"/>
<stop offset="1" stop-color="#A6D224"/>
</linearGradient>
</defs>
</svg>
